{"glyphs":{"0":{"ha":986,"x_min":49,"x_max":938,"o":"m 49 497 q 63 642 49 574 q 105 768 78 710 q 172 871 132 825 q 260 948 211 916 q 368 997 310 980 q 493 1014 427 1014 q 618 997 559 1014 q 726 948 676 980 q 815 871 775 916 q 881 768 854 825 q 923 642 908 710 q 938 497 938 574 q 923 351 938 420 q 881 226 908 283 q 815 122 854 168 q 726 45 775 77 q 618 -4 676 13 q 493 -21 559 -21 q 368 -4 427 -21 q 260 45 310 13 q 172 122 211 77 q 105 226 132 168 q 63 351 78 283 q 49 497 49 420 m 194 497 q 215 336 194 407 q 274 216 235 265 q 368 141 313 167 q 493 115 423 115 q 618 141 563 115 q 712 216 674 167 q 771 336 751 265 q 792 497 792 407 q 771 657 792 586 q 712 777 751 728 q 618 852 674 826 q 493 878 563 878 q 368 852 423 878 q 274 777 313 826 q 215 657 235 728 q 194 497 194 586 z "},"1":{"ha":635,"x_min":38,"x_max":576,"o":"m 401 135 l 576 135 l 576 0 l 79 0 l 79 135 l 255 135 l 255 716 l 38 716 l 38 841 l 127 841 q 194 849 167 841 q 238 877 222 857 q 262 930 255 897 q 269 1014 269 964 l 401 1014 l 401 135 z "},"2":{"ha":899,"x_min":59,"x_max":840,"o":"m 59 0 l 59 130 q 68 209 59 173 q 91 274 76 245 q 128 327 107 304 q 174 369 149 350 q 227 402 199 388 q 285 428 256 416 q 344 449 314 439 q 401 466 373 458 l 448 480 q 514 501 483 491 q 574 523 546 511 q 623 549 601 535 q 662 582 646 563 q 686 625 677 601 q 694 681 694 649 q 677 757 694 722 q 629 820 660 793 q 554 863 598 847 q 455 878 510 878 q 354 861 399 878 q 277 814 309 844 q 227 740 244 783 q 209 646 209 698 l 209 627 l 64 627 l 64 649 q 91 800 64 733 q 171 915 119 868 q 297 988 223 963 q 463 1014 370 1014 q 623 990 553 1014 q 742 923 693 966 q 815 818 790 879 q 840 683 840 757 q 826 582 840 626 q 787 506 811 539 q 730 451 763 474 q 661 411 698 428 q 587 383 625 395 q 514 361 549 371 l 453 343 q 395 327 425 335 q 339 306 366 318 q 287 279 311 294 q 244 244 263 264 q 215 197 226 223 q 203 135 204 170 l 837 135 l 837 0 l 59 0 z "},"3":{"ha":934,"x_min":49,"x_max":886,"o":"m 49 685 q 76 824 49 763 q 153 927 102 885 q 278 992 205 969 q 445 1014 352 1014 q 606 994 534 1014 q 730 939 679 975 q 810 852 782 903 q 838 740 838 802 q 822 654 838 693 q 779 585 807 615 q 712 537 751 556 q 626 514 673 518 q 735 492 687 510 q 817 444 783 475 q 868 372 850 414 q 886 278 886 330 q 856 155 886 210 q 773 61 827 100 q 642 1 718 22 q 473 -21 566 -21 q 296 3 375 -21 q 163 72 217 27 q 78 181 108 117 q 49 326 49 245 l 49 327 l 194 327 l 194 317 q 214 234 194 271 q 268 170 233 197 q 352 129 302 143 q 461 115 401 115 q 573 129 522 115 q 661 168 624 143 q 719 228 698 193 q 740 304 740 263 q 677 407 740 373 q 485 440 615 440 l 359 440 l 359 568 l 484 568 q 571 579 532 568 q 636 608 609 589 q 678 653 664 626 q 693 713 693 680 q 674 780 693 750 q 622 833 656 811 q 541 866 588 855 q 436 878 493 878 q 332 866 377 878 q 257 829 288 853 q 210 768 226 804 q 194 686 194 732 l 194 684 l 49 684 l 49 685 z "},"4":{"ha":1007,"x_min":59,"x_max":948,"o":"m 656 0 l 656 235 l 59 235 l 59 438 l 640 993 l 802 993 l 802 370 l 948 370 l 948 235 l 802 235 l 802 0 l 656 0 m 656 370 l 656 830 l 176 370 l 656 370 z "},"5":{"ha":929,"x_min":59,"x_max":881,"o":"m 881 332 q 867 234 881 280 q 827 148 853 188 q 764 78 801 109 q 681 25 727 47 q 580 -9 635 3 q 464 -20 525 -20 q 353 -10 406 -20 q 256 19 301 0 q 174 65 211 38 q 113 126 138 92 q 73 199 87 159 q 59 281 59 238 l 59 289 l 205 289 l 205 283 q 214 239 205 260 q 241 199 224 218 q 281 166 258 181 q 334 140 305 151 q 396 124 363 130 q 465 118 429 118 q 573 134 524 118 q 659 178 623 150 q 715 246 694 207 q 735 333 735 286 q 716 414 735 377 q 663 477 698 451 q 578 518 628 503 q 463 532 527 532 q 374 524 415 532 q 302 500 333 515 q 249 465 270 485 q 221 422 228 445 l 75 422 l 75 993 l 815 993 l 815 858 l 221 858 l 221 501 q 266 560 238 533 q 334 605 295 586 q 422 634 373 624 q 526 645 470 645 q 673 622 608 645 q 785 559 739 600 q 856 460 831 517 q 881 332 881 402 z "},"6":{"ha":952,"x_min":49,"x_max":904,"o":"m 501 1014 q 607 1003 557 1014 q 699 973 657 993 q 775 926 741 954 q 832 863 808 898 q 867 786 855 827 q 880 697 880 744 l 880 689 l 734 689 l 734 695 q 717 770 734 736 q 670 828 700 804 q 597 865 640 852 q 502 878 554 878 q 371 851 428 878 q 274 770 313 823 q 214 639 235 717 q 194 461 194 561 l 194 355 q 229 455 201 411 q 302 531 256 500 q 409 578 347 562 q 548 595 472 595 q 697 575 631 595 q 809 518 763 555 q 880 427 855 481 q 904 306 904 374 q 875 172 904 232 q 793 69 846 111 q 664 3 739 26 q 496 -20 589 -20 q 305 12 388 -20 q 164 108 221 45 q 78 262 107 170 q 49 471 49 353 l 49 480 q 80 704 49 605 q 169 872 111 803 q 311 977 227 941 q 501 1014 395 1014 m 511 115 q 617 127 571 115 q 694 164 663 140 q 742 223 726 188 q 758 304 758 258 q 742 385 758 349 q 695 444 726 420 q 620 480 665 468 q 517 493 575 493 q 400 478 454 493 q 308 438 347 464 q 247 377 269 413 q 225 300 225 342 q 246 225 225 259 q 305 166 267 191 q 395 128 343 142 q 511 115 448 115 z "},"7":{"ha":847,"x_min":38,"x_max":788,"o":"m 259 0 q 276 163 264 85 q 308 312 288 240 q 357 451 328 383 q 427 586 387 519 q 520 720 468 652 q 640 858 573 787 l 38 858 l 38 993 l 788 993 l 788 851 q 674 724 724 785 q 585 602 624 664 q 518 476 546 541 q 470 339 490 412 q 438 183 450 267 q 418 0 425 99 l 259 0 z "},"8":{"ha":962,"x_min":49,"x_max":913,"o":"m 476 -21 q 298 -1 377 -21 q 163 56 219 19 q 78 145 108 92 q 49 264 49 198 q 66 356 49 314 q 116 431 83 399 q 197 485 149 463 q 306 516 245 507 q 211 544 253 525 q 141 592 170 563 q 97 657 112 620 q 82 738 82 694 q 111 850 82 799 q 193 937 140 901 q 320 994 247 974 q 484 1014 394 1014 q 596 1005 543 1014 q 693 979 648 996 q 772 937 737 962 q 832 882 808 913 q 870 815 857 852 q 883 738 883 779 q 868 657 883 694 q 824 591 853 620 q 752 544 794 563 q 657 516 710 525 q 766 487 718 508 q 847 436 814 467 q 896 364 879 405 q 913 272 913 322 q 883 150 913 205 q 796 58 852 96 q 658 0 739 20 q 476 -21 577 -21 m 482 567 q 672 607 607 567 q 737 726 737 648 q 483 878 737 878 q 227 725 227 878 q 292 607 227 648 q 482 567 357 567 m 481 115 q 696 158 624 115 q 768 288 768 202 q 698 412 768 372 q 481 452 627 452 q 354 442 408 452 q 265 412 300 432 q 212 361 229 392 q 194 288 194 330 q 267 158 194 202 q 481 115 339 115 z "},"9":{"ha":952,"x_min":49,"x_max":904,"o":"m 452 -20 q 345 -10 395 -20 q 253 20 295 0 q 178 68 211 40 q 121 131 144 95 q 85 208 98 166 q 73 297 73 250 l 73 305 l 218 305 l 218 298 q 235 223 218 257 q 283 165 252 190 q 356 128 313 141 q 450 115 399 115 q 582 143 524 115 q 678 223 639 170 q 738 354 718 276 q 759 532 759 432 l 759 639 q 724 538 751 583 q 651 463 696 494 q 543 415 605 432 q 405 399 481 399 q 255 418 321 399 q 143 475 189 438 q 73 566 97 513 q 49 687 49 619 q 78 822 49 761 q 160 925 107 882 q 289 991 213 967 q 456 1014 364 1014 q 648 981 565 1014 q 788 886 731 949 q 874 731 845 823 q 904 522 904 640 l 904 514 q 873 290 904 389 q 783 122 842 191 q 641 16 725 53 q 452 -20 557 -20 m 441 878 q 336 866 382 878 q 258 830 290 854 q 211 770 227 806 q 194 689 194 735 q 210 609 194 644 q 257 550 226 574 q 333 513 288 526 q 435 501 377 501 q 516 507 478 501 q 586 526 554 514 q 645 555 619 538 q 689 594 671 572 q 717 640 707 615 q 727 693 727 665 q 706 768 727 734 q 648 827 685 802 q 557 865 610 851 q 441 878 505 878 z "},"\r":{"ha":174,"x_min":0,"x_max":0,"o":""}," ":{"ha":313,"x_min":0,"x_max":0,"o":""},"O":{"ha":1035,"x_min":49,"x_max":986,"o":"m 49 497 q 64 642 49 574 q 108 768 79 710 q 178 871 137 825 q 272 948 220 916 q 386 997 324 980 q 517 1014 448 1014 q 649 997 587 1014 q 763 948 711 980 q 856 871 815 916 q 927 768 898 825 q 971 642 956 710 q 986 497 986 574 q 971 351 986 420 q 927 226 956 283 q 856 122 898 168 q 763 45 815 77 q 649 -4 711 13 q 517 -21 587 -21 q 386 -4 448 -21 q 272 45 324 13 q 178 122 220 77 q 108 226 137 168 q 64 351 79 283 q 49 497 49 420 m 194 497 q 216 336 194 407 q 280 216 239 265 q 382 141 322 167 q 517 115 442 115 q 653 141 593 115 q 755 216 713 167 q 818 336 796 265 q 841 497 841 407 q 818 657 841 586 q 755 777 796 728 q 653 852 713 826 q 517 878 593 878 q 382 852 442 878 q 280 777 322 826 q 216 657 239 728 q 194 497 194 586 z "},";":{"ha":295,"x_min":22,"x_max":247,"o":"m 236 589 l 59 589 l 59 776 l 236 776 l 236 589 m 137 -263 l 22 -263 l 70 188 l 247 188 l 137 -263 z "},"E":{"ha":773,"x_min":59,"x_max":744,"o":"m 730 993 l 730 858 l 205 858 l 205 563 l 688 563 l 688 428 l 205 428 l 205 135 l 744 135 l 744 0 l 59 0 l 59 993 l 730 993 z "},"I":{"ha":264,"x_min":59,"x_max":205,"o":"m 205 0 l 59 0 l 59 993 l 205 993 l 205 0 z "},"H":{"ha":944,"x_min":59,"x_max":885,"o":"m 885 0 l 740 0 l 740 428 l 205 428 l 205 0 l 59 0 l 59 993 l 205 993 l 205 563 l 740 563 l 740 993 l 885 993 l 885 0 z "},"L":{"ha":745,"x_min":59,"x_max":716,"o":"m 205 993 l 205 135 l 716 135 l 716 0 l 59 0 l 59 993 l 205 993 z "},"F":{"ha":759,"x_min":59,"x_max":730,"o":"m 730 858 l 205 858 l 205 549 l 688 549 l 688 414 l 205 414 l 205 0 l 59 0 l 59 993 l 730 993 l 730 858 z "},"T":{"ha":845,"x_min":12,"x_max":833,"o":"m 833 858 l 495 858 l 495 0 l 350 0 l 350 858 l 12 858 l 12 993 l 833 993 l 833 858 z "},"S":{"ha":905,"x_min":31,"x_max":873,"o":"m 446 1014 q 607 992 535 1014 q 730 928 679 969 q 809 827 782 887 q 837 694 837 768 l 695 694 q 677 772 695 737 q 625 831 658 807 q 546 869 592 856 q 445 882 500 882 q 383 878 414 882 q 324 864 352 873 q 272 842 296 856 q 229 810 247 828 q 201 768 211 792 q 191 716 191 745 q 199 673 191 691 q 223 641 207 654 q 261 617 238 627 q 311 600 283 608 q 374 587 340 593 q 448 576 409 582 l 499 568 q 564 558 531 563 q 629 545 597 552 q 692 527 661 538 q 749 502 722 516 q 799 467 777 487 q 839 421 822 447 q 864 361 855 395 q 873 285 873 328 q 859 191 873 234 q 820 114 845 148 q 757 55 794 80 q 674 13 720 30 q 573 -12 628 -4 q 458 -21 519 -21 q 279 1 358 -21 q 145 65 200 23 q 60 169 90 108 q 31 308 31 230 l 174 308 q 193 226 174 262 q 250 163 213 189 q 339 124 287 138 q 456 111 391 111 q 528 116 493 111 q 593 130 563 120 q 649 154 624 139 q 692 188 674 168 q 720 232 710 207 q 731 288 731 257 q 722 336 731 316 q 699 371 714 356 q 662 395 684 385 q 614 413 641 406 q 555 426 586 420 q 488 436 523 431 l 423 446 q 336 460 381 452 q 251 480 292 467 q 172 510 209 492 q 108 555 135 528 q 65 622 81 583 q 49 713 49 660 q 63 805 49 763 q 103 880 77 846 q 166 938 130 913 q 247 980 202 963 q 341 1005 291 997 q 446 1014 392 1014 z "},"C":{"ha":1019,"x_min":49,"x_max":963,"o":"m 194 497 q 216 336 194 407 q 280 216 239 265 q 382 141 322 167 q 517 115 442 115 q 716 184 639 115 q 817 385 792 252 l 963 385 q 909 215 948 290 q 814 87 871 140 q 681 7 756 35 q 517 -21 606 -21 q 385 -4 447 -21 q 272 45 324 13 q 178 122 220 77 q 108 226 137 168 q 64 351 79 283 q 49 497 49 420 q 64 642 49 574 q 108 768 79 710 q 178 871 137 825 q 272 948 220 916 q 385 997 324 980 q 517 1014 447 1014 q 681 986 606 1014 q 814 906 756 958 q 909 778 871 853 q 963 608 948 703 l 817 608 q 716 810 792 741 q 517 878 639 878 q 382 852 442 878 q 280 777 322 826 q 216 657 239 728 q 194 497 194 586 z "},"G":{"ha":1034,"x_min":49,"x_max":975,"o":"m 194 497 q 215 336 194 407 q 276 215 236 265 q 374 139 316 166 q 506 113 432 113 q 594 123 552 113 q 672 151 636 133 q 738 195 708 169 q 789 253 767 221 q 822 322 810 284 q 836 399 834 359 l 493 399 l 493 531 l 975 531 l 975 0 l 836 0 l 836 280 q 784 157 819 212 q 702 62 750 101 q 594 1 654 22 q 466 -21 534 -21 q 350 -3 405 -21 q 249 47 295 14 q 166 125 203 79 q 102 229 128 172 q 63 354 76 286 q 49 497 49 422 q 64 642 49 574 q 108 768 79 710 q 178 871 137 825 q 272 948 219 916 q 385 997 324 980 q 517 1014 447 1014 q 676 988 602 1014 q 809 915 751 963 q 907 801 867 868 q 962 649 946 733 l 816 649 q 777 747 803 704 q 711 819 750 790 q 624 863 673 848 q 517 878 575 878 q 382 852 442 878 q 280 777 322 826 q 216 657 239 728 q 194 497 194 586 z "},"U":{"ha":965,"x_min":59,"x_max":906,"o":"m 59 993 l 205 993 l 205 417 q 223 289 205 345 q 277 194 242 232 q 365 135 313 155 q 483 115 416 115 q 601 135 549 115 q 688 194 652 155 q 742 289 723 232 q 760 417 760 345 l 760 993 l 906 993 l 906 417 q 893 292 906 350 q 854 185 879 233 q 791 98 828 136 q 707 33 754 60 q 604 -7 660 7 q 483 -21 547 -21 q 362 -7 418 -21 q 258 33 305 7 q 174 98 211 60 q 112 185 137 136 q 73 292 86 233 q 59 417 59 350 l 59 993 z "},"J":{"ha":859,"x_min":30,"x_max":800,"o":"m 30 434 l 175 434 l 175 375 q 193 271 175 319 q 243 188 211 223 q 318 134 274 153 q 413 115 362 115 q 510 134 465 115 q 586 189 554 154 q 636 273 618 225 q 655 378 655 322 l 655 993 l 800 993 l 800 378 q 788 265 800 318 q 752 168 776 212 q 695 88 729 123 q 619 29 661 53 q 524 -8 576 5 q 415 -21 473 -21 q 256 8 327 -21 q 135 88 185 36 q 57 214 84 140 q 30 378 30 288 l 30 434 z "},"D":{"ha":944,"x_min":59,"x_max":896,"o":"m 59 993 l 386 993 q 530 977 463 993 q 654 931 598 961 q 756 857 711 900 q 832 758 801 813 q 879 637 863 703 q 896 497 896 571 q 879 356 896 422 q 832 235 863 290 q 756 136 801 180 q 654 63 711 93 q 530 16 598 32 q 386 0 463 0 l 59 0 l 59 993 m 386 135 q 538 160 471 135 q 653 232 606 185 q 725 345 700 278 q 750 497 750 412 q 725 648 750 581 q 653 761 700 715 q 538 833 606 808 q 386 858 471 858 l 201 858 l 201 135 l 386 135 z "},"B":{"ha":932,"x_min":59,"x_max":903,"o":"m 542 993 q 629 984 588 993 q 706 959 671 975 q 770 920 742 943 q 819 868 799 897 q 850 806 839 840 q 861 735 861 773 q 846 653 861 691 q 804 585 831 615 q 740 537 777 556 q 660 513 703 518 q 758 487 713 508 q 835 435 802 467 q 885 360 867 402 q 903 267 903 317 q 892 193 903 228 q 860 128 881 158 q 809 75 839 98 q 741 34 779 51 q 660 9 704 18 q 567 0 616 0 l 59 0 l 59 993 l 542 993 m 535 564 q 609 575 576 564 q 666 606 642 586 q 703 655 690 626 q 716 717 716 683 q 703 776 716 750 q 668 820 691 802 q 610 848 644 838 q 534 858 577 858 l 205 858 l 205 564 l 535 564 m 546 135 q 758 286 758 135 q 706 399 758 362 q 546 436 653 436 l 205 436 l 205 135 l 546 135 z "},"R":{"ha":941,"x_min":59,"x_max":902,"o":"m 59 0 l 59 993 l 540 993 q 633 983 589 993 q 715 955 677 974 q 782 911 752 937 q 833 853 812 885 q 865 782 853 820 q 876 701 876 744 q 856 596 876 643 q 800 516 836 549 q 714 463 764 482 q 600 442 663 443 q 699 398 656 437 q 774 286 742 358 l 902 0 l 742 0 l 615 285 q 586 333 602 314 q 547 364 570 352 q 493 381 524 376 q 418 386 461 386 l 205 386 l 205 0 l 59 0 m 521 522 q 609 533 570 522 q 674 567 648 545 q 716 621 701 589 q 730 693 730 653 q 716 764 730 733 q 675 815 702 794 q 610 847 649 836 q 520 858 570 858 l 205 858 l 205 522 l 521 522 z "},"P":{"ha":924,"x_min":59,"x_max":875,"o":"m 59 993 l 519 993 q 618 982 572 993 q 704 952 665 972 q 775 903 743 932 q 829 839 807 875 q 863 762 851 804 q 875 674 875 720 q 863 585 875 627 q 829 507 851 543 q 775 443 807 472 q 704 394 743 415 q 618 363 664 374 q 519 352 571 352 l 205 352 l 205 0 l 59 0 l 59 993 m 508 488 q 600 501 559 488 q 669 538 641 514 q 714 597 698 563 q 730 674 730 631 q 714 750 730 716 q 670 808 699 784 q 602 845 642 832 q 511 858 561 858 l 205 858 l 205 488 l 508 488 z "},"Q":{"ha":1035,"x_min":49,"x_max":986,"o":"m 49 497 q 64 642 49 574 q 108 768 79 710 q 178 871 137 825 q 272 948 220 916 q 386 997 324 980 q 517 1014 448 1014 q 649 997 587 1014 q 763 948 711 980 q 856 871 815 916 q 927 768 898 825 q 971 642 956 710 q 986 497 986 574 q 972 356 986 422 q 930 234 957 290 q 865 132 903 177 q 777 54 826 86 l 961 -147 l 798 -147 l 672 3 q 598 -15 636 -9 q 517 -21 559 -21 q 386 -4 448 -21 q 272 45 324 13 q 178 122 220 77 q 108 226 137 168 q 64 351 79 283 q 49 497 49 420 m 194 497 q 216 336 194 407 q 280 216 239 265 q 382 141 322 167 q 517 115 442 115 q 653 141 593 115 q 755 216 713 167 q 818 336 796 265 q 840 497 840 407 q 818 657 840 586 q 755 777 796 728 q 653 852 713 826 q 517 878 593 878 q 382 852 442 878 q 280 777 322 826 q 216 657 239 728 q 194 497 194 586 z "},"A":{"ha":978,"x_min":12,"x_max":966,"o":"m 12 0 l 382 993 l 601 993 l 966 0 l 811 0 l 721 249 l 256 249 l 164 0 l 12 0 m 673 381 l 490 883 l 304 381 l 673 381 z "},"V":{"ha":951,"x_min":12,"x_max":939,"o":"m 939 993 l 582 0 l 364 0 l 12 993 l 167 993 l 475 113 l 787 993 l 939 993 z "},"W":{"ha":1514,"x_min":38,"x_max":1476,"o":"m 853 993 l 1086 96 l 1324 993 l 1476 993 l 1205 0 l 986 0 l 757 854 l 523 0 l 305 0 l 38 993 l 193 993 l 426 96 l 664 993 l 853 993 z "},"K":{"ha":935,"x_min":59,"x_max":923,"o":"m 337 486 l 923 0 l 701 0 l 205 420 l 205 0 l 59 0 l 59 993 l 205 993 l 205 541 l 680 993 l 885 993 l 337 486 z "},"X":{"ha":962,"x_min":19,"x_max":943,"o":"m 571 506 l 943 0 l 768 0 l 471 406 l 183 0 l 19 0 l 385 504 l 40 993 l 212 993 l 484 605 l 748 993 l 912 993 l 571 506 z "},"Y":{"ha":944,"x_min":9,"x_max":935,"o":"m 935 993 l 543 377 l 543 0 l 397 0 l 397 376 l 9 993 l 177 993 l 472 518 l 770 993 l 935 993 z "},"M":{"ha":1272,"x_min":59,"x_max":1213,"o":"m 1213 993 l 1213 0 l 1067 0 l 1067 870 l 734 0 l 530 0 l 201 870 l 201 0 l 59 0 l 59 993 l 307 993 l 634 119 l 966 993 l 1213 993 z "},"N":{"ha":1000,"x_min":59,"x_max":941,"o":"m 941 0 l 704 0 l 201 900 l 201 0 l 59 0 l 59 993 l 317 993 l 798 131 l 798 993 l 941 993 l 941 0 z "},"Z":{"ha":877,"x_min":59,"x_max":818,"o":"m 227 135 l 818 135 l 818 0 l 59 0 l 59 146 l 615 858 l 76 858 l 76 993 l 783 993 l 783 847 l 227 135 z "},".":{"ha":295,"x_min":59,"x_max":236,"o":"m 236 0 l 59 0 l 59 188 l 236 188 l 236 0 z "},"o":{"ha":825,"x_min":38,"x_max":787,"o":"m 38 383 q 50 497 38 443 q 85 595 63 550 q 141 676 108 640 q 216 736 174 711 q 307 773 257 760 q 413 786 357 786 q 518 773 469 786 q 609 736 568 760 q 684 676 651 711 q 740 595 717 640 q 775 497 763 550 q 787 383 787 443 q 775 269 787 323 q 740 171 763 216 q 684 90 717 126 q 609 30 651 55 q 518 -8 568 5 q 413 -21 469 -21 q 307 -8 357 -21 q 216 30 257 5 q 141 90 174 55 q 85 171 108 126 q 50 269 63 216 q 38 383 38 323 m 179 383 q 195 268 179 319 q 241 180 211 216 q 315 125 272 144 q 413 106 359 106 q 510 125 467 106 q 584 180 553 144 q 630 268 614 216 q 646 383 646 319 q 630 498 646 447 q 584 585 614 550 q 510 640 553 621 q 413 659 467 659 q 315 640 359 659 q 241 585 272 621 q 195 498 211 549 q 179 383 179 447 z "},"l":{"ha":252,"x_min":56,"x_max":196,"o":"m 196 0 l 56 0 l 56 1028 l 196 1028 l 196 0 z "},"b":{"ha":842,"x_min":56,"x_max":804,"o":"m 196 530 q 238 636 211 589 q 301 717 264 684 q 383 768 337 750 q 480 786 428 786 q 570 773 527 786 q 648 734 612 759 q 713 673 684 709 q 762 592 742 637 q 793 494 782 547 q 804 383 804 442 q 793 272 804 324 q 762 174 782 219 q 713 93 742 129 q 648 32 684 57 q 570 -7 612 6 q 480 -21 527 -21 q 383 -3 428 -21 q 301 49 337 15 q 238 130 264 82 q 196 236 211 177 l 196 0 l 56 0 l 56 1028 l 196 1028 l 196 530 m 196 383 q 212 265 196 317 q 259 177 228 214 q 333 122 290 141 q 432 103 377 103 q 532 121 489 103 q 604 175 575 139 q 648 263 633 210 q 664 383 664 315 q 648 503 664 451 q 604 591 633 556 q 532 645 575 626 q 432 663 489 663 q 333 644 377 663 q 259 589 290 625 q 212 501 228 552 q 196 383 196 449 z "},"d":{"ha":842,"x_min":38,"x_max":787,"o":"m 787 1028 l 787 0 l 646 0 l 646 236 q 605 130 631 177 q 541 49 578 82 q 460 -3 505 15 q 362 -21 414 -21 q 273 -7 315 -21 q 194 32 230 6 q 129 93 158 57 q 80 174 100 129 q 49 271 60 218 q 38 383 38 324 q 49 494 38 442 q 80 592 60 547 q 129 673 100 637 q 194 734 158 709 q 273 773 230 759 q 362 786 315 786 q 460 768 414 786 q 541 717 505 750 q 605 636 578 684 q 646 530 631 589 l 646 1028 l 787 1028 m 646 383 q 630 501 646 449 q 583 589 614 552 q 509 644 553 625 q 410 663 465 663 q 311 645 354 663 q 238 591 267 626 q 194 503 209 556 q 179 383 179 451 q 194 263 179 315 q 238 175 209 210 q 311 121 268 139 q 410 103 354 103 q 509 122 465 103 q 583 177 553 141 q 630 265 614 214 q 646 383 646 317 z "},"q":{"ha":842,"x_min":38,"x_max":787,"o":"m 787 766 l 787 -262 l 646 -262 l 646 236 q 605 130 631 177 q 542 49 578 82 q 460 -3 505 15 q 362 -21 414 -21 q 273 -7 315 -21 q 194 32 230 6 q 129 93 158 57 q 80 174 100 129 q 49 271 60 218 q 38 383 38 324 q 49 494 38 442 q 80 592 60 547 q 129 673 100 637 q 194 734 158 709 q 273 773 230 759 q 362 786 315 786 q 460 768 414 786 q 542 717 505 750 q 605 636 578 683 q 646 529 631 588 l 646 766 l 787 766 m 646 383 q 630 501 646 449 q 583 589 614 552 q 509 644 553 625 q 410 663 465 663 q 311 645 354 663 q 238 591 267 626 q 194 503 209 556 q 179 383 179 451 q 194 263 179 315 q 238 175 209 210 q 311 121 268 139 q 410 103 354 103 q 509 122 465 103 q 583 177 553 141 q 630 265 614 214 q 646 383 646 317 z "},"p":{"ha":842,"x_min":56,"x_max":804,"o":"m 196 529 q 238 636 211 588 q 301 717 264 683 q 383 768 337 750 q 480 786 428 786 q 570 773 527 786 q 648 734 612 759 q 713 673 684 709 q 762 592 742 637 q 793 494 782 547 q 804 383 804 442 q 793 271 804 324 q 762 174 782 218 q 713 93 742 129 q 648 32 684 57 q 570 -7 612 6 q 480 -21 527 -21 q 383 -3 428 -21 q 301 49 337 15 q 238 130 264 82 q 196 236 211 177 l 196 -262 l 56 -262 l 56 766 l 196 766 l 196 529 m 196 383 q 212 265 196 317 q 259 177 228 214 q 333 122 290 141 q 432 103 377 103 q 532 121 489 103 q 604 175 575 139 q 648 263 633 210 q 664 383 664 315 q 648 503 664 451 q 604 591 633 556 q 532 645 575 626 q 432 663 489 663 q 333 644 377 663 q 259 589 290 625 q 212 501 228 552 q 196 383 196 449 z "},"c":{"ha":805,"x_min":38,"x_max":766,"o":"m 179 383 q 195 268 179 319 q 241 180 211 216 q 315 125 272 144 q 413 106 359 106 q 497 120 460 106 q 560 160 533 135 q 602 218 586 184 q 626 289 619 251 l 766 289 q 747 205 761 245 q 710 131 732 165 q 658 69 688 97 q 590 21 628 41 q 509 -10 553 1 q 413 -21 464 -21 q 307 -8 357 -21 q 216 30 257 5 q 141 90 174 55 q 85 171 108 126 q 50 269 63 216 q 38 383 38 323 q 50 497 38 443 q 85 595 63 550 q 141 676 108 640 q 216 736 174 711 q 307 773 257 760 q 413 786 357 786 q 509 776 464 786 q 591 745 553 765 q 658 697 628 725 q 710 635 688 669 q 747 560 732 600 q 766 477 761 520 l 626 477 q 603 548 619 515 q 560 606 586 581 q 497 645 534 631 q 413 659 460 659 q 315 640 359 659 q 241 585 272 621 q 195 498 211 550 q 179 383 179 447 z "},"s":{"ha":753,"x_min":30,"x_max":722,"o":"m 367 786 q 506 769 445 786 q 609 718 567 751 q 672 639 650 685 q 694 534 694 592 l 557 534 q 544 588 557 564 q 507 629 532 612 q 448 656 483 646 q 367 665 413 665 q 291 657 325 665 q 232 636 257 650 q 194 602 207 622 q 180 558 180 582 q 188 527 180 540 q 209 503 195 513 q 240 486 222 493 q 278 473 257 478 q 320 464 298 468 q 363 457 342 461 l 414 449 q 481 438 446 444 q 551 421 516 432 q 616 394 585 410 q 670 354 647 378 q 708 296 694 330 q 722 215 722 262 q 700 115 722 159 q 634 41 677 71 q 527 -5 591 10 q 380 -21 463 -21 q 227 -4 292 -21 q 117 46 161 13 q 52 127 74 79 q 30 238 30 175 l 167 238 q 180 179 167 205 q 219 136 192 154 q 285 110 245 119 q 379 101 325 101 q 466 108 428 101 q 531 129 505 115 q 571 164 557 143 q 585 212 585 185 q 577 248 585 233 q 555 276 569 264 q 521 296 541 288 q 479 311 502 305 q 432 322 457 317 q 383 331 408 327 l 332 340 q 270 351 303 344 q 205 367 238 357 q 144 392 173 377 q 92 430 115 407 q 56 483 70 452 q 43 555 43 514 q 65 651 43 608 q 130 724 88 693 q 231 770 172 754 q 367 786 291 786 z "},"e":{"ha":808,"x_min":38,"x_max":769,"o":"m 766 254 q 719 139 751 190 q 643 52 688 88 q 539 -2 597 17 q 414 -21 482 -21 q 308 -8 358 -21 q 217 30 259 6 q 142 91 175 55 q 86 171 109 126 q 50 270 63 216 q 38 384 38 324 q 50 498 38 444 q 85 595 63 551 q 141 676 108 640 q 215 736 173 711 q 305 773 256 760 q 410 786 355 786 q 559 758 492 786 q 672 678 625 730 q 744 552 719 626 q 769 386 769 478 q 769 360 769 373 q 767 332 768 347 l 182 332 q 207 237 188 279 q 256 166 226 195 q 327 122 286 137 q 418 106 368 106 q 546 143 494 106 q 625 254 597 180 l 766 254 m 624 453 q 600 541 617 503 q 555 606 582 580 q 492 646 528 632 q 411 659 456 659 q 327 645 365 659 q 260 605 289 631 q 211 540 231 578 q 184 453 192 501 l 624 453 z "},"a":{"ha":822,"x_min":35,"x_max":769,"o":"m 57 499 q 82 618 57 565 q 151 709 106 671 q 261 766 197 746 q 406 786 326 786 q 558 764 491 786 q 673 698 626 741 q 744 594 719 656 q 769 454 769 532 l 769 0 l 629 0 l 629 206 q 587 111 615 153 q 518 40 558 69 q 426 -5 477 10 q 314 -21 374 -21 q 199 -4 251 -21 q 111 43 148 13 q 55 115 75 73 q 35 210 35 158 q 55 305 35 263 q 115 376 76 347 q 209 421 153 405 q 333 436 264 436 l 629 436 l 629 454 q 613 539 629 501 q 568 604 597 577 q 497 645 539 631 q 403 659 456 659 q 312 648 350 659 q 248 615 273 636 q 210 565 223 594 q 198 499 198 535 l 57 499 m 332 318 q 214 292 254 318 q 174 215 174 266 q 185 166 174 188 q 219 131 197 145 q 275 109 242 117 q 351 102 308 102 q 463 116 413 102 q 551 157 514 131 q 608 219 588 183 q 629 297 629 255 l 629 318 l 332 318 z "},"g":{"ha":849,"x_min":38,"x_max":794,"o":"m 794 766 l 794 139 q 781 20 794 76 q 744 -83 768 -36 q 685 -167 720 -130 q 607 -231 651 -205 q 512 -270 564 -257 q 401 -284 460 -284 q 303 -273 350 -284 q 215 -243 256 -263 q 142 -197 175 -224 q 86 -135 110 -169 q 51 -62 63 -101 q 38 21 38 -22 l 179 21 q 196 -51 179 -17 q 244 -109 214 -84 q 314 -148 274 -134 q 401 -162 355 -162 q 505 -141 458 -162 q 584 -80 551 -119 q 635 15 617 -40 q 653 139 653 71 l 653 260 q 611 158 638 203 q 547 80 584 113 q 464 31 510 48 q 365 14 418 14 q 277 27 319 14 q 200 64 235 40 q 136 123 164 88 q 87 200 107 157 q 56 294 67 243 q 45 400 45 344 q 56 507 45 457 q 87 601 67 558 q 136 678 107 643 q 200 736 164 712 q 277 773 235 760 q 365 786 319 786 q 464 769 418 786 q 547 720 510 752 q 611 642 584 688 q 653 541 638 597 l 653 766 l 794 766 m 653 400 q 637 511 653 462 q 590 593 620 559 q 514 645 559 627 q 413 663 470 663 q 316 646 358 663 q 245 595 274 629 q 201 513 216 562 q 186 400 186 464 q 201 288 186 336 q 245 205 216 239 q 316 155 274 172 q 413 138 358 138 q 514 156 470 138 q 590 207 559 174 q 637 290 620 241 q 653 400 653 339 z "},"n":{"ha":811,"x_min":56,"x_max":759,"o":"m 196 0 l 56 0 l 56 766 l 196 766 l 196 544 q 236 646 210 601 q 299 722 262 691 q 381 770 335 753 q 480 786 427 786 q 598 762 546 786 q 685 691 649 737 q 740 578 721 644 q 759 428 759 511 l 759 0 l 618 0 l 618 428 q 569 601 618 543 q 422 659 520 659 q 327 643 369 659 q 256 595 285 626 q 212 518 227 564 q 196 414 196 472 l 196 0 z "},"h":{"ha":811,"x_min":56,"x_max":759,"o":"m 196 0 l 56 0 l 56 1028 l 196 1028 l 196 544 q 236 646 210 601 q 299 722 262 691 q 381 770 335 753 q 480 786 427 786 q 597 762 545 786 q 685 691 649 737 q 740 578 721 644 q 759 428 759 511 l 759 0 l 618 0 l 618 428 q 569 601 618 543 q 422 659 520 659 q 327 643 369 659 q 256 595 285 626 q 212 518 227 564 q 196 414 196 472 l 196 0 z "},"m":{"ha":1284,"x_min":56,"x_max":1232,"o":"m 196 0 l 56 0 l 56 766 l 196 766 l 196 552 q 234 650 210 607 q 291 724 258 694 q 366 770 325 754 q 457 786 408 786 q 550 769 508 786 q 624 717 592 751 q 677 634 656 683 q 708 523 699 585 q 742 633 719 584 q 800 716 766 682 q 878 768 834 750 q 974 786 923 786 q 1082 762 1035 786 q 1163 691 1130 737 q 1214 578 1197 644 q 1232 428 1232 511 l 1232 0 l 1091 0 l 1091 428 q 1047 601 1091 543 q 916 659 1004 659 q 831 643 868 659 q 767 595 793 626 q 728 518 741 564 q 714 414 714 472 l 714 0 l 573 0 l 573 428 q 530 601 573 543 q 398 659 486 659 q 313 643 351 659 q 250 595 276 626 q 210 518 224 564 q 196 414 196 472 l 196 0 z "},"u":{"ha":811,"x_min":52,"x_max":756,"o":"m 615 766 l 756 766 l 756 0 l 615 0 l 615 221 q 575 120 601 165 q 513 44 549 75 q 430 -4 476 13 q 331 -21 384 -21 q 214 4 265 -21 q 126 75 162 29 q 71 188 90 122 q 52 338 52 254 l 52 766 l 193 766 l 193 338 q 242 164 193 223 q 389 106 291 106 q 484 123 442 106 q 555 171 526 139 q 599 248 584 202 q 615 351 615 293 l 615 766 z "},"r":{"ha":564,"x_min":56,"x_max":527,"o":"m 196 0 l 56 0 l 56 766 l 196 766 l 196 522 q 235 624 209 579 q 297 701 260 669 q 383 749 334 732 q 493 766 432 766 l 527 766 l 527 632 l 493 632 q 352 616 409 632 q 261 569 295 601 q 211 491 226 538 q 196 380 196 443 l 196 0 z "},"i":{"ha":252,"x_min":52,"x_max":200,"o":"m 200 854 l 52 854 l 52 1028 l 200 1028 l 200 854 m 196 0 l 56 0 l 56 766 l 196 766 l 196 0 z "},"j":{"ha":252,"x_min":-119,"x_max":200,"o":"m 200 854 l 52 854 l 52 1028 l 200 1028 l 200 854 m 196 31 q 123 -206 196 -127 q -97 -284 50 -284 l -119 -284 l -119 -157 l -97 -157 q -34 -147 -60 -157 q 9 -122 -8 -138 q 35 -87 26 -107 q 49 -46 45 -67 q 55 -5 54 -25 q 56 31 56 16 l 56 766 l 196 766 l 196 31 z "},"f":{"ha":585,"x_min":28,"x_max":542,"o":"m 144 648 l 28 648 l 28 766 l 144 766 l 144 783 q 162 908 144 854 q 214 999 180 963 q 300 1054 249 1036 q 418 1073 351 1073 q 541 1059 475 1073 l 541 938 q 437 950 481 950 q 317 909 357 950 q 278 783 278 867 l 278 766 l 542 766 l 542 648 l 285 648 l 285 0 l 144 0 l 144 648 z "},"t":{"ha":569,"x_min":28,"x_max":526,"o":"m 526 6 q 368 -20 438 -20 q 266 -3 310 -20 q 193 49 223 15 q 147 135 163 84 q 132 253 132 186 l 132 648 l 28 648 l 28 766 l 132 766 l 132 942 l 273 942 l 273 766 l 526 766 l 526 648 l 273 648 l 273 253 q 301 141 273 177 q 391 105 330 105 q 449 110 416 105 q 526 127 482 116 l 526 6 z "},"v":{"ha":804,"x_min":19,"x_max":784,"o":"m 784 766 l 510 0 l 291 0 l 19 766 l 165 766 l 402 87 l 642 766 l 784 766 z "},"w":{"ha":1279,"x_min":24,"x_max":1255,"o":"m 725 766 l 920 97 l 1112 766 l 1255 766 l 1028 0 l 830 0 l 640 635 l 449 0 l 251 0 l 24 766 l 170 766 l 363 96 l 557 766 l 725 766 z "},"k":{"ha":800,"x_min":56,"x_max":778,"o":"m 314 374 l 778 0 l 576 0 l 196 317 l 196 0 l 56 0 l 56 1028 l 196 1028 l 196 425 l 560 766 l 741 766 l 314 374 z "},"x":{"ha":856,"x_min":23,"x_max":833,"o":"m 528 389 l 833 0 l 667 0 l 420 314 l 181 0 l 23 0 l 323 388 l 38 766 l 205 766 l 431 464 l 651 766 l 809 766 l 528 389 z "},"z":{"ha":734,"x_min":40,"x_max":694,"o":"m 200 118 l 694 118 l 694 0 l 40 0 l 40 126 l 508 647 l 53 647 l 53 766 l 667 766 l 667 639 l 200 118 z "},"y":{"ha":803,"x_min":19,"x_max":784,"o":"m 784 766 l 467 -48 q 412 -154 443 -109 q 339 -227 380 -198 q 247 -270 298 -256 q 134 -284 196 -284 q 70 -280 100 -284 l 70 -157 q 104 -161 88 -160 q 134 -162 120 -162 q 197 -155 169 -162 q 247 -135 225 -149 q 286 -99 269 -121 q 313 -48 302 -78 l 323 -23 l 19 766 l 165 766 l 402 128 l 642 766 l 784 766 z "},",":{"ha":295,"x_min":22,"x_max":247,"o":"m 137 -263 l 22 -263 l 70 188 l 247 188 l 137 -263 z "},"-":{"ha":743,"x_min":59,"x_max":684,"o":"m 684 334 l 59 334 l 59 470 l 684 470 l 684 334 z "},"+":{"ha":769,"x_min":59,"x_max":710,"o":"m 312 176 l 312 438 l 59 438 l 59 566 l 312 566 l 312 828 l 458 828 l 458 566 l 710 566 l 710 438 l 458 438 l 458 176 l 312 176 z "},"*":{"ha":656,"x_min":59,"x_max":597,"o":"m 252 747 l 59 772 l 110 930 l 281 837 l 245 1028 l 411 1028 l 375 837 l 545 931 l 597 772 l 404 748 l 546 614 l 411 516 l 328 692 l 245 516 l 110 614 l 252 747 z "},"^":{"ha":609,"x_min":59,"x_max":550,"o":"m 305 903 l 186 531 l 59 531 l 216 993 l 393 993 l 550 531 l 423 531 l 305 903 z "},"˜":{"ha":492,"x_min":59,"x_max":433,"o":"m 433 988 q 408 862 433 903 q 328 821 382 821 q 296 825 311 821 q 268 835 281 829 q 246 848 256 841 q 228 861 236 855 l 212 873 q 202 881 208 877 q 190 888 197 885 q 176 894 183 892 q 161 896 169 896 q 134 881 142 896 q 125 830 125 865 l 125 827 l 59 827 l 59 830 q 86 957 59 915 q 168 1000 114 1000 q 198 997 185 1000 q 223 988 212 993 q 243 977 234 983 q 258 966 252 970 l 275 953 q 287 945 280 950 q 303 936 294 940 q 320 929 311 932 q 338 926 329 926 q 352 929 346 926 q 361 940 357 932 q 366 959 364 947 q 367 987 367 970 l 367 994 l 433 994 l 433 988 z "},"/":{"ha":586,"x_min":59,"x_max":526,"o":"m 59 -263 l 390 1028 l 526 1028 l 197 -263 l 59 -263 z "},"\\":{"ha":586,"x_min":59,"x_max":526,"o":"m 526 -263 l 196 1028 l 59 1028 l 389 -263 l 526 -263 z "},":":{"ha":295,"x_min":59,"x_max":236,"o":"m 236 0 l 59 0 l 59 188 l 236 188 l 236 0 m 236 589 l 59 589 l 59 776 l 236 776 l 236 589 z "},"<":{"ha":806,"x_min":59,"x_max":747,"o":"m 747 638 l 138 439 l 747 239 l 747 93 l 59 368 l 59 510 l 747 784 l 747 638 z "},"=":{"ha":769,"x_min":59,"x_max":710,"o":"m 59 579 l 59 707 l 710 707 l 710 579 l 59 579 m 59 297 l 59 425 l 710 425 l 710 297 l 59 297 z "},">":{"ha":806,"x_min":59,"x_max":747,"o":"m 59 239 l 668 439 l 59 638 l 59 784 l 747 510 l 747 367 l 59 93 l 59 239 z "},"!":{"ha":295,"x_min":59,"x_max":236,"o":"m 220 993 l 220 821 l 210 319 l 85 319 l 75 821 l 75 993 l 220 993 m 236 0 l 59 0 l 59 188 l 236 188 l 236 0 z "},"?":{"ha":856,"x_min":30,"x_max":797,"o":"m 462 285 l 317 285 l 317 324 q 324 383 317 357 q 344 429 331 408 q 374 466 357 450 q 410 495 391 482 q 451 518 430 508 q 492 539 472 529 l 517 550 q 563 574 540 561 q 607 605 587 587 q 639 647 626 623 q 651 705 651 672 q 634 776 651 744 q 584 831 616 808 q 507 866 552 853 q 407 878 461 878 q 309 865 352 878 q 236 824 266 852 q 191 754 207 797 q 175 654 175 712 l 175 639 l 30 639 l 30 659 q 56 814 30 748 q 131 925 82 881 q 254 992 181 970 q 419 1014 326 1014 q 580 994 509 1014 q 698 934 650 973 q 772 838 747 895 q 797 709 797 782 q 788 628 797 664 q 763 566 779 593 q 727 519 747 539 q 684 484 706 499 q 638 458 661 469 q 594 438 615 447 l 572 427 q 531 409 551 418 q 496 387 511 399 q 472 360 481 375 q 462 324 462 345 l 462 285 m 478 0 l 301 0 l 301 188 l 478 188 l 478 0 z "},"'":{"ha":264,"x_min":59,"x_max":205,"o":"m 183 529 l 79 529 l 59 993 l 205 993 l 183 529 z "},"\"":{"ha":464,"x_min":59,"x_max":405,"o":"m 183 529 l 79 529 l 59 993 l 205 993 l 183 529 m 384 529 l 280 529 l 259 993 l 405 993 l 384 529 z "},"#":{"ha":1079,"x_min":59,"x_max":1020,"o":"m 622 243 l 394 243 l 364 0 l 241 0 l 272 243 l 59 243 l 59 362 l 286 362 l 320 631 l 90 631 l 90 754 l 335 754 l 365 993 l 488 993 l 458 754 l 685 754 l 715 993 l 838 993 l 808 754 l 1020 754 l 1020 631 l 793 631 l 759 362 l 989 362 l 989 243 l 744 243 l 714 0 l 591 0 l 622 243 m 636 362 l 670 631 l 443 631 l 409 362 l 636 362 z "},"@":{"ha":1325,"x_min":49,"x_max":1276,"o":"m 690 -200 q 511 -180 595 -200 q 355 -122 426 -160 q 227 -30 284 -84 q 131 93 170 24 q 70 241 91 161 q 49 413 49 322 q 69 583 49 502 q 128 732 90 663 q 221 855 167 800 q 344 948 276 910 q 493 1007 413 987 q 663 1028 573 1028 q 831 1008 751 1028 q 979 951 911 988 q 1102 860 1047 913 q 1196 741 1157 807 q 1255 598 1234 675 q 1276 435 1276 520 q 1256 285 1276 352 q 1200 172 1236 218 q 1111 100 1163 125 q 993 75 1058 75 q 908 88 946 75 q 843 127 870 101 q 798 190 815 153 q 775 277 781 228 q 744 193 764 230 q 699 129 725 156 q 640 89 673 103 q 570 75 608 75 q 479 99 521 75 q 407 167 437 124 q 359 271 376 211 q 342 402 342 331 q 359 534 342 474 q 407 638 376 594 q 479 706 437 681 q 570 730 521 730 q 638 717 607 730 q 695 679 669 704 q 740 619 721 655 q 772 540 760 584 l 772 709 l 912 709 l 912 326 q 917 271 912 294 q 933 234 922 248 q 960 212 943 219 q 999 205 976 205 q 1101 260 1066 205 q 1135 422 1135 315 q 1120 556 1135 493 q 1076 671 1105 618 q 1005 766 1047 724 q 911 837 964 808 q 797 882 859 866 q 664 898 734 898 q 531 882 594 898 q 416 836 468 866 q 321 764 363 807 q 250 668 279 722 q 205 551 220 615 q 189 416 189 488 q 205 279 189 343 q 251 161 221 215 q 325 64 282 107 q 423 -8 368 22 q 542 -54 477 -38 q 680 -70 607 -70 q 818 -56 750 -70 q 949 -14 886 -41 l 991 -137 q 932 -163 966 -151 q 859 -183 898 -175 q 777 -196 820 -192 q 690 -200 734 -200 m 771 402 q 761 488 771 450 q 732 553 751 526 q 685 593 713 579 q 623 607 658 607 q 519 554 555 607 q 483 402 483 501 q 492 315 483 353 q 519 251 501 277 q 563 212 537 225 q 623 198 589 198 q 685 212 658 198 q 732 252 713 226 q 761 317 751 279 q 771 402 771 355 z "},"$":{"ha":905,"x_min":31,"x_max":873,"o":"m 401 -19 q 245 12 314 -13 q 129 78 177 36 q 56 178 82 120 q 31 308 31 236 l 174 308 q 193 226 174 262 q 250 163 213 189 q 339 124 287 138 q 456 111 391 111 q 528 116 493 111 q 593 130 563 120 q 649 154 624 139 q 692 188 674 168 q 720 232 710 207 q 731 288 731 257 q 722 336 731 316 q 699 371 714 356 q 662 395 684 385 q 614 413 641 406 q 555 426 586 420 q 488 436 523 431 l 423 446 q 336 460 381 452 q 251 480 292 467 q 172 510 209 492 q 108 555 135 528 q 65 622 81 583 q 49 713 49 660 q 61 799 49 759 q 97 870 74 838 q 152 927 119 902 q 223 970 184 952 q 307 999 262 988 q 401 1013 352 1009 l 386 1167 l 518 1167 l 504 1011 q 642 980 581 1005 q 747 914 704 955 q 814 817 790 873 q 837 694 837 762 l 695 694 q 677 772 695 737 q 626 831 659 807 q 546 869 592 856 q 445 882 500 882 q 383 878 414 882 q 324 864 352 873 q 272 842 296 856 q 229 810 247 828 q 201 768 211 792 q 191 716 191 745 q 199 673 191 691 q 223 641 207 654 q 261 617 238 627 q 311 600 283 608 q 374 587 340 593 q 448 576 409 582 l 499 568 q 586 554 542 562 q 671 534 630 546 q 750 502 713 521 q 814 453 786 483 q 857 383 841 424 q 873 285 873 342 q 846 158 873 213 q 771 65 819 103 q 654 6 722 27 q 504 -19 586 -15 l 518 -174 l 386 -174 l 401 -19 z "},"€":{"ha":1109,"x_min":49,"x_max":1060,"o":"m 49 447 l 147 447 q 146 471 147 459 q 145 497 145 484 q 146 521 145 509 q 147 545 147 533 l 49 545 l 49 639 l 160 639 q 219 794 179 725 q 318 912 260 863 q 452 988 377 961 q 614 1014 526 1014 q 778 986 703 1014 q 910 906 853 958 q 1006 778 968 853 q 1060 608 1044 703 l 914 608 q 813 810 889 741 q 614 878 736 878 q 505 863 555 878 q 417 816 456 847 q 351 741 378 785 q 308 639 323 696 l 601 639 l 601 545 l 293 545 q 292 521 292 533 q 291 497 291 509 q 292 471 291 484 q 293 447 292 459 l 601 447 l 601 353 l 309 353 q 351 252 324 297 q 417 177 378 208 q 506 131 456 147 q 614 115 555 115 q 725 132 675 115 q 813 184 775 149 q 876 268 850 218 q 914 385 902 319 l 1060 385 q 1006 215 1044 290 q 910 87 968 140 q 778 7 853 35 q 614 -21 703 -21 q 452 6 526 -21 q 319 81 377 32 q 220 199 260 130 q 160 353 179 268 l 49 353 l 49 447 z "},"%":{"ha":1218,"x_min":59,"x_max":1159,"o":"m 59 748 q 77 857 59 808 q 127 941 94 906 q 204 995 159 976 q 305 1014 249 1014 q 405 995 360 1014 q 482 941 450 976 q 531 857 514 906 q 548 748 548 808 q 531 640 548 688 q 482 557 514 591 q 405 505 450 523 q 304 486 360 486 q 203 505 249 486 q 126 558 158 524 q 77 640 94 592 q 59 748 59 688 m 990 993 l 375 0 l 233 0 l 847 993 l 990 993 m 197 746 q 224 642 197 678 q 304 607 252 607 q 383 642 356 607 q 411 745 411 678 q 403 807 411 780 q 382 854 396 835 q 349 883 368 873 q 304 893 329 893 q 259 883 279 893 q 225 854 239 873 q 204 807 211 835 q 197 746 197 780 m 670 240 q 688 349 670 300 q 738 434 706 399 q 815 488 770 468 q 916 507 860 507 q 1016 488 971 507 q 1093 434 1061 468 q 1142 350 1125 399 q 1159 241 1159 301 q 1142 133 1159 181 q 1093 50 1125 84 q 1016 -2 1061 16 q 915 -21 971 -21 q 814 -2 860 -21 q 737 50 769 16 q 688 133 705 84 q 670 240 670 181 m 808 239 q 835 135 808 171 q 915 99 863 99 q 994 135 967 99 q 1022 238 1022 170 q 1015 300 1022 273 q 993 347 1007 327 q 960 376 980 366 q 915 386 940 386 q 870 376 890 386 q 836 347 850 366 q 815 300 822 328 q 808 239 808 273 z "},"&":{"ha":1002,"x_min":49,"x_max":954,"o":"m 853 293 q 839 206 853 247 q 801 130 826 165 q 741 68 777 95 q 662 20 706 40 q 566 -10 618 0 q 457 -21 515 -21 q 346 -10 399 -21 q 248 20 293 0 q 166 67 202 40 q 103 130 129 95 q 63 204 77 164 q 49 288 49 244 q 63 368 49 332 q 103 432 77 405 q 167 476 130 459 q 252 497 205 492 q 167 517 205 501 q 103 560 129 533 q 63 622 77 586 q 49 703 49 659 q 63 787 49 747 q 102 862 76 827 q 163 925 127 897 q 243 973 199 953 q 339 1003 288 992 q 446 1014 390 1014 q 553 1003 502 1014 q 647 972 603 992 q 726 923 690 952 q 788 859 762 895 q 831 780 815 823 q 851 690 847 738 l 705 690 q 679 770 699 735 q 625 829 659 805 q 546 866 592 853 q 444 878 500 878 q 341 866 388 878 q 263 829 295 853 q 212 771 230 805 q 194 696 194 738 q 208 635 194 660 q 251 593 222 609 q 327 569 281 577 q 437 562 373 562 l 954 562 l 954 433 l 853 433 l 853 293 m 437 433 q 327 426 373 433 q 252 401 281 418 q 208 359 222 385 q 194 298 194 333 q 213 221 194 255 q 266 164 232 188 q 349 127 300 140 q 460 115 399 115 q 565 126 519 115 q 642 161 611 138 q 690 217 674 184 q 707 292 707 250 l 707 433 l 437 433 z "},"(":{"ha":482,"x_min":49,"x_max":451,"o":"m 451 1051 q 339 902 387 978 q 259 748 291 826 q 210 590 226 670 q 194 432 194 511 q 210 276 194 353 q 259 122 226 198 q 339 -25 291 47 q 451 -165 387 -98 l 391 -212 q 241 -62 305 -141 q 134 100 177 17 q 70 270 91 184 q 49 445 49 357 q 70 619 49 532 q 134 788 91 705 q 241 949 177 871 q 391 1098 305 1027 l 451 1051 z "},")":{"ha":482,"x_min":31,"x_max":434,"o":"m 31 -165 q 144 -16 96 -92 q 224 138 192 60 q 272 296 256 216 q 288 454 288 375 q 272 611 288 533 q 224 764 256 689 q 144 911 192 839 q 31 1051 96 984 l 92 1098 q 241 948 177 1027 q 348 786 306 869 q 412 616 391 702 q 434 441 434 529 q 412 267 434 354 q 348 98 391 181 q 241 -63 306 15 q 92 -212 177 -141 l 31 -165 z "},"{":{"ha":508,"x_min":49,"x_max":474,"o":"m 474 928 l 422 928 q 320 887 354 928 q 285 767 285 847 l 285 625 q 276 557 285 588 q 249 503 267 526 q 208 465 232 480 q 153 447 183 451 q 209 429 184 443 q 250 392 233 415 q 276 339 267 370 q 285 270 285 308 l 285 127 q 320 7 285 49 q 422 -34 356 -34 l 474 -34 l 474 -152 l 422 -152 q 223 -82 288 -152 q 157 129 157 -13 l 157 269 q 135 355 157 328 q 66 383 114 383 l 49 383 l 49 511 l 66 511 q 107 518 90 511 q 136 538 125 524 q 152 573 147 552 q 157 625 157 594 l 157 765 q 173 889 157 836 q 222 977 189 942 q 304 1029 255 1012 q 422 1046 354 1046 l 474 1046 l 474 928 z "},"|":{"ha":254,"x_min":59,"x_max":194,"o":"m 59 -128 l 59 1122 l 194 1122 l 194 -128 l 59 -128 z "},"}":{"ha":508,"x_min":35,"x_max":460,"o":"m 35 -34 l 87 -34 q 189 7 154 -34 q 223 127 223 47 l 223 269 q 232 337 223 306 q 259 391 242 368 q 301 429 276 414 q 355 447 325 443 q 300 465 324 451 q 258 501 275 479 q 232 555 241 524 q 223 624 223 586 l 223 766 q 188 886 223 845 q 87 928 153 928 l 35 928 l 35 1046 l 87 1046 q 286 976 220 1046 q 351 765 351 907 l 351 625 q 373 538 351 566 q 442 511 395 511 l 460 511 l 460 383 l 442 383 q 401 376 418 383 q 373 356 384 370 q 357 321 362 342 q 351 269 351 299 l 351 129 q 335 4 351 57 q 287 -83 319 -49 q 204 -135 254 -118 q 87 -152 155 -152 l 35 -152 l 35 -34 z "},"[":{"ha":372,"x_min":49,"x_max":338,"o":"m 338 1046 l 338 928 l 177 928 l 177 -34 l 338 -34 l 338 -152 l 49 -152 l 49 1046 l 338 1046 z "},"]":{"ha":372,"x_min":35,"x_max":324,"o":"m 35 -152 l 35 -34 l 195 -34 l 195 928 l 35 928 l 35 1046 l 324 1046 l 324 -152 l 35 -152 z "},"‘":{"ha":343,"x_min":59,"x_max":284,"o":"m 169 1028 l 284 1028 l 236 577 l 59 577 l 169 1028 z "},"’":{"ha":343,"x_min":59,"x_max":284,"o":"m 174 577 l 59 577 l 107 1028 l 284 1028 l 174 577 z "},"“":{"ha":551,"x_min":59,"x_max":492,"o":"m 169 1028 l 284 1028 l 236 577 l 59 577 l 169 1028 m 377 1028 l 492 1028 l 444 577 l 267 577 l 377 1028 z "},"”":{"ha":551,"x_min":59,"x_max":492,"o":"m 382 577 l 267 577 l 315 1028 l 492 1028 l 382 577 m 174 577 l 59 577 l 107 1028 l 284 1028 l 174 577 z "},"‚":{"ha":295,"x_min":22,"x_max":247,"o":"m 137 -263 l 22 -263 l 70 188 l 247 188 l 137 -263 z "},"„":{"ha":504,"x_min":22,"x_max":455,"o":"m 137 -263 l 22 -263 l 70 188 l 247 188 l 137 -263 m 345 -263 l 231 -263 l 278 188 l 455 188 l 345 -263 z "},"•":{"ha":393,"x_min":59,"x_max":334,"o":"m 334 283 l 59 283 l 59 544 l 334 544 l 334 283 z "},"_":{"ha":814,"x_min":59,"x_max":755,"o":"m 755 -104 l 59 -104 l 59 0 l 755 0 l 755 -104 z "},"–":{"ha":1056,"x_min":59,"x_max":997,"o":"m 997 334 l 59 334 l 59 470 l 997 470 l 997 334 z "},"—":{"ha":1493,"x_min":59,"x_max":1434,"o":"m 1434 334 l 59 334 l 59 470 l 1434 470 l 1434 334 z "},"¯":{"ha":479,"x_min":59,"x_max":420,"o":"m 420 840 l 59 840 l 59 938 l 420 938 l 420 840 z "},"¬":{"ha":1107,"x_min":59,"x_max":1048,"o":"m 59 993 l 1048 993 l 1048 0 l 59 0 l 59 993 m 553 573 l 840 887 l 267 887 l 553 573 m 181 164 l 484 497 l 181 829 l 181 164 m 926 163 l 926 829 l 623 497 l 926 163 m 266 106 l 839 106 l 553 420 l 266 106 z "},"™":{"ha":1220,"x_min":49,"x_max":1172,"o":"m 1172 993 l 1172 447 l 1064 447 l 1064 884 l 933 447 l 807 447 l 678 883 l 678 447 l 572 447 l 572 993 l 750 993 l 871 570 l 994 993 l 1172 993 m 500 891 l 328 891 l 328 447 l 220 447 l 220 891 l 49 891 l 49 993 l 500 993 l 500 891 z "},"®":{"ha":1341,"x_min":49,"x_max":1292,"o":"m 675 1117 q 843 1096 763 1117 q 991 1035 922 1075 q 1115 941 1059 996 q 1210 816 1170 885 q 1270 668 1249 748 q 1292 501 1292 589 q 1270 332 1292 413 q 1208 182 1248 252 q 1112 56 1168 112 q 986 -41 1056 -1 q 837 -103 917 -82 q 668 -125 756 -125 q 501 -104 581 -125 q 353 -42 422 -82 q 228 54 284 -2 q 132 178 172 110 q 71 327 92 247 q 49 494 49 407 q 71 663 49 582 q 133 812 93 743 q 230 938 173 881 q 356 1034 286 994 q 506 1096 426 1074 q 675 1117 587 1117 m 675 1008 q 536 990 602 1008 q 414 941 470 973 q 313 863 358 908 q 236 760 268 817 q 187 636 205 703 q 170 496 170 570 q 187 356 170 422 q 235 232 204 289 q 311 130 267 176 q 411 52 356 84 q 530 2 466 19 q 666 -16 595 -16 q 804 2 738 -16 q 925 53 869 20 q 1027 133 981 86 q 1104 237 1072 180 q 1153 363 1136 295 q 1170 505 1170 430 q 1154 643 1170 578 q 1106 765 1137 709 q 1031 866 1075 821 q 931 942 986 911 q 811 991 876 974 q 675 1008 747 1008 m 441 203 l 441 777 l 728 777 q 810 764 773 777 q 874 730 847 752 q 915 676 901 707 q 930 607 930 645 q 919 548 930 575 q 887 501 908 521 q 837 471 866 482 q 771 458 807 459 q 872 368 833 453 l 945 203 l 817 203 l 743 355 q 727 380 736 370 q 707 397 718 391 q 680 406 695 403 q 645 408 665 408 l 560 408 l 560 203 l 441 203 m 695 523 q 743 527 722 523 q 780 542 765 532 q 802 564 794 551 q 810 594 810 578 q 780 645 810 627 q 695 663 751 663 l 560 663 l 560 523 l 695 523 z "},"©":{"ha":1341,"x_min":49,"x_max":1292,"o":"m 675 1117 q 843 1096 763 1117 q 991 1035 922 1075 q 1115 941 1059 996 q 1210 816 1170 885 q 1270 668 1249 748 q 1292 501 1292 589 q 1270 332 1292 413 q 1208 182 1248 251 q 1112 55 1168 112 q 986 -41 1056 -1 q 837 -103 917 -82 q 668 -125 756 -125 q 501 -104 581 -125 q 353 -42 422 -82 q 228 54 284 -2 q 132 179 172 110 q 71 327 92 248 q 49 495 49 407 q 71 663 49 583 q 133 812 93 743 q 230 938 173 881 q 356 1034 286 994 q 506 1096 425 1074 q 675 1117 587 1117 m 675 1008 q 536 991 602 1008 q 414 941 470 973 q 313 863 358 909 q 236 760 268 817 q 187 636 205 703 q 170 496 170 570 q 187 356 170 422 q 235 232 204 289 q 311 130 267 175 q 411 51 356 84 q 530 2 466 19 q 666 -16 595 -16 q 804 2 738 -16 q 925 53 869 20 q 1027 132 981 86 q 1104 237 1072 179 q 1153 363 1136 295 q 1170 505 1170 430 q 1154 643 1170 578 q 1106 765 1137 709 q 1030 866 1075 821 q 931 942 986 911 q 811 991 876 974 q 675 1008 747 1008 m 514 496 q 526 412 514 449 q 559 349 538 375 q 613 309 581 323 q 683 294 644 294 q 743 305 717 294 q 787 332 768 315 q 818 373 806 349 q 835 423 830 396 l 957 423 q 929 329 951 373 q 873 253 908 285 q 791 202 839 220 q 683 183 743 183 q 565 206 618 183 q 473 269 511 228 q 414 368 435 310 q 393 496 393 426 q 414 624 393 566 q 473 722 435 681 q 565 786 511 764 q 683 808 618 808 q 791 790 743 808 q 873 739 839 772 q 930 663 908 707 q 957 569 951 619 l 835 569 q 818 619 830 595 q 788 660 806 642 q 743 687 769 677 q 683 697 717 697 q 613 683 644 697 q 559 643 581 669 q 526 580 538 617 q 514 496 514 543 z "},"¤":{"ha":1107,"x_min":59,"x_max":1048,"o":"m 59 993 l 1048 993 l 1048 0 l 59 0 l 59 993 m 553 573 l 840 887 l 267 887 l 553 573 m 181 164 l 484 497 l 181 829 l 181 164 m 926 163 l 926 829 l 623 497 l 926 163 m 266 106 l 839 106 l 553 420 l 266 106 z "},"¢":{"ha":805,"x_min":38,"x_max":766,"o":"m 179 383 q 195 268 179 319 q 242 180 211 216 q 315 125 272 144 q 413 106 359 106 q 497 120 460 106 q 560 160 534 135 q 602 218 586 184 q 626 289 619 251 l 766 289 q 735 177 759 229 q 674 84 712 125 q 584 17 636 44 q 467 -17 532 -9 l 479 -174 l 347 -174 l 359 -18 q 227 24 286 -9 q 126 108 168 56 q 61 230 84 160 q 38 383 38 300 q 48 488 38 439 q 78 580 59 538 q 126 658 98 623 q 190 718 154 692 q 268 761 225 744 q 359 783 311 777 l 347 939 l 479 939 l 467 783 q 584 748 532 775 q 674 681 636 722 q 735 589 712 641 q 766 477 759 536 l 626 477 q 603 548 619 515 q 560 606 586 581 q 497 645 534 631 q 413 659 460 659 q 315 640 359 659 q 241 585 272 621 q 195 498 211 550 q 179 383 179 447 z "},"£":{"ha":946,"x_min":59,"x_max":898,"o":"m 741 694 l 741 715 q 724 782 741 752 q 677 834 708 813 q 603 867 646 855 q 505 878 559 878 q 407 866 450 878 q 335 828 364 853 q 291 766 306 803 q 276 681 276 729 q 278 645 276 664 q 285 605 281 626 q 295 561 289 584 q 310 510 302 537 l 311 507 l 730 507 l 730 396 l 345 396 q 355 346 352 369 q 359 301 359 323 q 352 241 359 270 q 334 189 345 213 q 304 148 322 165 q 266 125 287 131 l 898 125 l 898 0 l 59 0 l 59 125 l 154 125 q 229 152 205 125 q 253 234 253 178 q 251 267 253 250 q 244 303 249 284 q 232 345 239 322 q 213 396 224 367 l 59 396 l 59 507 l 169 507 q 141 604 151 558 q 131 694 131 651 q 143 783 131 741 q 179 861 156 825 q 237 925 203 897 q 313 973 270 953 q 405 1003 355 993 q 512 1014 456 1014 q 616 1004 567 1014 q 707 975 665 994 q 782 930 748 957 q 838 871 815 904 q 874 799 862 838 q 887 716 887 760 l 887 694 l 741 694 z "},"¥":{"ha":944,"x_min":9,"x_max":935,"o":"m 814 462 l 597 462 l 543 377 l 543 365 l 814 365 l 814 250 l 543 250 l 543 0 l 397 0 l 397 250 l 127 250 l 127 365 l 397 365 l 397 377 l 344 462 l 127 462 l 127 576 l 271 576 l 9 993 l 177 993 l 472 518 l 770 993 l 935 993 l 670 576 l 814 576 l 814 462 z "},"ƒ":{"ha":717,"x_min":32,"x_max":686,"o":"m 685 938 q 581 950 625 950 q 461 909 501 950 q 422 783 422 867 l 422 766 l 686 766 l 686 648 l 429 648 l 429 -10 q 411 -128 429 -77 q 359 -214 393 -180 q 274 -266 325 -249 q 156 -284 223 -284 q 32 -270 98 -284 l 32 -149 q 133 -161 91 -161 q 250 -120 211 -161 q 288 6 288 -78 l 288 648 l 172 648 l 172 766 l 288 766 l 288 783 q 306 908 288 854 q 358 999 324 963 q 444 1054 393 1036 q 562 1073 495 1073 q 685 1059 619 1073 l 685 938 z "},"−":{"ha":769,"x_min":59,"x_max":710,"o":"m 59 438 l 59 566 l 710 566 l 710 438 l 59 438 z "},"±":{"ha":769,"x_min":59,"x_max":710,"o":"m 312 176 l 312 438 l 59 438 l 59 566 l 312 566 l 312 828 l 458 828 l 458 566 l 710 566 l 710 438 l 458 438 l 458 176 l 312 176 m 59 0 l 59 128 l 710 128 l 710 0 l 59 0 z "},"×":{"ha":727,"x_min":59,"x_max":668,"o":"m 570 198 l 364 404 l 157 198 l 59 296 l 265 502 l 59 708 l 157 807 l 364 600 l 570 807 l 668 708 l 462 502 l 668 296 l 570 198 z "},"÷":{"ha":900,"x_min":59,"x_max":841,"o":"m 59 438 l 59 566 l 841 566 l 841 438 l 59 438 m 525 679 l 365 679 l 365 848 l 525 848 l 525 679 m 525 157 l 365 157 l 365 325 l 525 325 l 525 157 z "},"¦":{"ha":254,"x_min":59,"x_max":194,"o":"m 59 580 l 59 1122 l 194 1122 l 194 580 l 59 580 m 59 -128 l 59 413 l 194 413 l 194 -128 l 59 -128 z "},"…":{"ha":885,"x_min":59,"x_max":826,"o":"m 236 0 l 59 0 l 59 188 l 236 188 l 236 0 m 531 0 l 354 0 l 354 188 l 531 188 l 531 0 m 826 0 l 649 0 l 649 188 l 826 188 l 826 0 z "},"·":{"ha":295,"x_min":59,"x_max":236,"o":"m 236 321 l 59 321 l 59 509 l 236 509 l 236 321 z "},"¡":{"ha":295,"x_min":59,"x_max":236,"o":"m 220 -227 l 220 -56 l 210 446 l 85 446 l 75 -56 l 75 -227 l 220 -227 m 236 766 l 59 766 l 59 578 l 236 578 l 236 766 z "},"¿":{"ha":856,"x_min":59,"x_max":827,"o":"m 394 481 l 540 481 l 540 441 q 532 383 540 409 q 512 337 525 357 q 482 300 500 316 q 446 271 465 284 q 406 247 426 258 q 365 227 385 237 l 340 215 q 293 191 317 204 q 250 161 269 179 q 217 118 230 143 q 205 60 205 94 q 223 -10 205 22 q 272 -65 240 -42 q 350 -100 305 -87 q 450 -112 395 -112 q 547 -99 505 -112 q 620 -58 590 -86 q 665 12 650 -31 q 681 112 681 54 l 681 127 l 827 127 l 827 107 q 801 -49 827 18 q 725 -160 775 -115 q 602 -226 675 -204 q 437 -248 530 -248 q 277 -228 347 -248 q 158 -169 206 -208 q 84 -73 110 -129 q 59 57 59 -16 q 68 137 59 102 q 93 200 77 173 q 130 247 109 227 q 173 282 150 267 q 218 308 195 297 q 262 328 241 319 l 285 338 q 325 357 306 347 q 360 378 345 366 q 385 406 375 390 q 394 441 394 421 l 394 481 m 379 766 l 556 766 l 556 578 l 379 578 l 379 766 z "},"°":{"ha":467,"x_min":49,"x_max":418,"o":"m 49 832 q 63 905 49 871 q 101 963 77 938 q 160 1001 126 987 q 234 1014 194 1014 q 308 1001 274 1014 q 366 963 342 987 q 405 905 391 938 q 418 832 418 871 q 405 759 418 792 q 366 701 391 725 q 308 663 342 677 q 234 649 274 649 q 160 663 194 649 q 101 701 126 677 q 63 759 77 725 q 49 832 49 792 m 136 832 q 143 789 136 808 q 163 757 150 770 q 194 736 176 743 q 234 729 212 729 q 274 736 256 729 q 305 757 292 743 q 324 789 317 770 q 331 832 331 808 q 324 874 331 856 q 305 907 317 893 q 274 927 292 920 q 234 935 256 935 q 194 927 212 935 q 163 907 176 920 q 143 874 150 893 q 136 832 136 856 z "},"ª":{"ha":596,"x_min":59,"x_max":536,"o":"m 74 827 q 89 905 74 870 q 135 964 105 939 q 206 1001 164 988 q 300 1014 248 1014 q 399 999 356 1014 q 474 957 443 985 q 520 889 504 929 q 536 798 536 849 l 536 503 l 435 503 l 435 636 q 408 575 426 602 q 364 528 390 548 q 306 499 339 509 q 235 489 274 489 q 163 500 196 489 q 107 530 131 511 q 72 578 84 550 q 59 639 59 605 q 72 701 59 673 q 111 747 86 728 q 172 776 136 766 q 253 786 208 786 l 435 786 l 435 789 q 425 844 435 819 q 398 885 416 868 q 356 912 381 902 q 299 921 331 921 q 244 914 267 921 q 206 895 221 907 q 183 866 190 883 q 176 827 176 848 l 74 827 m 259 699 q 185 685 210 699 q 160 642 160 670 q 187 595 160 611 q 266 580 215 580 q 334 588 303 580 q 388 612 365 597 q 422 649 410 627 q 435 695 435 670 l 435 699 l 259 699 z "},"º":{"ha":605,"x_min":59,"x_max":546,"o":"m 59 752 q 77 859 59 811 q 126 942 94 907 q 203 995 158 976 q 302 1014 248 1014 q 402 995 357 1014 q 479 942 447 976 q 528 859 511 907 q 546 752 546 811 q 528 644 546 693 q 479 561 511 596 q 402 508 447 527 q 302 489 357 489 q 203 508 248 489 q 126 561 158 527 q 77 644 94 596 q 59 752 59 693 m 161 752 q 171 681 161 713 q 199 628 181 650 q 244 594 217 606 q 303 582 270 582 q 362 594 336 582 q 406 628 388 606 q 434 681 425 650 q 444 752 444 713 q 434 822 444 791 q 406 876 425 854 q 362 909 388 898 q 303 921 336 921 q 244 909 270 921 q 199 875 217 897 q 171 822 181 853 q 161 752 161 791 z "},"¹":{"ha":398,"x_min":59,"x_max":339,"o":"m 256 585 l 339 585 l 339 497 l 80 497 l 80 585 l 163 585 l 163 839 l 59 839 l 59 923 l 104 923 q 138 926 124 923 q 159 938 151 930 q 171 960 168 947 q 175 994 175 974 l 256 994 l 256 585 z "},"²":{"ha":516,"x_min":59,"x_max":457,"o":"m 59 497 l 59 561 q 66 612 59 590 q 85 651 73 634 q 112 680 97 668 q 145 701 128 692 q 179 716 162 709 q 213 727 197 722 l 259 742 q 294 755 276 748 q 327 773 312 761 q 352 800 342 784 q 362 841 362 817 q 335 902 362 881 q 260 924 308 924 q 157 825 157 924 l 157 817 l 61 817 l 61 828 q 76 905 61 870 q 116 964 90 939 q 179 1001 142 988 q 261 1014 216 1014 q 342 1001 306 1014 q 404 966 378 989 q 443 911 430 943 q 457 838 457 878 q 450 786 457 809 q 431 747 443 764 q 403 718 419 730 q 370 698 388 706 q 335 683 353 689 q 302 672 318 677 l 262 660 q 230 649 246 655 q 198 635 213 643 q 172 614 183 626 q 156 585 161 602 l 456 585 l 456 497 l 59 497 z "},"³":{"ha":543,"x_min":59,"x_max":483,"o":"m 59 848 q 73 918 59 887 q 112 970 86 949 q 175 1003 138 991 q 260 1014 213 1014 q 342 1004 305 1014 q 405 976 378 994 q 445 932 431 958 q 459 875 459 906 q 451 832 459 852 q 429 797 443 812 q 396 772 415 782 q 353 760 376 763 q 408 749 383 758 q 449 725 432 740 q 474 688 466 710 q 483 641 483 667 q 468 579 483 607 q 426 531 453 551 q 360 500 399 511 q 274 489 322 489 q 185 501 224 489 q 117 536 145 514 q 74 592 89 559 q 59 665 59 624 l 59 666 l 150 666 l 150 661 q 267 579 150 579 q 357 599 326 579 q 389 657 389 619 q 383 683 389 672 q 364 700 377 693 q 329 710 350 707 q 276 713 308 713 l 216 713 l 216 799 l 276 799 q 365 859 365 799 q 338 908 365 892 q 256 924 311 924 q 209 920 228 924 q 177 907 190 916 q 159 883 165 898 q 154 848 154 868 l 154 847 l 59 847 l 59 848 z "},"⁴":{"ha":563,"x_min":59,"x_max":503,"o":"m 330 497 l 330 614 l 59 614 l 59 716 l 322 993 l 431 993 l 431 703 l 503 703 l 503 614 l 431 614 l 431 497 l 330 497 m 330 703 l 330 879 l 163 703 l 330 703 z "},"⁄":{"ha":946,"x_min":59,"x_max":887,"o":"m 59 0 l 783 1028 l 887 1028 l 163 0 l 59 0 z "},"¼":{"ha":999,"x_min":59,"x_max":940,"o":"m 257 585 l 339 585 l 339 497 l 80 497 l 80 585 l 163 585 l 163 839 l 59 839 l 59 922 l 105 922 q 138 926 124 922 q 160 938 151 930 q 172 960 168 946 q 175 993 175 974 l 257 993 l 257 585 m 766 0 l 766 118 l 495 118 l 495 219 l 758 497 l 867 497 l 867 206 l 940 206 l 940 118 l 867 118 l 867 0 l 766 0 m 766 206 l 766 383 l 599 206 l 766 206 m 108 0 l 832 1028 l 936 1028 l 213 0 l 108 0 z "},"½":{"ha":1057,"x_min":59,"x_max":998,"o":"m 104 0 l 828 1028 l 932 1028 l 208 0 l 104 0 m 599 0 l 599 65 q 606 115 599 93 q 625 154 613 138 q 652 183 637 171 q 685 204 668 195 q 720 219 702 213 q 753 230 737 225 l 799 245 q 834 258 816 251 q 868 276 852 265 q 893 303 883 287 q 902 344 902 320 q 876 406 902 384 q 800 427 849 427 q 697 328 697 427 l 697 320 l 602 320 l 602 331 q 616 408 602 374 q 656 467 630 442 q 719 504 682 491 q 802 517 756 517 q 883 505 847 517 q 944 469 919 492 q 984 414 970 446 q 998 341 998 381 q 990 289 998 312 q 971 250 983 267 q 943 221 959 233 q 910 201 928 209 q 876 186 893 192 q 842 175 858 180 l 802 163 q 770 152 786 158 q 738 138 753 147 q 713 118 724 130 q 697 89 701 106 l 996 89 l 996 0 l 599 0 m 256 585 l 339 585 l 339 497 l 80 497 l 80 585 l 163 585 l 163 839 l 59 839 l 59 923 l 104 923 q 138 926 124 923 q 159 938 151 930 q 171 960 168 947 q 175 994 175 974 l 256 994 l 256 585 z "},"¾":{"ha":1055,"x_min":59,"x_max":996,"o":"m 822 0 l 822 118 l 551 118 l 551 219 l 814 497 l 923 497 l 923 206 l 996 206 l 996 118 l 923 118 l 923 0 l 822 0 m 822 206 l 822 383 l 655 206 l 822 206 m 59 848 q 73 918 59 887 q 112 970 86 949 q 175 1003 138 991 q 260 1014 213 1014 q 342 1004 305 1014 q 405 976 378 994 q 445 932 431 958 q 459 875 459 906 q 451 832 459 852 q 429 797 443 812 q 396 772 415 782 q 353 760 376 763 q 408 749 383 758 q 449 725 432 740 q 474 688 466 710 q 483 641 483 667 q 468 579 483 607 q 426 531 453 551 q 360 500 399 511 q 274 489 322 489 q 185 501 224 489 q 117 536 145 514 q 74 592 89 559 q 59 665 59 624 l 59 666 l 150 666 l 150 661 q 267 579 150 579 q 357 599 326 579 q 389 657 389 619 q 383 683 389 672 q 364 700 377 693 q 329 710 350 707 q 276 713 308 713 l 216 713 l 216 799 l 276 799 q 365 859 365 799 q 338 908 365 892 q 256 924 311 924 q 209 920 228 924 q 177 907 190 916 q 159 883 165 898 q 154 848 154 868 l 154 847 l 59 847 l 59 848 m 167 0 l 890 1028 l 994 1028 l 271 0 l 167 0 z "},"‰":{"ha":1776,"x_min":59,"x_max":1717,"o":"m 59 748 q 77 857 59 808 q 127 941 94 906 q 204 995 159 976 q 305 1014 249 1014 q 405 995 360 1014 q 482 941 450 976 q 531 857 514 906 q 548 748 548 808 q 531 640 548 688 q 482 557 514 592 q 405 505 450 523 q 304 486 360 486 q 203 505 249 486 q 126 557 158 523 q 77 640 94 592 q 59 748 59 688 m 990 994 l 375 1 l 233 1 l 847 994 l 990 994 m 197 746 q 224 642 197 678 q 304 607 252 607 q 383 642 356 607 q 411 745 411 678 q 403 807 411 780 q 382 854 396 835 q 349 883 368 873 q 304 893 329 893 q 259 883 279 893 q 225 854 239 873 q 204 808 211 835 q 197 746 197 780 m 670 240 q 688 349 670 300 q 738 434 706 399 q 815 488 770 468 q 916 507 860 507 q 1016 488 971 507 q 1093 434 1061 469 q 1142 350 1125 399 q 1159 241 1159 301 q 1142 133 1159 181 q 1093 50 1125 84 q 1016 -2 1061 16 q 915 -21 971 -21 q 814 -2 860 -21 q 737 50 769 16 q 688 133 705 84 q 670 240 670 181 m 1228 240 q 1245 349 1228 300 q 1295 434 1263 399 q 1372 488 1327 468 q 1473 507 1418 507 q 1573 488 1528 507 q 1650 434 1618 469 q 1699 350 1682 399 q 1717 241 1717 301 q 1699 133 1717 181 q 1651 50 1682 84 q 1574 -2 1619 16 q 1473 -21 1528 -21 q 1372 -2 1417 -21 q 1294 50 1326 16 q 1245 133 1263 84 q 1228 240 1228 181 m 808 239 q 835 135 808 171 q 915 99 863 99 q 994 135 967 99 q 1022 238 1022 170 q 1015 300 1022 273 q 993 347 1007 327 q 960 376 980 366 q 915 386 940 386 q 870 376 890 386 q 836 347 850 366 q 815 300 822 328 q 808 239 808 273 m 1365 239 q 1393 135 1365 171 q 1472 99 1420 99 q 1552 135 1524 99 q 1579 238 1579 170 q 1572 300 1579 273 q 1551 347 1565 327 q 1517 376 1537 366 q 1472 386 1497 386 q 1427 376 1447 386 q 1394 347 1407 366 q 1372 300 1380 328 q 1365 239 1365 273 z "},"μ":{"ha":1107,"x_min":59,"x_max":1048,"o":"m 59 993 l 1048 993 l 1048 0 l 59 0 l 59 993 m 553 573 l 840 887 l 267 887 l 553 573 m 181 164 l 484 497 l 181 829 l 181 164 m 926 163 l 926 829 l 623 497 l 926 163 m 266 106 l 839 106 l 553 420 l 266 106 z "},"¶":{"ha":924,"x_min":59,"x_max":865,"o":"m 865 -263 l 729 -263 l 729 993 l 865 993 l 865 -263 m 584 -263 l 449 -263 l 449 326 l 426 326 q 276 350 343 326 q 160 417 208 374 q 85 523 112 461 q 59 659 59 584 q 85 796 59 734 q 160 901 112 858 q 276 969 208 945 q 426 993 343 993 l 584 993 l 584 -263 z "},"§":{"ha":753,"x_min":30,"x_max":722,"o":"m 367 1014 q 506 996 445 1014 q 609 946 567 978 q 672 866 650 913 q 694 761 694 819 l 557 761 q 544 815 557 791 q 507 856 532 839 q 448 883 483 874 q 367 892 413 892 q 291 885 325 892 q 232 863 257 877 q 194 829 207 849 q 180 786 180 810 q 188 754 180 768 q 209 730 195 740 q 240 713 222 720 q 278 701 257 706 q 320 692 298 695 q 363 685 342 688 l 414 677 q 481 665 446 672 q 551 648 516 659 q 616 622 585 638 q 670 581 647 606 q 708 523 694 557 q 722 443 722 489 q 659 289 722 347 q 685 261 674 276 q 705 227 697 246 q 717 187 713 209 q 722 140 722 165 q 700 39 722 83 q 634 -35 677 -5 q 527 -81 591 -66 q 380 -97 463 -97 q 227 -80 292 -97 q 117 -30 161 -63 q 52 51 74 3 q 30 162 30 99 l 167 162 q 219 60 167 96 q 379 25 271 25 q 466 32 428 25 q 531 53 505 39 q 571 89 557 68 q 585 136 585 109 q 577 173 585 157 q 555 200 569 189 q 521 220 541 212 q 479 235 502 229 q 432 246 457 241 q 383 255 408 251 l 332 264 q 270 275 303 268 q 205 291 238 281 q 144 316 173 301 q 92 353 115 331 q 56 407 70 376 q 43 479 43 438 q 62 567 43 528 q 116 637 80 607 q 86 663 100 648 q 63 695 73 677 q 48 735 53 713 q 43 783 43 757 q 65 878 43 835 q 130 951 88 921 q 231 998 172 981 q 367 1014 291 1014 m 275 577 q 235 561 253 571 q 206 540 218 552 q 187 513 193 528 q 180 482 180 499 q 188 451 180 464 q 209 427 195 437 q 240 410 222 417 q 278 398 257 403 q 320 389 298 392 q 363 381 342 385 l 414 373 q 467 365 440 369 q 522 353 494 360 q 569 389 553 367 q 585 440 585 410 q 577 476 585 460 q 555 504 569 492 q 521 524 541 515 q 479 539 502 532 q 432 549 457 545 q 383 558 408 554 l 332 567 q 304 572 318 569 q 275 577 290 574 z "},"†":{"ha":681,"x_min":59,"x_max":622,"o":"m 413 993 l 413 766 l 622 766 l 622 641 l 413 641 l 413 0 l 267 0 l 267 641 l 59 641 l 59 766 l 267 766 l 267 993 l 413 993 z "},"‡":{"ha":681,"x_min":59,"x_max":622,"o":"m 413 993 l 413 766 l 622 766 l 622 641 l 413 641 l 413 352 l 622 352 l 622 227 l 413 227 l 413 0 l 267 0 l 267 227 l 59 227 l 59 352 l 267 352 l 267 641 l 59 641 l 59 766 l 267 766 l 267 993 l 413 993 z "},"~":{"ha":817,"x_min":59,"x_max":758,"o":"m 758 781 q 748 643 758 700 q 719 548 739 585 q 668 495 699 512 q 591 478 636 478 q 524 487 556 478 q 466 510 493 496 q 417 539 439 523 q 377 567 395 555 l 350 588 q 322 609 336 598 q 292 628 307 619 q 262 641 277 636 q 231 647 246 647 q 197 638 211 647 q 174 609 183 628 q 161 561 165 590 q 156 490 156 531 l 156 485 l 59 485 l 59 491 q 69 625 59 568 q 101 720 80 682 q 154 776 122 757 q 229 794 186 794 q 288 786 260 794 q 339 765 315 778 q 385 737 364 752 q 425 707 407 722 l 453 686 q 481 666 466 677 q 513 646 495 655 q 548 631 530 637 q 586 625 567 625 q 621 633 607 625 q 644 658 635 641 q 656 704 652 676 q 660 773 660 732 l 660 787 l 758 787 l 758 781 z "},"‹":{"ha":658,"x_min":59,"x_max":628,"o":"m 455 728 l 628 728 l 230 383 l 628 38 l 455 38 l 59 382 l 455 728 z "},"›":{"ha":658,"x_min":30,"x_max":599,"o":"m 203 38 l 30 38 l 428 384 l 30 728 l 203 728 l 599 384 l 203 38 z "},"«":{"ha":1057,"x_min":59,"x_max":1027,"o":"m 455 728 l 628 728 l 230 383 l 628 38 l 455 38 l 59 382 l 455 728 m 853 728 l 1027 728 l 629 383 l 1027 38 l 853 38 l 458 382 l 853 728 z "},"»":{"ha":1057,"x_min":30,"x_max":997,"o":"m 602 38 l 428 38 l 826 384 l 428 728 l 602 728 l 997 384 l 602 38 m 204 38 l 30 38 l 428 384 l 30 728 l 204 728 l 599 384 l 204 38 z "},"˘":{"ha":465,"x_min":59,"x_max":406,"o":"m 146 1001 q 168 917 146 947 q 232 888 191 888 q 296 917 274 888 q 319 1001 319 947 l 406 1001 q 394 913 406 951 q 361 849 383 875 q 307 810 339 824 q 232 797 274 797 q 158 810 190 797 q 104 849 126 824 q 70 913 82 875 q 59 1001 59 951 l 146 1001 z "},"˙":{"ha":260,"x_min":59,"x_max":201,"o":"m 201 823 l 59 823 l 59 973 l 201 973 l 201 823 z "},"˚":{"ha":423,"x_min":59,"x_max":364,"o":"m 59 948 q 70 1009 59 981 q 101 1057 81 1037 q 149 1087 121 1076 q 211 1098 177 1098 q 274 1087 245 1098 q 322 1057 302 1076 q 353 1009 342 1037 q 364 948 364 981 q 353 886 364 914 q 322 839 342 858 q 274 808 302 819 q 211 797 245 797 q 149 808 177 797 q 101 839 121 819 q 70 886 81 858 q 59 948 59 914 m 140 948 q 145 916 140 931 q 160 892 150 902 q 182 877 169 882 q 212 871 196 871 q 241 877 228 871 q 264 892 255 882 q 278 916 273 902 q 283 948 283 931 q 278 979 283 965 q 264 1003 273 993 q 241 1019 255 1013 q 212 1024 228 1024 q 182 1019 196 1024 q 160 1003 169 1013 q 145 979 150 993 q 140 948 140 965 z "},"˛":{"ha":362,"x_min":59,"x_max":302,"o":"m 300 -20 q 243 -29 272 -20 q 192 -52 215 -38 q 156 -83 170 -66 q 142 -118 142 -100 q 168 -155 142 -142 q 242 -168 194 -168 q 270 -167 255 -168 q 302 -163 285 -166 l 302 -260 q 265 -264 284 -263 q 231 -266 247 -266 q 161 -257 192 -266 q 107 -234 129 -249 q 72 -198 84 -219 q 59 -152 59 -177 q 77 -95 59 -122 q 126 -49 95 -69 q 200 -19 157 -30 q 294 -7 243 -7 l 300 -20 z "},"ˆ":{"ha":440,"x_min":59,"x_max":381,"o":"m 291 797 l 221 939 l 149 797 l 59 797 l 158 1019 l 283 1019 l 381 797 l 291 797 z "},"ˇ":{"ha":441,"x_min":60,"x_max":382,"o":"m 283 797 l 158 797 l 60 1019 l 150 1019 l 222 877 l 291 1019 l 382 1019 l 283 797 z "},"ı":{"ha":297,"x_min":78,"x_max":219,"o":"m 219 0 l 78 0 l 78 766 l 219 766 l 219 0 z "},"´":{"ha":366,"x_min":59,"x_max":307,"o":"m 307 1019 l 168 1019 l 59 797 l 156 797 l 307 1019 z "},"`":{"ha":366,"x_min":59,"x_max":307,"o":"m 59 1019 l 198 1019 l 307 797 l 210 797 l 59 1019 z "},"¨":{"ha":468,"x_min":59,"x_max":408,"o":"m 201 823 l 59 823 l 59 973 l 201 973 l 201 823 m 408 823 l 267 823 l 267 973 l 408 973 l 408 823 z "},"¸":{"ha":380,"x_min":59,"x_max":320,"o":"m 157 3 l 148 -53 q 220 -61 189 -54 q 275 -82 252 -68 q 309 -114 297 -95 q 320 -157 320 -133 q 307 -204 320 -183 q 270 -240 294 -225 q 212 -262 246 -255 q 136 -270 178 -270 q 98 -269 117 -270 q 59 -264 79 -267 l 59 -188 q 134 -194 100 -194 q 210 -182 183 -194 q 237 -150 237 -170 q 198 -111 237 -125 q 84 -98 159 -98 l 102 3 l 157 3 z "},"ﬁ":{"ha":837,"x_min":28,"x_max":785,"o":"m 144 648 l 28 648 l 28 766 l 144 766 l 144 783 q 162 908 144 854 q 214 999 180 963 q 300 1054 249 1036 q 418 1073 351 1073 q 541 1059 475 1073 l 541 938 q 437 950 481 950 q 317 909 357 950 q 278 783 278 867 l 278 766 l 542 766 l 542 648 l 285 648 l 285 0 l 144 0 l 144 648 m 785 854 l 637 854 l 637 1028 l 785 1028 l 785 854 m 781 0 l 641 0 l 641 766 l 781 766 l 781 0 z "},"ﬂ":{"ha":837,"x_min":28,"x_max":781,"o":"m 144 648 l 28 648 l 28 766 l 144 766 l 144 783 q 162 908 144 854 q 214 999 180 963 q 300 1054 249 1036 q 418 1073 351 1073 q 541 1059 475 1073 l 541 938 q 437 950 481 950 q 317 909 357 950 q 278 783 278 867 l 278 766 l 542 766 l 542 648 l 285 648 l 285 0 l 144 0 l 144 648 m 781 0 l 641 0 l 641 1028 l 781 1028 l 781 0 z "},"Þ":{"ha":924,"x_min":59,"x_max":875,"o":"m 59 993 l 205 993 l 205 816 l 519 816 q 618 805 572 816 q 704 774 665 794 q 775 726 743 755 q 829 662 807 698 q 863 585 851 627 q 875 497 875 543 q 863 408 875 450 q 829 330 851 366 q 775 266 807 295 q 704 217 743 238 q 618 186 664 197 q 519 175 571 175 l 205 175 l 205 0 l 59 0 l 59 993 m 494 311 q 593 323 549 311 q 667 360 636 336 q 713 419 697 384 q 730 497 730 453 q 714 574 730 540 q 668 632 698 608 q 594 668 638 655 q 497 681 551 681 l 205 681 l 205 311 l 494 311 z "},"þ":{"ha":842,"x_min":56,"x_max":804,"o":"m 196 529 q 238 636 211 588 q 301 717 264 683 q 383 768 337 750 q 480 786 428 786 q 570 773 527 786 q 648 734 612 759 q 713 673 684 709 q 762 592 742 637 q 793 494 782 547 q 804 383 804 442 q 793 271 804 324 q 762 174 782 218 q 713 93 742 129 q 648 32 684 57 q 570 -7 612 6 q 480 -21 527 -21 q 383 -3 428 -21 q 301 49 337 15 q 238 130 264 82 q 196 236 211 177 l 196 -262 l 56 -262 l 56 1028 l 196 1028 l 196 529 m 196 383 q 212 265 196 317 q 259 177 228 214 q 333 122 290 141 q 432 103 377 103 q 532 121 489 103 q 604 175 575 139 q 648 263 633 210 q 664 383 664 315 q 648 503 664 451 q 604 591 633 556 q 532 645 575 626 q 432 663 489 663 q 333 644 377 663 q 259 589 290 625 q 212 501 228 552 q 196 383 196 449 z "},"ß":{"ha":864,"x_min":59,"x_max":834,"o":"m 59 651 q 83 807 59 739 q 153 920 107 874 q 268 990 200 966 q 424 1014 336 1014 q 572 994 505 1014 q 686 940 639 975 q 760 855 734 904 q 786 744 786 805 q 769 655 786 696 q 722 584 753 615 q 650 534 692 553 q 556 510 607 515 q 673 489 621 507 q 760 441 724 471 q 815 370 796 411 q 834 276 834 328 q 822 196 834 234 q 786 124 809 158 q 730 65 763 91 q 658 19 698 38 q 572 -11 618 0 q 475 -21 525 -21 q 345 -4 410 -21 l 345 132 q 452 115 395 115 q 547 128 504 115 q 622 164 591 141 q 671 218 654 186 q 689 288 689 250 q 620 401 689 362 q 418 440 550 440 l 345 440 l 345 568 l 419 568 q 513 579 471 568 q 582 609 554 590 q 626 658 611 629 q 641 723 641 686 q 627 788 641 759 q 584 837 612 817 q 516 868 556 857 q 427 878 477 878 q 260 822 315 878 q 205 651 205 766 l 205 0 l 59 0 l 59 651 z "},"ð":{"ha":825,"x_min":38,"x_max":787,"o":"m 38 378 q 61 531 38 461 q 124 650 83 600 q 222 727 165 700 q 350 755 280 755 q 446 740 401 755 q 527 697 491 725 q 591 627 564 668 q 635 536 618 587 q 606 632 624 586 q 562 721 588 678 q 500 801 535 763 q 420 875 465 840 l 243 790 l 206 866 l 340 931 q 281 964 312 948 q 216 995 251 980 l 264 1086 q 365 1038 318 1063 q 456 986 413 1013 l 613 1061 l 650 985 l 534 930 q 647 817 599 877 q 726 687 694 757 q 772 538 757 618 q 787 368 787 459 q 760 209 787 281 q 684 86 733 137 q 566 7 635 35 q 413 -21 497 -21 q 260 7 328 -21 q 141 87 191 35 q 65 213 92 139 q 38 378 38 287 m 179 367 q 195 259 179 307 q 241 176 211 210 q 315 124 272 142 q 413 106 359 106 q 510 124 467 106 q 584 176 553 142 q 630 258 614 210 q 646 367 646 307 q 630 476 646 428 q 584 558 614 525 q 510 610 553 592 q 413 628 467 628 q 315 610 359 628 q 241 558 272 592 q 195 476 211 525 q 179 367 179 428 z "},"Æ":{"ha":1285,"x_min":12,"x_max":1255,"o":"m 12 0 l 473 993 l 1241 993 l 1241 858 l 716 858 l 716 564 l 1199 564 l 1199 428 l 716 428 l 716 135 l 1255 135 l 1255 0 l 570 0 l 570 232 l 275 232 l 168 0 l 12 0 m 570 364 l 570 873 l 336 364 l 570 364 z "},"Œ":{"ha":1332,"x_min":49,"x_max":1303,"o":"m 1289 858 l 764 858 l 764 564 l 1247 564 l 1247 428 l 764 428 l 764 135 l 1303 135 l 1303 0 l 517 0 q 386 16 448 0 q 272 63 324 33 q 178 138 220 94 q 108 236 137 181 q 64 357 79 292 q 49 497 49 423 q 64 636 49 570 q 108 757 79 701 q 178 856 137 812 q 272 930 220 899 q 386 977 324 960 q 517 993 448 993 l 1289 993 l 1289 858 m 194 497 q 216 345 194 412 q 280 231 239 278 q 382 160 322 185 q 517 135 442 135 l 618 135 l 618 858 l 517 858 q 382 833 442 858 q 280 762 322 808 q 216 648 239 715 q 194 497 194 581 z "},"æ":{"ha":1398,"x_min":35,"x_max":1360,"o":"m 57 499 q 82 618 57 565 q 151 709 106 671 q 261 766 197 746 q 406 786 326 786 q 589 752 512 786 q 712 653 667 718 q 768 710 737 685 q 835 751 799 734 q 913 777 872 768 q 1001 786 955 786 q 1149 758 1083 786 q 1262 678 1215 730 q 1334 552 1309 626 q 1360 386 1360 478 q 1359 360 1360 373 q 1357 332 1359 347 l 772 332 q 797 237 778 279 q 847 166 816 195 q 918 122 877 137 q 1009 106 959 106 q 1130 138 1080 106 q 1210 233 1181 170 l 1351 233 q 1302 126 1334 173 q 1225 46 1270 79 q 1125 -4 1181 14 q 1005 -21 1069 -21 q 882 -3 939 -21 q 780 49 825 15 q 701 130 734 82 q 650 237 668 178 q 611 130 639 177 q 541 48 583 82 q 442 -3 498 15 q 320 -21 386 -21 q 203 -4 256 -21 q 113 43 151 13 q 55 116 76 73 q 35 211 35 159 q 55 305 35 263 q 115 376 76 347 q 209 421 153 405 q 333 436 264 436 l 629 436 l 629 454 q 613 539 629 501 q 568 604 597 577 q 497 645 539 631 q 404 659 456 659 q 312 648 351 659 q 248 615 273 636 q 210 565 223 594 q 198 499 198 535 l 57 499 m 1214 453 q 1190 541 1207 503 q 1145 606 1172 580 q 1082 646 1118 632 q 1001 659 1046 659 q 917 645 956 659 q 850 605 879 631 q 802 540 821 578 q 775 453 783 502 l 1214 453 m 332 318 q 214 292 254 318 q 174 215 174 266 q 185 166 174 188 q 219 131 197 145 q 275 109 242 117 q 351 102 308 102 q 463 116 413 102 q 551 157 514 131 q 608 219 588 183 q 629 297 629 255 l 629 318 l 332 318 z "},"œ":{"ha":1416,"x_min":38,"x_max":1378,"o":"m 38 383 q 50 497 38 444 q 85 595 63 550 q 141 675 108 640 q 216 736 174 711 q 307 773 257 760 q 413 786 357 786 q 507 776 462 786 q 590 746 551 766 q 660 699 628 727 q 717 634 692 670 q 773 699 741 670 q 842 746 804 727 q 925 776 881 766 q 1018 786 969 786 q 1167 758 1101 786 q 1280 678 1233 730 q 1352 552 1327 626 q 1378 386 1378 478 q 1377 360 1378 373 q 1375 332 1376 347 l 790 332 q 815 237 796 279 q 864 166 834 195 q 936 122 895 137 q 1026 106 976 106 q 1154 143 1103 106 q 1234 254 1206 180 l 1374 254 q 1328 139 1359 190 q 1251 52 1296 88 q 1148 -2 1206 17 q 1023 -21 1090 -21 q 928 -10 973 -21 q 844 20 883 0 q 774 68 806 39 q 717 132 742 96 q 661 68 693 96 q 590 20 629 39 q 507 -10 552 0 q 413 -21 462 -21 q 259 8 328 -21 q 141 90 190 37 q 65 218 92 143 q 38 383 38 292 m 1232 453 q 1207 542 1225 503 q 1163 606 1190 580 q 1100 646 1136 632 q 1019 659 1064 659 q 935 645 973 659 q 868 605 897 631 q 820 540 839 578 q 793 453 801 501 l 1232 453 m 179 383 q 195 268 179 319 q 242 180 211 216 q 315 125 272 144 q 413 106 359 106 q 510 125 467 106 q 584 180 553 144 q 630 268 614 216 q 646 383 646 319 q 630 499 646 448 q 584 585 614 550 q 510 640 553 621 q 413 659 467 659 q 315 640 359 659 q 241 585 272 621 q 195 498 211 549 q 179 383 179 447 z "},"Ø":{"ha":1035,"x_min":49,"x_max":986,"o":"m 176 125 q 82 288 115 194 q 49 497 49 382 q 64 642 49 574 q 108 768 79 710 q 178 871 137 825 q 272 948 220 916 q 386 997 324 980 q 517 1014 448 1014 q 656 995 592 1014 q 775 940 721 976 l 831 1014 l 973 1014 l 859 867 q 953 705 920 799 q 986 497 986 611 q 971 351 986 420 q 927 226 956 283 q 856 122 898 168 q 763 45 815 77 q 649 -4 711 13 q 517 -21 587 -21 q 377 -2 442 -21 q 258 54 312 18 l 197 -21 l 66 -21 l 176 125 m 194 497 q 211 356 194 419 q 259 245 227 293 l 698 828 q 615 866 660 853 q 517 878 570 878 q 382 852 442 878 q 280 777 322 826 q 216 657 239 728 q 194 497 194 586 m 337 165 q 419 127 374 140 q 517 115 464 115 q 653 141 593 115 q 755 216 713 167 q 818 336 796 265 q 840 497 840 407 q 824 637 840 574 q 776 749 807 700 l 337 165 z "},"ø":{"ha":825,"x_min":38,"x_max":787,"o":"m 690 669 q 761 544 736 616 q 787 383 787 472 q 775 269 787 323 q 740 171 763 216 q 684 90 717 126 q 609 30 651 55 q 518 -8 568 5 q 413 -21 469 -21 q 305 -7 355 -21 q 214 31 256 6 l 174 -21 l 45 -21 l 135 97 q 64 222 89 150 q 38 383 38 294 q 50 497 38 443 q 85 595 63 550 q 141 676 108 640 q 216 736 174 711 q 307 773 257 760 q 413 786 357 786 q 520 773 470 786 q 611 734 569 760 l 651 786 l 780 786 l 690 669 m 179 383 q 189 290 179 332 q 218 214 199 248 l 536 627 q 479 651 510 643 q 413 659 449 659 q 315 640 359 659 q 241 585 272 621 q 195 498 211 550 q 179 383 179 447 m 290 139 q 346 115 316 123 q 413 106 377 106 q 510 125 467 106 q 584 180 553 144 q 630 268 614 216 q 646 383 646 319 q 636 476 646 434 q 607 552 626 518 l 290 139 z "},"À":{"ha":978,"x_min":12,"x_max":966,"o":"m 12 0 l 382 993 l 601 993 l 966 0 l 811 0 l 721 249 l 256 249 l 164 0 l 12 0 m 673 381 l 490 883 l 304 381 l 673 381 m 289 1267 l 428 1267 l 537 1045 l 440 1045 l 289 1267 z "},"Á":{"ha":978,"x_min":12,"x_max":966,"o":"m 12 0 l 382 993 l 601 993 l 966 0 l 811 0 l 721 249 l 256 249 l 164 0 l 12 0 m 673 381 l 490 883 l 304 381 l 673 381 m 690 1267 l 551 1267 l 442 1045 l 539 1045 l 690 1267 z "},"Â":{"ha":978,"x_min":12,"x_max":966,"o":"m 12 0 l 382 993 l 601 993 l 966 0 l 811 0 l 721 249 l 256 249 l 164 0 l 12 0 m 673 381 l 490 883 l 304 381 l 673 381 m 560 1045 l 490 1187 l 418 1045 l 328 1045 l 427 1267 l 552 1267 l 650 1045 l 560 1045 z "},"Ã":{"ha":978,"x_min":12,"x_max":966,"o":"m 12 0 l 382 993 l 601 993 l 966 0 l 811 0 l 721 249 l 256 249 l 164 0 l 12 0 m 673 381 l 490 883 l 304 381 l 673 381 m 684 1236 q 658 1110 684 1151 q 579 1069 633 1069 q 546 1073 561 1069 q 519 1084 531 1077 q 496 1097 506 1090 q 478 1109 486 1103 l 463 1122 q 452 1129 458 1125 q 440 1136 447 1133 q 426 1142 434 1140 q 411 1144 419 1144 q 384 1129 392 1144 q 375 1078 375 1114 l 375 1075 l 309 1075 l 309 1078 q 337 1206 309 1163 q 419 1248 364 1248 q 449 1245 435 1248 q 474 1236 463 1241 q 493 1225 485 1231 q 509 1214 502 1219 l 525 1202 q 538 1193 530 1198 q 553 1184 545 1188 q 570 1177 561 1180 q 588 1174 580 1174 q 602 1177 596 1174 q 611 1188 608 1181 q 616 1207 615 1195 q 618 1235 618 1218 l 618 1242 l 684 1242 l 684 1236 z "},"Ä":{"ha":978,"x_min":12,"x_max":966,"o":"m 12 0 l 382 993 l 601 993 l 966 0 l 811 0 l 721 249 l 256 249 l 164 0 l 12 0 m 673 381 l 490 883 l 304 381 l 673 381 m 456 1071 l 315 1071 l 315 1221 l 456 1221 l 456 1071 m 664 1071 l 522 1071 l 522 1221 l 664 1221 l 664 1071 z "},"Å":{"ha":978,"x_min":12,"x_max":966,"o":"m 12 0 l 382 993 l 601 993 l 966 0 l 811 0 l 721 249 l 256 249 l 164 0 l 12 0 m 673 381 l 490 883 l 304 381 l 673 381 m 337 1196 q 348 1257 337 1230 q 379 1305 359 1285 q 427 1336 399 1325 q 489 1347 455 1347 q 551 1336 523 1347 q 600 1305 580 1325 q 631 1257 620 1285 q 642 1196 642 1230 q 631 1134 642 1162 q 600 1087 620 1107 q 551 1056 580 1067 q 489 1045 523 1045 q 427 1056 455 1045 q 379 1087 399 1067 q 348 1134 359 1107 q 337 1196 337 1162 m 418 1196 q 423 1165 418 1179 q 438 1141 428 1151 q 460 1125 447 1131 q 490 1119 474 1119 q 519 1125 506 1119 q 542 1141 532 1131 q 556 1165 551 1151 q 561 1196 561 1179 q 556 1228 561 1214 q 542 1252 551 1242 q 519 1267 532 1261 q 490 1272 506 1272 q 460 1267 474 1272 q 438 1251 447 1261 q 423 1227 428 1241 q 418 1196 418 1214 z "},"Ç":{"ha":1019,"x_min":49,"x_max":963,"o":"m 194 497 q 216 336 194 407 q 280 216 239 265 q 382 141 322 167 q 517 115 442 115 q 716 184 639 115 q 817 385 792 252 l 963 385 q 909 215 948 290 q 814 87 871 140 q 681 7 756 35 q 517 -21 606 -21 q 385 -4 447 -21 q 272 45 324 13 q 178 122 220 77 q 108 226 137 168 q 64 351 79 283 q 49 497 49 420 q 64 642 49 574 q 108 768 79 710 q 178 871 137 825 q 272 948 220 916 q 385 997 324 980 q 517 1014 447 1014 q 681 986 606 1014 q 814 906 756 958 q 909 778 871 853 q 963 608 948 703 l 817 608 q 716 810 792 741 q 517 878 639 878 q 382 852 442 878 q 280 777 322 826 q 216 657 239 728 q 194 497 194 586 m 547 3 l 538 -53 q 610 -61 578 -54 q 664 -82 642 -68 q 698 -114 686 -95 q 710 -157 710 -133 q 697 -204 710 -183 q 660 -240 684 -225 q 601 -262 635 -255 q 526 -270 567 -270 q 488 -269 507 -270 q 449 -264 469 -267 l 449 -188 q 524 -194 489 -194 q 599 -182 572 -194 q 627 -150 627 -170 q 588 -111 627 -125 q 474 -98 548 -98 l 491 3 l 547 3 z "},"Ð":{"ha":944,"x_min":-52,"x_max":896,"o":"m 59 993 l 386 993 q 530 977 463 993 q 654 931 598 961 q 756 857 711 900 q 832 758 801 813 q 879 637 863 703 q 896 497 896 571 q 879 356 896 422 q 832 235 863 290 q 756 136 801 180 q 654 63 711 93 q 530 16 598 32 q 386 0 463 0 l 59 0 l 59 993 m 386 135 q 538 160 471 135 q 653 232 606 185 q 725 345 700 278 q 750 497 750 412 q 725 648 750 581 q 653 761 700 715 q 538 833 606 808 q 386 858 471 858 l 201 858 l 201 135 l 386 135 m 476 443 l -52 443 l -52 557 l 476 557 l 476 443 z "},"Đ":{"ha":944,"x_min":-52,"x_max":896,"o":"m 59 993 l 386 993 q 530 977 463 993 q 654 931 598 961 q 756 857 711 900 q 832 758 801 813 q 879 637 863 703 q 896 497 896 571 q 879 356 896 422 q 832 235 863 290 q 756 136 801 180 q 654 63 711 93 q 530 16 598 32 q 386 0 463 0 l 59 0 l 59 993 m 386 135 q 538 160 471 135 q 653 232 606 185 q 725 345 700 278 q 750 497 750 412 q 725 648 750 581 q 653 761 700 715 q 538 833 606 808 q 386 858 471 858 l 201 858 l 201 135 l 386 135 m 476 443 l -52 443 l -52 557 l 476 557 l 476 443 z "},"È":{"ha":773,"x_min":59,"x_max":744,"o":"m 730 993 l 730 858 l 205 858 l 205 563 l 688 563 l 688 428 l 205 428 l 205 135 l 744 135 l 744 0 l 59 0 l 59 993 l 730 993 m 197 1267 l 335 1267 l 444 1045 l 347 1045 l 197 1267 z "},"É":{"ha":773,"x_min":59,"x_max":744,"o":"m 730 993 l 730 858 l 205 858 l 205 563 l 688 563 l 688 428 l 205 428 l 205 135 l 744 135 l 744 0 l 59 0 l 59 993 l 730 993 m 597 1267 l 458 1267 l 349 1045 l 447 1045 l 597 1267 z "},"Ê":{"ha":773,"x_min":59,"x_max":744,"o":"m 730 993 l 730 858 l 205 858 l 205 563 l 688 563 l 688 428 l 205 428 l 205 135 l 744 135 l 744 0 l 59 0 l 59 993 l 730 993 m 468 1045 l 398 1187 l 326 1045 l 236 1045 l 334 1267 l 459 1267 l 558 1045 l 468 1045 z "},"Ë":{"ha":773,"x_min":59,"x_max":744,"o":"m 730 993 l 730 858 l 205 858 l 205 563 l 688 563 l 688 428 l 205 428 l 205 135 l 744 135 l 744 0 l 59 0 l 59 993 l 730 993 m 364 1071 l 222 1071 l 222 1221 l 364 1221 l 364 1071 m 572 1071 l 430 1071 l 430 1221 l 572 1221 l 572 1071 z "},"Ì":{"ha":264,"x_min":-68,"x_max":205,"o":"m 205 0 l 59 0 l 59 993 l 205 993 l 205 0 m -68 1267 l 70 1267 l 180 1045 l 82 1045 l -68 1267 z "},"Í":{"ha":264,"x_min":59,"x_max":205,"o":"m 205 0 l 59 0 l 59 993 l 205 993 l 205 0 m 332 1267 l 193 1267 l 84 1045 l 182 1045 l 332 1267 z "},"Î":{"ha":264,"x_min":-29,"x_max":293,"o":"m 205 0 l 59 0 l 59 993 l 205 993 l 205 0 m 203 1045 l 133 1187 l 61 1045 l -29 1045 l 69 1267 l 194 1267 l 293 1045 l 203 1045 z "},"Ï":{"ha":264,"x_min":-43,"x_max":307,"o":"m 205 0 l 59 0 l 59 993 l 205 993 l 205 0 m 99 1071 l -43 1071 l -43 1221 l 99 1221 l 99 1071 m 307 1071 l 165 1071 l 165 1221 l 307 1221 l 307 1071 z "},"Ł":{"ha":745,"x_min":-34,"x_max":716,"o":"m 205 993 l 205 135 l 716 135 l 716 0 l 59 0 l 59 993 l 205 993 m 455 528 l -34 307 l -34 419 l 455 641 l 455 528 z "},"Ñ":{"ha":1000,"x_min":59,"x_max":941,"o":"m 941 0 l 704 0 l 201 900 l 201 0 l 59 0 l 59 993 l 317 993 l 798 131 l 798 993 l 941 993 l 941 0 m 694 1215 q 669 1090 694 1131 q 590 1049 643 1049 q 557 1053 572 1049 q 529 1063 542 1057 q 507 1076 517 1069 q 489 1089 497 1083 l 473 1101 q 463 1108 469 1104 q 451 1116 458 1112 q 437 1121 444 1119 q 422 1124 430 1124 q 395 1108 403 1124 q 386 1057 386 1093 l 386 1055 l 320 1055 l 320 1058 q 347 1185 320 1142 q 430 1227 375 1227 q 460 1224 446 1227 q 484 1215 473 1220 q 504 1204 495 1210 q 519 1193 513 1198 l 536 1181 q 548 1172 541 1177 q 564 1163 556 1167 q 581 1156 572 1159 q 599 1153 590 1153 q 613 1156 607 1153 q 622 1167 618 1160 q 627 1186 625 1174 q 628 1215 628 1198 l 628 1222 l 694 1222 l 694 1215 z "},"Ò":{"ha":1035,"x_min":49,"x_max":986,"o":"m 49 497 q 64 642 49 574 q 108 768 79 710 q 178 871 137 825 q 272 948 220 916 q 386 997 324 980 q 517 1014 448 1014 q 649 997 587 1014 q 763 948 711 980 q 856 871 815 916 q 927 768 898 825 q 971 642 956 710 q 986 497 986 574 q 971 351 986 420 q 927 226 956 283 q 856 122 898 168 q 763 45 815 77 q 649 -4 711 13 q 517 -21 587 -21 q 386 -4 448 -21 q 272 45 324 13 q 178 122 220 77 q 108 226 137 168 q 64 351 79 283 q 49 497 49 420 m 194 497 q 216 336 194 407 q 280 216 239 265 q 382 141 322 167 q 517 115 442 115 q 653 141 593 115 q 755 216 713 167 q 818 336 796 265 q 841 497 841 407 q 818 657 841 586 q 755 777 796 728 q 653 852 713 826 q 517 878 593 878 q 382 852 442 878 q 280 777 322 826 q 216 657 239 728 q 194 497 194 586 m 316 1267 l 455 1267 l 564 1045 l 467 1045 l 316 1267 z "},"Ó":{"ha":1035,"x_min":49,"x_max":986,"o":"m 49 497 q 64 642 49 574 q 108 768 79 710 q 178 871 137 825 q 272 948 220 916 q 386 997 324 980 q 517 1014 448 1014 q 649 997 587 1014 q 763 948 711 980 q 856 871 815 916 q 927 768 898 825 q 971 642 956 710 q 986 497 986 574 q 971 351 986 420 q 927 226 956 283 q 856 122 898 168 q 763 45 815 77 q 649 -4 711 13 q 517 -21 587 -21 q 386 -4 448 -21 q 272 45 324 13 q 178 122 220 77 q 108 226 137 168 q 64 351 79 283 q 49 497 49 420 m 194 497 q 216 336 194 407 q 280 216 239 265 q 382 141 322 167 q 517 115 442 115 q 653 141 593 115 q 755 216 713 167 q 818 336 796 265 q 841 497 841 407 q 818 657 841 586 q 755 777 796 728 q 653 852 713 826 q 517 878 593 878 q 382 852 442 878 q 280 777 322 826 q 216 657 239 728 q 194 497 194 586 m 717 1267 l 578 1267 l 469 1045 l 566 1045 l 717 1267 z "},"Ô":{"ha":1035,"x_min":49,"x_max":986,"o":"m 49 497 q 64 642 49 574 q 108 768 79 710 q 178 871 137 825 q 272 948 220 916 q 386 997 324 980 q 517 1014 448 1014 q 649 997 587 1014 q 763 948 711 980 q 856 871 815 916 q 927 768 898 825 q 971 642 956 710 q 986 497 986 574 q 971 351 986 420 q 927 226 956 283 q 856 122 898 168 q 763 45 815 77 q 649 -4 711 13 q 517 -21 587 -21 q 386 -4 448 -21 q 272 45 324 13 q 178 122 220 77 q 108 226 137 168 q 64 351 79 283 q 49 497 49 420 m 194 497 q 216 336 194 407 q 280 216 239 265 q 382 141 322 167 q 517 115 442 115 q 653 141 593 115 q 755 216 713 167 q 818 336 796 265 q 841 497 841 407 q 818 657 841 586 q 755 777 796 728 q 653 852 713 826 q 517 878 593 878 q 382 852 442 878 q 280 777 322 826 q 216 657 239 728 q 194 497 194 586 m 588 1045 l 518 1187 l 446 1045 l 356 1045 l 454 1267 l 579 1267 l 678 1045 l 588 1045 z "},"Õ":{"ha":1035,"x_min":49,"x_max":986,"o":"m 49 497 q 64 642 49 574 q 108 768 79 710 q 178 871 137 825 q 272 948 220 916 q 386 997 324 980 q 517 1014 448 1014 q 649 997 587 1014 q 763 948 711 980 q 856 871 815 916 q 927 768 898 825 q 971 642 956 710 q 986 497 986 574 q 971 351 986 420 q 927 226 956 283 q 856 122 898 168 q 763 45 815 77 q 649 -4 711 13 q 517 -21 587 -21 q 386 -4 448 -21 q 272 45 324 13 q 178 122 220 77 q 108 226 137 168 q 64 351 79 283 q 49 497 49 420 m 194 497 q 216 336 194 407 q 280 216 239 265 q 382 141 322 167 q 517 115 442 115 q 653 141 593 115 q 755 216 713 167 q 818 336 796 265 q 841 497 841 407 q 818 657 841 586 q 755 777 796 728 q 653 852 713 826 q 517 878 593 878 q 382 852 442 878 q 280 777 322 826 q 216 657 239 728 q 194 497 194 586 m 711 1236 q 686 1110 711 1151 q 606 1069 660 1069 q 573 1073 589 1069 q 546 1084 558 1077 q 524 1097 534 1090 q 506 1109 514 1103 l 490 1122 q 480 1129 485 1125 q 468 1136 474 1133 q 454 1142 461 1140 q 439 1144 447 1144 q 411 1129 420 1144 q 403 1078 403 1114 l 403 1075 l 337 1075 l 337 1078 q 364 1206 337 1163 q 446 1248 391 1248 q 476 1245 463 1248 q 501 1236 490 1241 q 521 1225 512 1231 q 536 1214 530 1219 l 552 1202 q 565 1193 558 1198 q 581 1184 572 1188 q 598 1177 589 1180 q 616 1174 607 1174 q 629 1177 624 1174 q 639 1188 635 1181 q 644 1207 642 1195 q 645 1235 645 1218 l 645 1242 l 711 1242 l 711 1236 z "},"Ö":{"ha":1035,"x_min":49,"x_max":986,"o":"m 49 497 q 64 642 49 574 q 108 768 79 710 q 178 871 137 825 q 272 948 220 916 q 386 997 324 980 q 517 1014 448 1014 q 649 997 587 1014 q 763 948 711 980 q 856 871 815 916 q 927 768 898 825 q 971 642 956 710 q 986 497 986 574 q 971 351 986 420 q 927 226 956 283 q 856 122 898 168 q 763 45 815 77 q 649 -4 711 13 q 517 -21 587 -21 q 386 -4 448 -21 q 272 45 324 13 q 178 122 220 77 q 108 226 137 168 q 64 351 79 283 q 49 497 49 420 m 194 497 q 216 336 194 407 q 280 216 239 265 q 382 141 322 167 q 517 115 442 115 q 653 141 593 115 q 755 216 713 167 q 818 336 796 265 q 841 497 841 407 q 818 657 841 586 q 755 777 796 728 q 653 852 713 826 q 517 878 593 878 q 382 852 442 878 q 280 777 322 826 q 216 657 239 728 q 194 497 194 586 m 484 1071 l 342 1071 l 342 1221 l 484 1221 l 484 1071 m 691 1071 l 550 1071 l 550 1221 l 691 1221 l 691 1071 z "},"Š":{"ha":905,"x_min":31,"x_max":873,"o":"m 446 1014 q 607 992 535 1014 q 730 928 679 969 q 809 827 782 887 q 837 694 837 768 l 695 694 q 677 772 695 737 q 625 831 658 807 q 546 869 592 856 q 445 882 500 882 q 383 878 414 882 q 324 864 352 873 q 272 842 296 856 q 229 810 247 828 q 201 768 211 792 q 191 716 191 745 q 199 673 191 691 q 223 641 207 654 q 261 617 238 627 q 311 600 283 608 q 374 587 340 593 q 448 576 409 582 l 499 568 q 564 558 531 563 q 629 545 597 552 q 692 527 661 538 q 749 502 722 516 q 799 467 777 487 q 839 421 822 447 q 864 361 855 395 q 873 285 873 328 q 859 191 873 234 q 820 114 845 148 q 757 55 794 80 q 674 13 720 30 q 573 -12 628 -4 q 458 -21 519 -21 q 279 1 358 -21 q 145 65 200 23 q 60 169 90 108 q 31 308 31 230 l 174 308 q 193 226 174 262 q 250 163 213 189 q 339 124 287 138 q 456 111 391 111 q 528 116 493 111 q 593 130 563 120 q 649 154 624 139 q 692 188 674 168 q 720 232 710 207 q 731 288 731 257 q 722 336 731 316 q 699 371 714 356 q 662 395 684 385 q 614 413 641 406 q 555 426 586 420 q 488 436 523 431 l 423 446 q 336 460 381 452 q 251 480 292 467 q 172 510 209 492 q 108 555 135 528 q 65 622 81 583 q 49 713 49 660 q 63 805 49 763 q 103 880 77 846 q 166 938 130 913 q 247 980 202 963 q 341 1005 291 997 q 446 1014 392 1014 m 514 1045 l 389 1045 l 291 1267 l 381 1267 l 453 1125 l 522 1267 l 613 1267 l 514 1045 z "},"Ù":{"ha":965,"x_min":59,"x_max":906,"o":"m 59 993 l 205 993 l 205 417 q 223 289 205 345 q 277 194 242 232 q 365 135 313 155 q 483 115 416 115 q 601 135 549 115 q 688 194 652 155 q 742 289 723 232 q 760 417 760 345 l 760 993 l 906 993 l 906 417 q 893 292 906 350 q 854 185 879 233 q 791 98 828 136 q 707 33 754 60 q 604 -7 660 7 q 483 -21 547 -21 q 362 -7 418 -21 q 258 33 305 7 q 174 98 211 60 q 112 185 137 136 q 73 292 86 233 q 59 417 59 350 l 59 993 m 282 1267 l 421 1267 l 530 1045 l 433 1045 l 282 1267 z "},"Ú":{"ha":965,"x_min":59,"x_max":906,"o":"m 59 993 l 205 993 l 205 417 q 223 289 205 345 q 277 194 242 232 q 365 135 313 155 q 483 115 416 115 q 601 135 549 115 q 688 194 652 155 q 742 289 723 232 q 760 417 760 345 l 760 993 l 906 993 l 906 417 q 893 292 906 350 q 854 185 879 233 q 791 98 828 136 q 707 33 754 60 q 604 -7 660 7 q 483 -21 547 -21 q 362 -7 418 -21 q 258 33 305 7 q 174 98 211 60 q 112 185 137 136 q 73 292 86 233 q 59 417 59 350 l 59 993 m 683 1267 l 544 1267 l 435 1045 l 532 1045 l 683 1267 z "},"Û":{"ha":965,"x_min":59,"x_max":906,"o":"m 59 993 l 205 993 l 205 417 q 223 289 205 345 q 277 194 242 232 q 365 135 313 155 q 483 115 416 115 q 601 135 549 115 q 688 194 652 155 q 742 289 723 232 q 760 417 760 345 l 760 993 l 906 993 l 906 417 q 893 292 906 350 q 854 185 879 233 q 791 98 828 136 q 707 33 754 60 q 604 -7 660 7 q 483 -21 547 -21 q 362 -7 418 -21 q 258 33 305 7 q 174 98 211 60 q 112 185 137 136 q 73 292 86 233 q 59 417 59 350 l 59 993 m 553 1045 l 484 1187 l 412 1045 l 322 1045 l 420 1267 l 545 1267 l 644 1045 l 553 1045 z "},"Ü":{"ha":965,"x_min":59,"x_max":906,"o":"m 59 993 l 205 993 l 205 417 q 223 289 205 345 q 277 194 242 232 q 365 135 313 155 q 483 115 416 115 q 601 135 549 115 q 688 194 652 155 q 742 289 723 232 q 760 417 760 345 l 760 993 l 906 993 l 906 417 q 893 292 906 350 q 854 185 879 233 q 791 98 828 136 q 707 33 754 60 q 604 -7 660 7 q 483 -21 547 -21 q 362 -7 418 -21 q 258 33 305 7 q 174 98 211 60 q 112 185 137 136 q 73 292 86 233 q 59 417 59 350 l 59 993 m 450 1071 l 308 1071 l 308 1221 l 450 1221 l 450 1071 m 657 1071 l 516 1071 l 516 1221 l 657 1221 l 657 1071 z "},"Ÿ":{"ha":944,"x_min":9,"x_max":935,"o":"m 935 993 l 543 377 l 543 0 l 397 0 l 397 376 l 9 993 l 177 993 l 472 518 l 770 993 l 935 993 m 439 1071 l 298 1071 l 298 1221 l 439 1221 l 439 1071 m 647 1071 l 505 1071 l 505 1221 l 647 1221 l 647 1071 z "},"Ý":{"ha":944,"x_min":9,"x_max":935,"o":"m 935 993 l 543 377 l 543 0 l 397 0 l 397 376 l 9 993 l 177 993 l 472 518 l 770 993 l 935 993 m 673 1267 l 534 1267 l 425 1045 l 522 1045 l 673 1267 z "},"Ž":{"ha":877,"x_min":59,"x_max":818,"o":"m 227 135 l 818 135 l 818 0 l 59 0 l 59 146 l 615 858 l 76 858 l 76 993 l 783 993 l 783 847 l 227 135 m 493 1045 l 368 1045 l 270 1267 l 360 1267 l 432 1125 l 501 1267 l 592 1267 l 493 1045 z "},"à":{"ha":822,"x_min":35,"x_max":769,"o":"m 57 499 q 82 618 57 565 q 151 709 106 671 q 261 766 197 746 q 406 786 326 786 q 558 764 491 786 q 673 698 626 741 q 744 594 719 656 q 769 454 769 532 l 769 0 l 629 0 l 629 206 q 587 111 615 153 q 518 40 558 69 q 426 -5 477 10 q 314 -21 374 -21 q 199 -4 251 -21 q 111 43 148 13 q 55 115 75 73 q 35 210 35 158 q 55 305 35 263 q 115 376 76 347 q 209 421 153 405 q 333 436 264 436 l 629 436 l 629 454 q 613 539 629 501 q 568 604 597 577 q 497 645 539 631 q 403 659 456 659 q 312 648 350 659 q 248 615 273 636 q 210 565 223 594 q 198 499 198 535 l 57 499 m 332 318 q 214 292 254 318 q 174 215 174 266 q 185 166 174 188 q 219 131 197 145 q 275 109 242 117 q 351 102 308 102 q 463 116 413 102 q 551 157 514 131 q 608 219 588 183 q 629 297 629 255 l 629 318 l 332 318 m 206 1040 l 344 1040 l 453 818 l 356 818 l 206 1040 z "},"á":{"ha":822,"x_min":35,"x_max":769,"o":"m 57 499 q 82 618 57 565 q 151 709 106 671 q 261 766 197 746 q 406 786 326 786 q 558 764 491 786 q 673 698 626 741 q 744 594 719 656 q 769 454 769 532 l 769 0 l 629 0 l 629 206 q 587 111 615 153 q 518 40 558 69 q 426 -5 477 10 q 314 -21 374 -21 q 199 -4 251 -21 q 111 43 148 13 q 55 115 75 73 q 35 210 35 158 q 55 305 35 263 q 115 376 76 347 q 209 421 153 405 q 333 436 264 436 l 629 436 l 629 454 q 613 539 629 501 q 568 604 597 577 q 497 645 539 631 q 403 659 456 659 q 312 648 350 659 q 248 615 273 636 q 210 565 223 594 q 198 499 198 535 l 57 499 m 332 318 q 214 292 254 318 q 174 215 174 266 q 185 166 174 188 q 219 131 197 145 q 275 109 242 117 q 351 102 308 102 q 463 116 413 102 q 551 157 514 131 q 608 219 588 183 q 629 297 629 255 l 629 318 l 332 318 m 607 1040 l 468 1040 l 359 818 l 456 818 l 607 1040 z "},"â":{"ha":822,"x_min":35,"x_max":769,"o":"m 57 499 q 82 618 57 565 q 151 709 106 671 q 261 766 197 746 q 406 786 326 786 q 558 764 491 786 q 673 698 626 741 q 744 594 719 656 q 769 454 769 532 l 769 0 l 629 0 l 629 206 q 587 111 615 153 q 518 40 558 69 q 426 -5 477 10 q 314 -21 374 -21 q 199 -4 251 -21 q 111 43 148 13 q 55 115 75 73 q 35 210 35 158 q 55 305 35 263 q 115 376 76 347 q 209 421 153 405 q 333 436 264 436 l 629 436 l 629 454 q 613 539 629 501 q 568 604 597 577 q 497 645 539 631 q 403 659 456 659 q 312 648 350 659 q 248 615 273 636 q 210 565 223 594 q 198 499 198 535 l 57 499 m 332 318 q 214 292 254 318 q 174 215 174 266 q 185 166 174 188 q 219 131 197 145 q 275 109 242 117 q 351 102 308 102 q 463 116 413 102 q 551 157 514 131 q 608 219 588 183 q 629 297 629 255 l 629 318 l 332 318 m 477 818 l 407 959 l 335 818 l 245 818 l 343 1040 l 468 1040 l 567 818 l 477 818 z "},"ã":{"ha":822,"x_min":35,"x_max":769,"o":"m 57 499 q 82 618 57 565 q 151 709 106 671 q 261 766 197 746 q 406 786 326 786 q 558 764 491 786 q 673 698 626 741 q 744 594 719 656 q 769 454 769 532 l 769 0 l 629 0 l 629 206 q 587 111 615 153 q 518 40 558 69 q 426 -5 477 10 q 314 -21 374 -21 q 199 -4 251 -21 q 111 43 148 13 q 55 115 75 73 q 35 210 35 158 q 55 305 35 263 q 115 376 76 347 q 209 421 153 405 q 333 436 264 436 l 629 436 l 629 454 q 613 539 629 501 q 568 604 597 577 q 497 645 539 631 q 403 659 456 659 q 312 648 350 659 q 248 615 273 636 q 210 565 223 594 q 198 499 198 535 l 57 499 m 332 318 q 214 292 254 318 q 174 215 174 266 q 185 166 174 188 q 219 131 197 145 q 275 109 242 117 q 351 102 308 102 q 463 116 413 102 q 551 157 514 131 q 608 219 588 183 q 629 297 629 255 l 629 318 l 332 318 m 600 1009 q 575 883 600 924 q 495 842 549 842 q 463 846 478 842 q 435 856 448 850 q 413 869 423 862 q 395 882 403 876 l 379 894 q 369 902 375 898 q 357 909 364 906 q 343 915 350 913 q 328 917 336 917 q 301 902 309 917 q 292 851 292 886 l 292 848 l 226 848 l 226 851 q 253 978 226 936 q 335 1021 281 1021 q 365 1017 352 1021 q 390 1009 379 1014 q 410 997 401 1003 q 425 986 419 991 l 442 974 q 454 966 447 970 q 470 957 461 961 q 487 949 478 952 q 505 947 496 947 q 519 950 513 947 q 528 960 524 953 q 533 979 531 968 q 534 1008 534 991 l 534 1015 l 600 1015 l 600 1009 z "},"ä":{"ha":822,"x_min":35,"x_max":769,"o":"m 57 499 q 82 618 57 565 q 151 709 106 671 q 261 766 197 746 q 406 786 326 786 q 558 764 491 786 q 673 698 626 741 q 744 594 719 656 q 769 454 769 532 l 769 0 l 629 0 l 629 206 q 587 111 615 153 q 518 40 558 69 q 426 -5 477 10 q 314 -21 374 -21 q 199 -4 251 -21 q 111 43 148 13 q 55 115 75 73 q 35 210 35 158 q 55 305 35 263 q 115 376 76 347 q 209 421 153 405 q 333 436 264 436 l 629 436 l 629 454 q 613 539 629 501 q 568 604 597 577 q 497 645 539 631 q 403 659 456 659 q 312 648 350 659 q 248 615 273 636 q 210 565 223 594 q 198 499 198 535 l 57 499 m 332 318 q 214 292 254 318 q 174 215 174 266 q 185 166 174 188 q 219 131 197 145 q 275 109 242 117 q 351 102 308 102 q 463 116 413 102 q 551 157 514 131 q 608 219 588 183 q 629 297 629 255 l 629 318 l 332 318 m 373 843 l 231 843 l 231 993 l 373 993 l 373 843 m 581 843 l 439 843 l 439 993 l 581 993 l 581 843 z "},"å":{"ha":822,"x_min":35,"x_max":769,"o":"m 57 499 q 82 618 57 565 q 151 709 106 671 q 261 766 197 746 q 406 786 326 786 q 558 764 491 786 q 673 698 626 741 q 744 594 719 656 q 769 454 769 532 l 769 0 l 629 0 l 629 206 q 587 111 615 153 q 518 40 558 69 q 426 -5 477 10 q 314 -21 374 -21 q 199 -4 251 -21 q 111 43 148 13 q 55 115 75 73 q 35 210 35 158 q 55 305 35 263 q 115 376 76 347 q 209 421 153 405 q 333 436 264 436 l 629 436 l 629 454 q 613 539 629 501 q 568 604 597 577 q 497 645 539 631 q 403 659 456 659 q 312 648 350 659 q 248 615 273 636 q 210 565 223 594 q 198 499 198 535 l 57 499 m 332 318 q 214 292 254 318 q 174 215 174 266 q 185 166 174 188 q 219 131 197 145 q 275 109 242 117 q 351 102 308 102 q 463 116 413 102 q 551 157 514 131 q 608 219 588 183 q 629 297 629 255 l 629 318 l 332 318 m 253 968 q 265 1030 253 1002 q 296 1077 276 1058 q 344 1108 316 1097 q 406 1119 372 1119 q 468 1108 440 1119 q 516 1077 496 1097 q 548 1030 536 1058 q 559 968 559 1002 q 548 907 559 935 q 516 859 536 879 q 468 829 496 840 q 406 818 440 818 q 344 829 372 818 q 296 859 316 840 q 265 907 276 879 q 253 968 253 935 m 334 969 q 340 937 334 951 q 354 913 345 923 q 377 898 364 903 q 406 892 390 892 q 436 898 423 892 q 458 913 449 903 q 473 937 468 923 q 478 969 478 951 q 473 1000 478 986 q 458 1024 468 1014 q 436 1039 449 1034 q 406 1045 423 1045 q 377 1039 390 1045 q 354 1024 364 1034 q 340 1000 345 1014 q 334 969 334 986 z "},"ç":{"ha":805,"x_min":38,"x_max":766,"o":"m 179 383 q 195 268 179 319 q 241 180 211 216 q 315 125 272 144 q 413 106 359 106 q 497 120 460 106 q 560 160 533 135 q 602 218 586 184 q 626 289 619 251 l 766 289 q 747 205 761 245 q 710 131 732 165 q 658 69 688 97 q 590 21 628 41 q 509 -10 553 1 q 413 -21 464 -21 q 307 -8 357 -21 q 216 30 257 5 q 141 90 174 55 q 85 171 108 126 q 50 269 63 216 q 38 383 38 323 q 50 497 38 443 q 85 595 63 550 q 141 676 108 640 q 216 736 174 711 q 307 773 257 760 q 413 786 357 786 q 509 776 464 786 q 591 745 553 765 q 658 697 628 725 q 710 635 688 669 q 747 560 732 600 q 766 477 761 520 l 626 477 q 603 548 619 515 q 560 606 586 581 q 497 645 534 631 q 413 659 460 659 q 315 640 359 659 q 241 585 272 621 q 195 498 211 550 q 179 383 179 447 m 443 3 l 434 -53 q 506 -61 474 -54 q 560 -82 538 -68 q 594 -114 583 -95 q 606 -157 606 -133 q 593 -204 606 -183 q 556 -240 580 -225 q 498 -262 532 -255 q 422 -270 464 -270 q 384 -269 403 -270 q 345 -264 365 -267 l 345 -188 q 420 -194 385 -194 q 496 -182 468 -194 q 523 -150 523 -170 q 484 -111 523 -125 q 370 -98 444 -98 l 388 3 l 443 3 z "},"đ":{"ha":842,"x_min":38,"x_max":876,"o":"m 787 1028 l 787 0 l 646 0 l 646 236 q 605 130 631 177 q 541 49 578 82 q 460 -3 505 15 q 362 -21 414 -21 q 273 -7 315 -21 q 194 32 230 6 q 129 93 158 57 q 80 174 100 129 q 49 271 60 218 q 38 383 38 324 q 49 494 38 442 q 80 592 60 547 q 129 673 100 637 q 194 734 158 709 q 273 773 230 759 q 362 786 315 786 q 460 768 414 786 q 541 717 505 750 q 605 636 578 684 q 646 530 631 589 l 646 1028 l 787 1028 m 646 383 q 630 501 646 449 q 583 589 614 552 q 509 644 553 625 q 410 663 465 663 q 311 645 354 663 q 238 591 267 626 q 194 503 209 556 q 179 383 179 451 q 194 263 179 315 q 238 175 209 210 q 311 121 268 139 q 410 103 354 103 q 509 122 465 103 q 583 177 553 141 q 630 265 614 214 q 646 383 646 317 m 876 827 l 400 827 l 400 932 l 876 932 l 876 827 z "},"è":{"ha":808,"x_min":38,"x_max":769,"o":"m 766 254 q 719 139 751 190 q 643 52 688 88 q 539 -2 597 17 q 414 -21 482 -21 q 308 -8 358 -21 q 217 30 259 6 q 142 91 175 55 q 86 171 109 126 q 50 270 63 216 q 38 384 38 324 q 50 498 38 444 q 85 595 63 551 q 141 676 108 640 q 215 736 173 711 q 305 773 256 760 q 410 786 355 786 q 559 758 492 786 q 672 678 625 730 q 744 552 719 626 q 769 386 769 478 q 769 360 769 373 q 767 332 768 347 l 182 332 q 207 237 188 279 q 256 166 226 195 q 327 122 286 137 q 418 106 368 106 q 546 143 494 106 q 625 254 597 180 l 766 254 m 624 453 q 600 541 617 503 q 555 606 582 580 q 492 646 528 632 q 411 659 456 659 q 327 645 365 659 q 260 605 289 631 q 211 540 231 578 q 184 453 192 501 l 624 453 m 210 1040 l 349 1040 l 458 818 l 360 818 l 210 1040 z "},"é":{"ha":808,"x_min":38,"x_max":769,"o":"m 766 254 q 719 139 751 190 q 643 52 688 88 q 539 -2 597 17 q 414 -21 482 -21 q 308 -8 358 -21 q 217 30 259 6 q 142 91 175 55 q 86 171 109 126 q 50 270 63 216 q 38 384 38 324 q 50 498 38 444 q 85 595 63 551 q 141 676 108 640 q 215 736 173 711 q 305 773 256 760 q 410 786 355 786 q 559 758 492 786 q 672 678 625 730 q 744 552 719 626 q 769 386 769 478 q 769 360 769 373 q 767 332 768 347 l 182 332 q 207 237 188 279 q 256 166 226 195 q 327 122 286 137 q 418 106 368 106 q 546 143 494 106 q 625 254 597 180 l 766 254 m 624 453 q 600 541 617 503 q 555 606 582 580 q 492 646 528 632 q 411 659 456 659 q 327 645 365 659 q 260 605 289 631 q 211 540 231 578 q 184 453 192 501 l 624 453 m 611 1040 l 472 1040 l 363 818 l 460 818 l 611 1040 z "},"ê":{"ha":808,"x_min":38,"x_max":769,"o":"m 766 254 q 719 139 751 190 q 643 52 688 88 q 539 -2 597 17 q 414 -21 482 -21 q 308 -8 358 -21 q 217 30 259 6 q 142 91 175 55 q 86 171 109 126 q 50 270 63 216 q 38 384 38 324 q 50 498 38 444 q 85 595 63 551 q 141 676 108 640 q 215 736 173 711 q 305 773 256 760 q 410 786 355 786 q 559 758 492 786 q 672 678 625 730 q 744 552 719 626 q 769 386 769 478 q 769 360 769 373 q 767 332 768 347 l 182 332 q 207 237 188 279 q 256 166 226 195 q 327 122 286 137 q 418 106 368 106 q 546 143 494 106 q 625 254 597 180 l 766 254 m 624 453 q 600 541 617 503 q 555 606 582 580 q 492 646 528 632 q 411 659 456 659 q 327 645 365 659 q 260 605 289 631 q 211 540 231 578 q 184 453 192 501 l 624 453 m 481 818 l 411 959 l 339 818 l 249 818 l 348 1040 l 473 1040 l 571 818 l 481 818 z "},"ë":{"ha":808,"x_min":38,"x_max":769,"o":"m 766 254 q 719 139 751 190 q 643 52 688 88 q 539 -2 597 17 q 414 -21 482 -21 q 308 -8 358 -21 q 217 30 259 6 q 142 91 175 55 q 86 171 109 126 q 50 270 63 216 q 38 384 38 324 q 50 498 38 444 q 85 595 63 551 q 141 676 108 640 q 215 736 173 711 q 305 773 256 760 q 410 786 355 786 q 559 758 492 786 q 672 678 625 730 q 744 552 719 626 q 769 386 769 478 q 769 360 769 373 q 767 332 768 347 l 182 332 q 207 237 188 279 q 256 166 226 195 q 327 122 286 137 q 418 106 368 106 q 546 143 494 106 q 625 254 597 180 l 766 254 m 624 453 q 600 541 617 503 q 555 606 582 580 q 492 646 528 632 q 411 659 456 659 q 327 645 365 659 q 260 605 289 631 q 211 540 231 578 q 184 453 192 501 l 624 453 m 377 843 l 235 843 l 235 993 l 377 993 l 377 843 m 585 843 l 443 843 l 443 993 l 585 993 l 585 843 z "},"ì":{"ha":297,"x_min":-52,"x_max":219,"o":"m 219 0 l 78 0 l 78 766 l 219 766 l 219 0 m -52 1040 l 87 1040 l 196 818 l 99 818 l -52 1040 z "},"í":{"ha":297,"x_min":78,"x_max":219,"o":"m 219 0 l 78 0 l 78 766 l 219 766 l 219 0 m 349 1040 l 210 1040 l 101 818 l 198 818 l 349 1040 z "},"î":{"ha":297,"x_min":-13,"x_max":309,"o":"m 219 0 l 78 0 l 78 766 l 219 766 l 219 0 m 219 818 l 149 959 l 77 818 l -13 818 l 86 1040 l 211 1040 l 309 818 l 219 818 z "},"ï":{"ha":297,"x_min":-26,"x_max":323,"o":"m 219 0 l 78 0 l 78 766 l 219 766 l 219 0 m 115 843 l -26 843 l -26 993 l 115 993 l 115 843 m 323 843 l 181 843 l 181 993 l 323 993 l 323 843 z "},"ł":{"ha":252,"x_min":-49,"x_max":307,"o":"m 196 0 l 56 0 l 56 1028 l 196 1028 l 196 0 m 307 488 l -49 327 l -49 433 l 307 593 l 307 488 z "},"ñ":{"ha":811,"x_min":56,"x_max":759,"o":"m 196 0 l 56 0 l 56 766 l 196 766 l 196 544 q 236 646 210 601 q 299 722 262 691 q 381 770 335 753 q 480 786 427 786 q 598 762 546 786 q 685 691 649 737 q 740 578 721 644 q 759 428 759 511 l 759 0 l 618 0 l 618 428 q 569 601 618 543 q 422 659 520 659 q 327 643 369 659 q 256 595 285 626 q 212 518 227 564 q 196 414 196 472 l 196 0 m 602 1009 q 576 883 602 924 q 497 842 551 842 q 464 846 479 842 q 437 856 449 850 q 414 869 424 862 q 397 882 405 876 l 381 894 q 370 902 376 898 q 358 909 365 906 q 344 915 352 913 q 329 917 337 917 q 302 902 310 917 q 293 851 293 886 l 293 848 l 227 848 l 227 851 q 255 978 227 936 q 337 1021 282 1021 q 367 1017 353 1021 q 392 1009 381 1014 q 411 997 403 1003 q 427 986 420 991 l 443 974 q 456 966 448 970 q 471 957 463 961 q 489 949 480 952 q 506 947 498 947 q 520 950 514 947 q 529 960 526 953 q 534 979 533 968 q 536 1008 536 991 l 536 1015 l 602 1015 l 602 1009 z "},"ò":{"ha":825,"x_min":38,"x_max":787,"o":"m 38 383 q 50 497 38 443 q 85 595 63 550 q 141 676 108 640 q 216 736 174 711 q 307 773 257 760 q 413 786 357 786 q 518 773 469 786 q 609 736 568 760 q 684 676 651 711 q 740 595 717 640 q 775 497 763 550 q 787 383 787 443 q 775 269 787 323 q 740 171 763 216 q 684 90 717 126 q 609 30 651 55 q 518 -8 568 5 q 413 -21 469 -21 q 307 -8 357 -21 q 216 30 257 5 q 141 90 174 55 q 85 171 108 126 q 50 269 63 216 q 38 383 38 323 m 179 383 q 195 268 179 319 q 241 180 211 216 q 315 125 272 144 q 413 106 359 106 q 510 125 467 106 q 584 180 553 144 q 630 268 614 216 q 646 383 646 319 q 630 498 646 447 q 584 585 614 550 q 510 640 553 621 q 413 659 467 659 q 315 640 359 659 q 241 585 272 621 q 195 498 211 549 q 179 383 179 447 m 212 1040 l 351 1040 l 460 818 l 363 818 l 212 1040 z "},"ó":{"ha":825,"x_min":38,"x_max":787,"o":"m 38 383 q 50 497 38 443 q 85 595 63 550 q 141 676 108 640 q 216 736 174 711 q 307 773 257 760 q 413 786 357 786 q 518 773 469 786 q 609 736 568 760 q 684 676 651 711 q 740 595 717 640 q 775 497 763 550 q 787 383 787 443 q 775 269 787 323 q 740 171 763 216 q 684 90 717 126 q 609 30 651 55 q 518 -8 568 5 q 413 -21 469 -21 q 307 -8 357 -21 q 216 30 257 5 q 141 90 174 55 q 85 171 108 126 q 50 269 63 216 q 38 383 38 323 m 179 383 q 195 268 179 319 q 241 180 211 216 q 315 125 272 144 q 413 106 359 106 q 510 125 467 106 q 584 180 553 144 q 630 268 614 216 q 646 383 646 319 q 630 498 646 447 q 584 585 614 550 q 510 640 553 621 q 413 659 467 659 q 315 640 359 659 q 241 585 272 621 q 195 498 211 549 q 179 383 179 447 m 613 1040 l 474 1040 l 365 818 l 462 818 l 613 1040 z "},"ô":{"ha":825,"x_min":38,"x_max":787,"o":"m 38 383 q 50 497 38 443 q 85 595 63 550 q 141 676 108 640 q 216 736 174 711 q 307 773 257 760 q 413 786 357 786 q 518 773 469 786 q 609 736 568 760 q 684 676 651 711 q 740 595 717 640 q 775 497 763 550 q 787 383 787 443 q 775 269 787 323 q 740 171 763 216 q 684 90 717 126 q 609 30 651 55 q 518 -8 568 5 q 413 -21 469 -21 q 307 -8 357 -21 q 216 30 257 5 q 141 90 174 55 q 85 171 108 126 q 50 269 63 216 q 38 383 38 323 m 179 383 q 195 268 179 319 q 241 180 211 216 q 315 125 272 144 q 413 106 359 106 q 510 125 467 106 q 584 180 553 144 q 630 268 614 216 q 646 383 646 319 q 630 498 646 447 q 584 585 614 550 q 510 640 553 621 q 413 659 467 659 q 315 640 359 659 q 241 585 272 621 q 195 498 211 549 q 179 383 179 447 m 483 818 l 414 959 l 342 818 l 251 818 l 350 1040 l 475 1040 l 574 818 l 483 818 z "},"õ":{"ha":825,"x_min":38,"x_max":787,"o":"m 38 383 q 50 497 38 443 q 85 595 63 550 q 141 676 108 640 q 216 736 174 711 q 307 773 257 760 q 413 786 357 786 q 518 773 469 786 q 609 736 568 760 q 684 676 651 711 q 740 595 717 640 q 775 497 763 550 q 787 383 787 443 q 775 269 787 323 q 740 171 763 216 q 684 90 717 126 q 609 30 651 55 q 518 -8 568 5 q 413 -21 469 -21 q 307 -8 357 -21 q 216 30 257 5 q 141 90 174 55 q 85 171 108 126 q 50 269 63 216 q 38 383 38 323 m 179 383 q 195 268 179 319 q 241 180 211 216 q 315 125 272 144 q 413 106 359 106 q 510 125 467 106 q 584 180 553 144 q 630 268 614 216 q 646 383 646 319 q 630 498 646 447 q 584 585 614 550 q 510 640 553 621 q 413 659 467 659 q 315 640 359 659 q 241 585 272 621 q 195 498 211 549 q 179 383 179 447 m 607 1009 q 581 883 607 924 q 502 842 556 842 q 469 846 484 842 q 442 856 454 850 q 420 869 430 862 q 402 882 410 876 l 386 894 q 376 902 381 898 q 364 909 370 906 q 350 915 357 913 q 334 917 342 917 q 307 902 316 917 q 299 851 299 886 l 299 848 l 233 848 l 233 851 q 260 978 233 936 q 342 1021 287 1021 q 372 1017 358 1021 q 397 1009 386 1014 q 417 997 408 1003 q 432 986 425 991 l 448 974 q 461 966 453 970 q 476 957 468 961 q 494 949 485 952 q 511 947 503 947 q 525 950 519 947 q 534 960 531 953 q 539 979 538 968 q 541 1008 541 991 l 541 1015 l 607 1015 l 607 1009 z "},"ö":{"ha":825,"x_min":38,"x_max":787,"o":"m 38 383 q 50 497 38 443 q 85 595 63 550 q 141 676 108 640 q 216 736 174 711 q 307 773 257 760 q 413 786 357 786 q 518 773 469 786 q 609 736 568 760 q 684 676 651 711 q 740 595 717 640 q 775 497 763 550 q 787 383 787 443 q 775 269 787 323 q 740 171 763 216 q 684 90 717 126 q 609 30 651 55 q 518 -8 568 5 q 413 -21 469 -21 q 307 -8 357 -21 q 216 30 257 5 q 141 90 174 55 q 85 171 108 126 q 50 269 63 216 q 38 383 38 323 m 179 383 q 195 268 179 319 q 241 180 211 216 q 315 125 272 144 q 413 106 359 106 q 510 125 467 106 q 584 180 553 144 q 630 268 614 216 q 646 383 646 319 q 630 498 646 447 q 584 585 614 550 q 510 640 553 621 q 413 659 467 659 q 315 640 359 659 q 241 585 272 621 q 195 498 211 549 q 179 383 179 447 m 380 843 l 238 843 l 238 993 l 380 993 l 380 843 m 587 843 l 445 843 l 445 993 l 587 993 l 587 843 z "},"š":{"ha":753,"x_min":30,"x_max":722,"o":"m 367 786 q 506 769 445 786 q 609 718 567 751 q 672 639 650 685 q 694 534 694 592 l 557 534 q 544 588 557 564 q 507 629 532 612 q 448 656 483 646 q 367 665 413 665 q 291 657 325 665 q 232 636 257 650 q 194 602 207 622 q 180 558 180 582 q 188 527 180 540 q 209 503 195 513 q 240 486 222 493 q 278 473 257 478 q 320 464 298 468 q 363 457 342 461 l 414 449 q 481 438 446 444 q 551 421 516 432 q 616 394 585 410 q 670 354 647 378 q 708 296 694 330 q 722 215 722 262 q 700 115 722 159 q 634 41 677 71 q 527 -5 591 10 q 380 -21 463 -21 q 227 -4 292 -21 q 117 46 161 13 q 52 127 74 79 q 30 238 30 175 l 167 238 q 180 179 167 205 q 219 136 192 154 q 285 110 245 119 q 379 101 325 101 q 466 108 428 101 q 531 129 505 115 q 571 164 557 143 q 585 212 585 185 q 577 248 585 233 q 555 276 569 264 q 521 296 541 288 q 479 311 502 305 q 432 322 457 317 q 383 331 408 327 l 332 340 q 270 351 303 344 q 205 367 238 357 q 144 392 173 377 q 92 430 115 407 q 56 483 70 452 q 43 555 43 514 q 65 651 43 608 q 130 724 88 693 q 231 770 172 754 q 367 786 291 786 m 433 818 l 308 818 l 210 1040 l 300 1040 l 372 898 l 441 1040 l 532 1040 l 433 818 z "},"ù":{"ha":811,"x_min":52,"x_max":756,"o":"m 615 766 l 756 766 l 756 0 l 615 0 l 615 221 q 575 120 601 165 q 513 44 549 75 q 430 -4 476 13 q 331 -21 384 -21 q 214 4 265 -21 q 126 75 162 29 q 71 188 90 122 q 52 338 52 254 l 52 766 l 193 766 l 193 338 q 242 164 193 223 q 389 106 291 106 q 484 123 442 106 q 555 171 526 139 q 599 248 584 202 q 615 351 615 293 l 615 766 m 203 1040 l 342 1040 l 451 818 l 354 818 l 203 1040 z "},"ú":{"ha":811,"x_min":52,"x_max":756,"o":"m 615 766 l 756 766 l 756 0 l 615 0 l 615 221 q 575 120 601 165 q 513 44 549 75 q 430 -4 476 13 q 331 -21 384 -21 q 214 4 265 -21 q 126 75 162 29 q 71 188 90 122 q 52 338 52 254 l 52 766 l 193 766 l 193 338 q 242 164 193 223 q 389 106 291 106 q 484 123 442 106 q 555 171 526 139 q 599 248 584 202 q 615 351 615 293 l 615 766 m 604 1040 l 465 1040 l 356 818 l 453 818 l 604 1040 z "},"û":{"ha":811,"x_min":52,"x_max":756,"o":"m 615 766 l 756 766 l 756 0 l 615 0 l 615 221 q 575 120 601 165 q 513 44 549 75 q 430 -4 476 13 q 331 -21 384 -21 q 214 4 265 -21 q 126 75 162 29 q 71 188 90 122 q 52 338 52 254 l 52 766 l 193 766 l 193 338 q 242 164 193 223 q 389 106 291 106 q 484 123 442 106 q 555 171 526 139 q 599 248 584 202 q 615 351 615 293 l 615 766 m 475 818 l 405 959 l 333 818 l 243 818 l 341 1040 l 466 1040 l 565 818 l 475 818 z "},"ü":{"ha":811,"x_min":52,"x_max":756,"o":"m 615 766 l 756 766 l 756 0 l 615 0 l 615 221 q 575 120 601 165 q 513 44 549 75 q 430 -4 476 13 q 331 -21 384 -21 q 214 4 265 -21 q 126 75 162 29 q 71 188 90 122 q 52 338 52 254 l 52 766 l 193 766 l 193 338 q 242 164 193 223 q 389 106 291 106 q 484 123 442 106 q 555 171 526 139 q 599 248 584 202 q 615 351 615 293 l 615 766 m 371 843 l 229 843 l 229 993 l 371 993 l 371 843 m 578 843 l 437 843 l 437 993 l 578 993 l 578 843 z "},"ý":{"ha":803,"x_min":19,"x_max":784,"o":"m 784 766 l 467 -48 q 412 -154 443 -109 q 339 -227 380 -198 q 247 -270 298 -256 q 134 -284 196 -284 q 70 -280 100 -284 l 70 -157 q 104 -161 88 -160 q 134 -162 120 -162 q 197 -155 169 -162 q 247 -135 225 -149 q 286 -99 269 -121 q 313 -48 302 -78 l 323 -23 l 19 766 l 165 766 l 402 128 l 642 766 l 784 766 m 602 1019 l 463 1019 l 354 797 l 451 797 l 602 1019 z "},"ÿ":{"ha":803,"x_min":19,"x_max":784,"o":"m 784 766 l 467 -48 q 412 -154 443 -109 q 339 -227 380 -198 q 247 -270 298 -256 q 134 -284 196 -284 q 70 -280 100 -284 l 70 -157 q 104 -161 88 -160 q 134 -162 120 -162 q 197 -155 169 -162 q 247 -135 225 -149 q 286 -99 269 -121 q 313 -48 302 -78 l 323 -23 l 19 766 l 165 766 l 402 128 l 642 766 l 784 766 m 369 823 l 227 823 l 227 973 l 369 973 l 369 823 m 576 823 l 435 823 l 435 973 l 576 973 l 576 823 z "},"ž":{"ha":734,"x_min":40,"x_max":694,"o":"m 200 118 l 694 118 l 694 0 l 40 0 l 40 126 l 508 647 l 53 647 l 53 766 l 667 766 l 667 639 l 200 118 m 427 797 l 303 797 l 204 1019 l 294 1019 l 366 877 l 436 1019 l 526 1019 l 427 797 z "},"Ā":{"ha":978,"x_min":12,"x_max":966,"o":"m 12 0 l 382 993 l 601 993 l 966 0 l 811 0 l 721 249 l 256 249 l 164 0 l 12 0 m 673 381 l 490 883 l 304 381 l 673 381 m 670 1089 l 309 1089 l 309 1186 l 670 1186 l 670 1089 z "},"ā":{"ha":822,"x_min":35,"x_max":769,"o":"m 57 499 q 82 618 57 565 q 151 709 106 671 q 261 766 197 746 q 406 786 326 786 q 558 764 491 786 q 673 698 626 741 q 744 594 719 656 q 769 454 769 532 l 769 0 l 629 0 l 629 206 q 587 111 615 153 q 518 40 558 69 q 426 -5 477 10 q 314 -21 374 -21 q 199 -4 251 -21 q 111 43 148 13 q 55 115 75 73 q 35 210 35 158 q 55 305 35 263 q 115 376 76 347 q 209 421 153 405 q 333 436 264 436 l 629 436 l 629 454 q 613 539 629 501 q 568 604 597 577 q 497 645 539 631 q 403 659 456 659 q 312 648 350 659 q 248 615 273 636 q 210 565 223 594 q 198 499 198 535 l 57 499 m 332 318 q 214 292 254 318 q 174 215 174 266 q 185 166 174 188 q 219 131 197 145 q 275 109 242 117 q 351 102 308 102 q 463 116 413 102 q 551 157 514 131 q 608 219 588 183 q 629 297 629 255 l 629 318 l 332 318 m 586 861 l 225 861 l 225 958 l 586 958 l 586 861 z "},"Ă":{"ha":978,"x_min":12,"x_max":966,"o":"m 12 0 l 382 993 l 601 993 l 966 0 l 811 0 l 721 249 l 256 249 l 164 0 l 12 0 m 673 381 l 490 883 l 304 381 l 673 381 m 402 1249 q 425 1165 402 1195 q 489 1136 447 1136 q 553 1165 531 1136 q 575 1249 575 1195 l 662 1249 q 651 1162 662 1200 q 618 1098 640 1124 q 563 1059 595 1072 q 489 1045 531 1045 q 415 1059 447 1045 q 360 1098 382 1072 q 327 1162 338 1124 q 316 1249 316 1200 l 402 1249 z "},"ă":{"ha":822,"x_min":35,"x_max":769,"o":"m 57 499 q 82 618 57 565 q 151 709 106 671 q 261 766 197 746 q 406 786 326 786 q 558 764 491 786 q 673 698 626 741 q 744 594 719 656 q 769 454 769 532 l 769 0 l 629 0 l 629 206 q 587 111 615 153 q 518 40 558 69 q 426 -5 477 10 q 314 -21 374 -21 q 199 -4 251 -21 q 111 43 148 13 q 55 115 75 73 q 35 210 35 158 q 55 305 35 263 q 115 376 76 347 q 209 421 153 405 q 333 436 264 436 l 629 436 l 629 454 q 613 539 629 501 q 568 604 597 577 q 497 645 539 631 q 403 659 456 659 q 312 648 350 659 q 248 615 273 636 q 210 565 223 594 q 198 499 198 535 l 57 499 m 332 318 q 214 292 254 318 q 174 215 174 266 q 185 166 174 188 q 219 131 197 145 q 275 109 242 117 q 351 102 308 102 q 463 116 413 102 q 551 157 514 131 q 608 219 588 183 q 629 297 629 255 l 629 318 l 332 318 m 319 1022 q 341 938 319 968 q 406 908 364 908 q 470 938 447 908 q 492 1022 492 968 l 579 1022 q 568 934 579 972 q 534 870 556 896 q 480 831 512 844 q 406 818 448 818 q 331 831 364 818 q 277 870 299 844 q 244 934 255 896 q 232 1022 232 972 l 319 1022 z "},"Ą":{"ha":978,"x_min":12,"x_max":968,"o":"m 12 0 l 382 993 l 601 993 l 966 0 l 811 0 l 721 249 l 256 249 l 164 0 l 12 0 m 673 381 l 490 883 l 304 381 l 673 381 m 966 0 q 909 -9 937 0 q 858 -31 881 -17 q 821 -62 835 -45 q 807 -98 807 -80 q 834 -134 807 -121 q 907 -148 860 -148 q 936 -146 920 -148 q 968 -143 951 -145 l 968 -240 q 931 -244 949 -242 q 896 -245 912 -245 q 826 -237 858 -245 q 772 -214 795 -229 q 737 -178 750 -199 q 725 -132 725 -157 q 743 -75 725 -101 q 792 -29 760 -48 q 866 2 823 -9 q 960 14 909 13 l 966 0 z "},"ą":{"ha":822,"x_min":35,"x_max":771,"o":"m 57 499 q 82 618 57 565 q 151 709 106 671 q 261 766 197 746 q 406 786 326 786 q 558 764 491 786 q 673 698 626 741 q 744 594 719 656 q 769 454 769 532 l 769 0 l 629 0 l 629 206 q 587 111 615 153 q 518 40 558 69 q 426 -5 477 10 q 314 -21 374 -21 q 199 -4 251 -21 q 111 43 148 13 q 55 115 75 73 q 35 210 35 158 q 55 305 35 263 q 115 376 76 347 q 209 421 153 405 q 333 436 264 436 l 629 436 l 629 454 q 613 539 629 501 q 568 604 597 577 q 497 645 539 631 q 403 659 456 659 q 312 648 350 659 q 248 615 273 636 q 210 565 223 594 q 198 499 198 535 l 57 499 m 332 318 q 214 292 254 318 q 174 215 174 266 q 185 166 174 188 q 219 131 197 145 q 275 109 242 117 q 351 102 308 102 q 463 116 413 102 q 551 157 514 131 q 608 219 588 183 q 629 297 629 255 l 629 318 l 332 318 m 769 0 q 712 -9 740 0 q 661 -31 684 -17 q 624 -62 639 -45 q 610 -98 610 -80 q 637 -134 610 -121 q 710 -148 663 -148 q 739 -146 724 -148 q 771 -143 754 -145 l 771 -240 q 734 -244 752 -242 q 699 -245 715 -245 q 629 -237 661 -245 q 575 -214 598 -229 q 540 -178 553 -199 q 528 -132 528 -157 q 546 -75 528 -101 q 595 -29 564 -48 q 669 2 626 -9 q 763 14 712 13 l 769 0 z "},"Ć":{"ha":1019,"x_min":49,"x_max":963,"o":"m 194 497 q 216 336 194 407 q 280 216 239 265 q 382 141 322 167 q 517 115 442 115 q 716 184 639 115 q 817 385 792 252 l 963 385 q 909 215 948 290 q 814 87 871 140 q 681 7 756 35 q 517 -21 606 -21 q 385 -4 447 -21 q 272 45 324 13 q 178 122 220 77 q 108 226 137 168 q 64 351 79 283 q 49 497 49 420 q 64 642 49 574 q 108 768 79 710 q 178 871 137 825 q 272 948 220 916 q 385 997 324 980 q 517 1014 447 1014 q 681 986 606 1014 q 814 906 756 958 q 909 778 871 853 q 963 608 948 703 l 817 608 q 716 810 792 741 q 517 878 639 878 q 382 852 442 878 q 280 777 322 826 q 216 657 239 728 q 194 497 194 586 m 717 1267 l 578 1267 l 469 1045 l 567 1045 l 717 1267 z "},"ć":{"ha":805,"x_min":38,"x_max":766,"o":"m 179 383 q 195 268 179 319 q 241 180 211 216 q 315 125 272 144 q 413 106 359 106 q 497 120 460 106 q 560 160 533 135 q 602 218 586 184 q 626 289 619 251 l 766 289 q 747 205 761 245 q 710 131 732 165 q 658 69 688 97 q 590 21 628 41 q 509 -10 553 1 q 413 -21 464 -21 q 307 -8 357 -21 q 216 30 257 5 q 141 90 174 55 q 85 171 108 126 q 50 269 63 216 q 38 383 38 323 q 50 497 38 443 q 85 595 63 550 q 141 676 108 640 q 216 736 174 711 q 307 773 257 760 q 413 786 357 786 q 509 776 464 786 q 591 745 553 765 q 658 697 628 725 q 710 635 688 669 q 747 560 732 600 q 766 477 761 520 l 626 477 q 603 548 619 515 q 560 606 586 581 q 497 645 534 631 q 413 659 460 659 q 315 640 359 659 q 241 585 272 621 q 195 498 211 550 q 179 383 179 447 m 613 1041 l 474 1041 l 365 819 l 462 819 l 613 1041 z "},"Ĉ":{"ha":1019,"x_min":49,"x_max":963,"o":"m 194 497 q 216 336 194 407 q 280 216 239 265 q 382 141 322 167 q 517 115 442 115 q 716 184 639 115 q 817 385 792 252 l 963 385 q 909 215 948 290 q 814 87 871 140 q 681 7 756 35 q 517 -21 606 -21 q 385 -4 447 -21 q 272 45 324 13 q 178 122 220 77 q 108 226 137 168 q 64 351 79 283 q 49 497 49 420 q 64 642 49 574 q 108 768 79 710 q 178 871 137 825 q 272 948 220 916 q 385 997 324 980 q 517 1014 447 1014 q 681 986 606 1014 q 814 906 756 958 q 909 778 871 853 q 963 608 948 703 l 817 608 q 716 810 792 741 q 517 878 639 878 q 382 852 442 878 q 280 777 322 826 q 216 657 239 728 q 194 497 194 586 m 588 1045 l 518 1187 l 446 1045 l 356 1045 l 454 1267 l 579 1267 l 678 1045 l 588 1045 z "},"ĉ":{"ha":805,"x_min":38,"x_max":766,"o":"m 179 383 q 195 268 179 319 q 241 180 211 216 q 315 125 272 144 q 413 106 359 106 q 497 120 460 106 q 560 160 533 135 q 602 218 586 184 q 626 289 619 251 l 766 289 q 747 205 761 245 q 710 131 732 165 q 658 69 688 97 q 590 21 628 41 q 509 -10 553 1 q 413 -21 464 -21 q 307 -8 357 -21 q 216 30 257 5 q 141 90 174 55 q 85 171 108 126 q 50 269 63 216 q 38 383 38 323 q 50 497 38 443 q 85 595 63 550 q 141 676 108 640 q 216 736 174 711 q 307 773 257 760 q 413 786 357 786 q 509 776 464 786 q 591 745 553 765 q 658 697 628 725 q 710 635 688 669 q 747 560 732 600 q 766 477 761 520 l 626 477 q 603 548 619 515 q 560 606 586 581 q 497 645 534 631 q 413 659 460 659 q 315 640 359 659 q 241 585 272 621 q 195 498 211 550 q 179 383 179 447 m 483 819 l 414 961 l 342 819 l 251 819 l 350 1041 l 475 1041 l 574 819 l 483 819 z "},"Ċ":{"ha":1019,"x_min":49,"x_max":963,"o":"m 194 497 q 216 336 194 407 q 280 216 239 265 q 382 141 322 167 q 517 115 442 115 q 716 184 639 115 q 817 385 792 252 l 963 385 q 909 215 948 290 q 814 87 871 140 q 681 7 756 35 q 517 -21 606 -21 q 385 -4 447 -21 q 272 45 324 13 q 178 122 220 77 q 108 226 137 168 q 64 351 79 283 q 49 497 49 420 q 64 642 49 574 q 108 768 79 710 q 178 871 137 825 q 272 948 220 916 q 385 997 324 980 q 517 1014 447 1014 q 681 986 606 1014 q 814 906 756 958 q 909 778 871 853 q 963 608 948 703 l 817 608 q 716 810 792 741 q 517 878 639 878 q 382 852 442 878 q 280 777 322 826 q 216 657 239 728 q 194 497 194 586 m 588 1071 l 446 1071 l 446 1221 l 588 1221 l 588 1071 z "},"ċ":{"ha":805,"x_min":38,"x_max":766,"o":"m 179 383 q 195 268 179 319 q 241 180 211 216 q 315 125 272 144 q 413 106 359 106 q 497 120 460 106 q 560 160 533 135 q 602 218 586 184 q 626 289 619 251 l 766 289 q 747 205 761 245 q 710 131 732 165 q 658 69 688 97 q 590 21 628 41 q 509 -10 553 1 q 413 -21 464 -21 q 307 -8 357 -21 q 216 30 257 5 q 141 90 174 55 q 85 171 108 126 q 50 269 63 216 q 38 383 38 323 q 50 497 38 443 q 85 595 63 550 q 141 676 108 640 q 216 736 174 711 q 307 773 257 760 q 413 786 357 786 q 509 776 464 786 q 591 745 553 765 q 658 697 628 725 q 710 635 688 669 q 747 560 732 600 q 766 477 761 520 l 626 477 q 603 548 619 515 q 560 606 586 581 q 497 645 534 631 q 413 659 460 659 q 315 640 359 659 q 241 585 272 621 q 195 498 211 550 q 179 383 179 447 m 483 845 l 342 845 l 342 995 l 483 995 l 483 845 z "},"Č":{"ha":1019,"x_min":49,"x_max":963,"o":"m 194 497 q 216 336 194 407 q 280 216 239 265 q 382 141 322 167 q 517 115 442 115 q 716 184 639 115 q 817 385 792 252 l 963 385 q 909 215 948 290 q 814 87 871 140 q 681 7 756 35 q 517 -21 606 -21 q 385 -4 447 -21 q 272 45 324 13 q 178 122 220 77 q 108 226 137 168 q 64 351 79 283 q 49 497 49 420 q 64 642 49 574 q 108 768 79 710 q 178 871 137 825 q 272 948 220 916 q 385 997 324 980 q 517 1014 447 1014 q 681 986 606 1014 q 814 906 756 958 q 909 778 871 853 q 963 608 948 703 l 817 608 q 716 810 792 741 q 517 878 639 878 q 382 852 442 878 q 280 777 322 826 q 216 657 239 728 q 194 497 194 586 m 580 1045 l 456 1045 l 357 1267 l 447 1267 l 519 1125 l 589 1267 l 679 1267 l 580 1045 z "},"č":{"ha":805,"x_min":38,"x_max":766,"o":"m 179 383 q 195 268 179 319 q 241 180 211 216 q 315 125 272 144 q 413 106 359 106 q 497 120 460 106 q 560 160 533 135 q 602 218 586 184 q 626 289 619 251 l 766 289 q 747 205 761 245 q 710 131 732 165 q 658 69 688 97 q 590 21 628 41 q 509 -10 553 1 q 413 -21 464 -21 q 307 -8 357 -21 q 216 30 257 5 q 141 90 174 55 q 85 171 108 126 q 50 269 63 216 q 38 383 38 323 q 50 497 38 443 q 85 595 63 550 q 141 676 108 640 q 216 736 174 711 q 307 773 257 760 q 413 786 357 786 q 509 776 464 786 q 591 745 553 765 q 658 697 628 725 q 710 635 688 669 q 747 560 732 600 q 766 477 761 520 l 626 477 q 603 548 619 515 q 560 606 586 581 q 497 645 534 631 q 413 659 460 659 q 315 640 359 659 q 241 585 272 621 q 195 498 211 550 q 179 383 179 447 m 476 819 l 351 819 l 253 1041 l 343 1041 l 415 899 l 484 1041 l 575 1041 l 476 819 z "},"Ď":{"ha":944,"x_min":59,"x_max":896,"o":"m 59 993 l 386 993 q 530 977 463 993 q 654 931 598 961 q 756 857 711 900 q 832 758 801 813 q 879 637 863 703 q 896 497 896 571 q 879 356 896 422 q 832 235 863 290 q 756 136 801 180 q 654 63 711 93 q 530 16 598 32 q 386 0 463 0 l 59 0 l 59 993 m 386 135 q 538 160 471 135 q 653 232 606 185 q 725 345 700 278 q 750 497 750 412 q 725 648 750 581 q 653 761 700 715 q 538 833 606 808 q 386 858 471 858 l 201 858 l 201 135 l 386 135 m 449 1045 l 325 1045 l 226 1267 l 316 1267 l 388 1125 l 458 1267 l 548 1267 l 449 1045 z "},"ď":{"ha":842,"x_min":38,"x_max":1002,"o":"m 787 1028 l 787 0 l 646 0 l 646 236 q 605 130 631 177 q 541 49 578 82 q 460 -3 505 15 q 362 -21 414 -21 q 273 -7 315 -21 q 194 32 230 6 q 129 93 158 57 q 80 174 100 129 q 49 271 60 218 q 38 383 38 324 q 49 494 38 442 q 80 592 60 547 q 129 673 100 637 q 194 734 158 709 q 273 773 230 759 q 362 786 315 786 q 460 768 414 786 q 541 717 505 750 q 605 636 578 684 q 646 530 631 589 l 646 1028 l 787 1028 m 646 383 q 630 501 646 449 q 583 589 614 552 q 509 644 553 625 q 410 663 465 663 q 311 645 354 663 q 238 591 267 626 q 194 503 209 556 q 179 383 179 451 q 194 263 179 315 q 238 175 209 210 q 311 121 268 139 q 410 103 354 103 q 509 122 465 103 q 583 177 553 141 q 630 265 614 214 q 646 383 646 317 m 944 698 l 836 698 l 864 1028 l 1002 1028 l 944 698 z "},"Ē":{"ha":773,"x_min":59,"x_max":744,"o":"m 730 993 l 730 858 l 205 858 l 205 563 l 688 563 l 688 428 l 205 428 l 205 135 l 744 135 l 744 0 l 59 0 l 59 993 l 730 993 m 577 1089 l 216 1089 l 216 1186 l 577 1186 l 577 1089 z "},"ē":{"ha":808,"x_min":38,"x_max":769,"o":"m 766 254 q 719 139 751 190 q 643 52 688 88 q 539 -2 597 17 q 414 -21 482 -21 q 308 -8 358 -21 q 217 30 259 6 q 142 91 175 55 q 86 171 109 126 q 50 270 63 216 q 38 384 38 324 q 50 498 38 444 q 85 595 63 551 q 141 676 108 640 q 215 736 173 711 q 305 773 256 760 q 410 786 355 786 q 559 758 492 786 q 672 678 625 730 q 744 552 719 626 q 769 386 769 478 q 769 360 769 373 q 767 332 768 347 l 182 332 q 207 237 188 279 q 256 166 226 195 q 327 122 286 137 q 418 106 368 106 q 546 143 494 106 q 625 254 597 180 l 766 254 m 624 453 q 600 541 617 503 q 555 606 582 580 q 492 646 528 632 q 411 659 456 659 q 327 645 365 659 q 260 605 289 631 q 211 540 231 578 q 184 453 192 501 l 624 453 m 591 861 l 230 861 l 230 958 l 591 958 l 591 861 z "},"Ĕ":{"ha":773,"x_min":59,"x_max":744,"o":"m 730 993 l 730 858 l 205 858 l 205 563 l 688 563 l 688 428 l 205 428 l 205 135 l 744 135 l 744 0 l 59 0 l 59 993 l 730 993 m 310 1249 q 332 1165 310 1195 q 397 1136 355 1136 q 461 1165 438 1136 q 483 1249 483 1195 l 570 1249 q 559 1162 570 1200 q 525 1098 547 1124 q 471 1059 503 1072 q 397 1045 439 1045 q 322 1059 355 1045 q 268 1098 290 1072 q 235 1162 246 1124 q 223 1249 223 1200 l 310 1249 z "},"ĕ":{"ha":808,"x_min":38,"x_max":769,"o":"m 766 254 q 719 139 751 190 q 643 52 688 88 q 539 -2 597 17 q 414 -21 482 -21 q 308 -8 358 -21 q 217 30 259 6 q 142 91 175 55 q 86 171 109 126 q 50 270 63 216 q 38 384 38 324 q 50 498 38 444 q 85 595 63 551 q 141 676 108 640 q 215 736 173 711 q 305 773 256 760 q 410 786 355 786 q 559 758 492 786 q 672 678 625 730 q 744 552 719 626 q 769 386 769 478 q 769 360 769 373 q 767 332 768 347 l 182 332 q 207 237 188 279 q 256 166 226 195 q 327 122 286 137 q 418 106 368 106 q 546 143 494 106 q 625 254 597 180 l 766 254 m 624 453 q 600 541 617 503 q 555 606 582 580 q 492 646 528 632 q 411 659 456 659 q 327 645 365 659 q 260 605 289 631 q 211 540 231 578 q 184 453 192 501 l 624 453 m 324 1022 q 346 938 324 968 q 410 908 368 908 q 474 938 452 908 q 497 1022 497 968 l 583 1022 q 572 934 583 972 q 539 870 561 896 q 484 831 517 844 q 410 818 452 818 q 336 831 368 818 q 281 870 303 844 q 248 934 259 896 q 237 1022 237 972 l 324 1022 z "},"Ė":{"ha":773,"x_min":59,"x_max":744,"o":"m 730 993 l 730 858 l 205 858 l 205 563 l 688 563 l 688 428 l 205 428 l 205 135 l 744 135 l 744 0 l 59 0 l 59 993 l 730 993 m 468 1071 l 326 1071 l 326 1221 l 468 1221 l 468 1071 z "},"ė":{"ha":808,"x_min":38,"x_max":769,"o":"m 766 254 q 719 139 751 190 q 643 52 688 88 q 539 -2 597 17 q 414 -21 482 -21 q 308 -8 358 -21 q 217 30 259 6 q 142 91 175 55 q 86 171 109 126 q 50 270 63 216 q 38 384 38 324 q 50 498 38 444 q 85 595 63 551 q 141 676 108 640 q 215 736 173 711 q 305 773 256 760 q 410 786 355 786 q 559 758 492 786 q 672 678 625 730 q 744 552 719 626 q 769 386 769 478 q 769 360 769 373 q 767 332 768 347 l 182 332 q 207 237 188 279 q 256 166 226 195 q 327 122 286 137 q 418 106 368 106 q 546 143 494 106 q 625 254 597 180 l 766 254 m 624 453 q 600 541 617 503 q 555 606 582 580 q 492 646 528 632 q 411 659 456 659 q 327 645 365 659 q 260 605 289 631 q 211 540 231 578 q 184 453 192 501 l 624 453 m 481 843 l 339 843 l 339 993 l 481 993 l 481 843 z "},"Ę":{"ha":773,"x_min":59,"x_max":745,"o":"m 730 993 l 730 858 l 205 858 l 205 563 l 688 563 l 688 428 l 205 428 l 205 135 l 744 135 l 744 0 l 59 0 l 59 993 l 730 993 m 743 0 q 686 -9 715 0 q 635 -31 658 -17 q 599 -62 613 -45 q 585 -98 585 -80 q 611 -134 585 -121 q 685 -148 637 -148 q 713 -146 698 -148 q 745 -143 728 -145 l 745 -240 q 708 -244 727 -242 q 674 -245 690 -245 q 604 -237 635 -245 q 550 -214 572 -229 q 515 -178 527 -199 q 502 -132 502 -157 q 520 -75 502 -101 q 569 -29 538 -48 q 643 2 600 -9 q 737 14 686 13 l 743 0 z "},"ę":{"ha":808,"x_min":38,"x_max":769,"o":"m 766 254 q 719 139 751 190 q 643 52 688 88 q 539 -2 597 17 q 414 -21 482 -21 q 308 -8 358 -21 q 217 30 259 6 q 142 91 175 55 q 86 171 109 126 q 50 270 63 216 q 38 384 38 324 q 50 498 38 444 q 85 595 63 551 q 141 676 108 640 q 215 736 173 711 q 305 773 256 760 q 410 786 355 786 q 559 758 492 786 q 672 678 625 730 q 744 552 719 626 q 769 386 769 478 q 769 360 769 373 q 767 332 768 347 l 182 332 q 207 237 188 279 q 256 166 226 195 q 327 122 286 137 q 418 106 368 106 q 546 143 494 106 q 625 254 597 180 l 766 254 m 624 453 q 600 541 617 503 q 555 606 582 580 q 492 646 528 632 q 411 659 456 659 q 327 645 365 659 q 260 605 289 631 q 211 540 231 578 q 184 453 192 501 l 624 453 m 638 53 q 594 18 614 37 q 560 -21 574 -1 q 539 -60 546 -40 q 531 -96 531 -79 q 559 -146 531 -130 q 641 -161 588 -161 q 674 -160 657 -161 q 709 -156 691 -159 l 709 -253 q 669 -257 690 -256 q 632 -259 649 -259 q 556 -250 590 -259 q 498 -225 522 -241 q 462 -185 475 -209 q 449 -132 449 -162 q 630 68 449 -22 l 638 53 z "},"Ě":{"ha":773,"x_min":59,"x_max":744,"o":"m 730 993 l 730 858 l 205 858 l 205 563 l 688 563 l 688 428 l 205 428 l 205 135 l 744 135 l 744 0 l 59 0 l 59 993 l 730 993 m 460 1045 l 336 1045 l 237 1267 l 327 1267 l 399 1125 l 469 1267 l 559 1267 l 460 1045 z "},"ě":{"ha":808,"x_min":38,"x_max":769,"o":"m 766 254 q 719 139 751 190 q 643 52 688 88 q 539 -2 597 17 q 414 -21 482 -21 q 308 -8 358 -21 q 217 30 259 6 q 142 91 175 55 q 86 171 109 126 q 50 270 63 216 q 38 384 38 324 q 50 498 38 444 q 85 595 63 551 q 141 676 108 640 q 215 736 173 711 q 305 773 256 760 q 410 786 355 786 q 559 758 492 786 q 672 678 625 730 q 744 552 719 626 q 769 386 769 478 q 769 360 769 373 q 767 332 768 347 l 182 332 q 207 237 188 279 q 256 166 226 195 q 327 122 286 137 q 418 106 368 106 q 546 143 494 106 q 625 254 597 180 l 766 254 m 624 453 q 600 541 617 503 q 555 606 582 580 q 492 646 528 632 q 411 659 456 659 q 327 645 365 659 q 260 605 289 631 q 211 540 231 578 q 184 453 192 501 l 624 453 m 474 818 l 349 818 l 250 1040 l 341 1040 l 413 898 l 482 1040 l 573 1040 l 474 818 z "},"Ĝ":{"ha":1034,"x_min":49,"x_max":975,"o":"m 194 497 q 215 336 194 407 q 276 215 236 265 q 374 139 316 166 q 506 113 432 113 q 594 123 552 113 q 672 151 636 133 q 738 195 708 169 q 789 253 767 221 q 822 322 810 284 q 836 399 834 359 l 493 399 l 493 531 l 975 531 l 975 0 l 836 0 l 836 280 q 784 157 819 212 q 702 62 750 101 q 594 1 654 22 q 466 -21 534 -21 q 350 -3 405 -21 q 249 47 295 14 q 166 125 203 79 q 102 229 128 172 q 63 354 76 286 q 49 497 49 422 q 64 642 49 574 q 108 768 79 710 q 178 871 137 825 q 272 948 219 916 q 385 997 324 980 q 517 1014 447 1014 q 676 988 602 1014 q 809 915 751 963 q 907 801 867 868 q 962 649 946 733 l 816 649 q 777 747 803 704 q 711 819 750 790 q 624 863 673 848 q 517 878 575 878 q 382 852 442 878 q 280 777 322 826 q 216 657 239 728 q 194 497 194 586 m 588 1045 l 518 1187 l 446 1045 l 356 1045 l 454 1267 l 579 1267 l 678 1045 l 588 1045 z "},"ĝ":{"ha":849,"x_min":38,"x_max":794,"o":"m 794 766 l 794 139 q 781 20 794 76 q 744 -83 768 -36 q 685 -167 720 -130 q 607 -231 651 -205 q 512 -270 564 -257 q 401 -284 460 -284 q 303 -273 350 -284 q 215 -243 256 -263 q 142 -197 175 -224 q 86 -135 110 -169 q 51 -62 63 -101 q 38 21 38 -22 l 179 21 q 196 -51 179 -17 q 244 -109 214 -84 q 314 -148 274 -134 q 401 -162 355 -162 q 505 -141 458 -162 q 584 -80 551 -119 q 635 15 617 -40 q 653 139 653 71 l 653 260 q 611 158 638 203 q 547 80 584 113 q 464 31 510 48 q 365 14 418 14 q 277 27 319 14 q 200 64 235 40 q 136 123 164 88 q 87 200 107 157 q 56 294 67 243 q 45 400 45 344 q 56 507 45 457 q 87 601 67 558 q 136 678 107 643 q 200 736 164 712 q 277 773 235 760 q 365 786 319 786 q 464 769 418 786 q 547 720 510 752 q 611 642 584 688 q 653 541 638 597 l 653 766 l 794 766 m 653 400 q 637 511 653 462 q 590 593 620 559 q 514 645 559 627 q 413 663 470 663 q 316 646 358 663 q 245 595 274 629 q 201 513 216 562 q 186 400 186 464 q 201 288 186 336 q 245 205 216 239 q 316 155 274 172 q 413 138 358 138 q 514 156 470 138 q 590 207 559 174 q 637 290 620 241 q 653 400 653 339 m 515 818 l 445 959 l 373 818 l 283 818 l 382 1040 l 507 1040 l 605 818 l 515 818 z "},"Ğ":{"ha":1034,"x_min":49,"x_max":975,"o":"m 194 497 q 215 336 194 407 q 276 215 236 265 q 374 139 316 166 q 506 113 432 113 q 594 123 552 113 q 672 151 636 133 q 738 195 708 169 q 789 253 767 221 q 822 322 810 284 q 836 399 834 359 l 493 399 l 493 531 l 975 531 l 975 0 l 836 0 l 836 280 q 784 157 819 212 q 702 62 750 101 q 594 1 654 22 q 466 -21 534 -21 q 350 -3 405 -21 q 249 47 295 14 q 166 125 203 79 q 102 229 128 172 q 63 354 76 286 q 49 497 49 422 q 64 642 49 574 q 108 768 79 710 q 178 871 137 825 q 272 948 219 916 q 385 997 324 980 q 517 1014 447 1014 q 676 988 602 1014 q 809 915 751 963 q 907 801 867 868 q 962 649 946 733 l 816 649 q 777 747 803 704 q 711 819 750 790 q 624 863 673 848 q 517 878 575 878 q 382 852 442 878 q 280 777 322 826 q 216 657 239 728 q 194 497 194 586 m 430 1249 q 452 1165 430 1195 q 516 1136 475 1136 q 580 1165 558 1136 q 603 1249 603 1195 l 690 1249 q 678 1162 690 1200 q 645 1098 667 1124 q 591 1059 623 1072 q 516 1045 558 1045 q 442 1059 474 1045 q 388 1098 410 1072 q 354 1162 366 1124 q 343 1249 343 1200 l 430 1249 z "},"ğ":{"ha":849,"x_min":38,"x_max":794,"o":"m 794 766 l 794 139 q 781 20 794 76 q 744 -83 768 -36 q 685 -167 720 -130 q 607 -231 651 -205 q 512 -270 564 -257 q 401 -284 460 -284 q 303 -273 350 -284 q 215 -243 256 -263 q 142 -197 175 -224 q 86 -135 110 -169 q 51 -62 63 -101 q 38 21 38 -22 l 179 21 q 196 -51 179 -17 q 244 -109 214 -84 q 314 -148 274 -134 q 401 -162 355 -162 q 505 -141 458 -162 q 584 -80 551 -119 q 635 15 617 -40 q 653 139 653 71 l 653 260 q 611 158 638 203 q 547 80 584 113 q 464 31 510 48 q 365 14 418 14 q 277 27 319 14 q 200 64 235 40 q 136 123 164 88 q 87 200 107 157 q 56 294 67 243 q 45 400 45 344 q 56 507 45 457 q 87 601 67 558 q 136 678 107 643 q 200 736 164 712 q 277 773 235 760 q 365 786 319 786 q 464 769 418 786 q 547 720 510 752 q 611 642 584 688 q 653 541 638 597 l 653 766 l 794 766 m 653 400 q 637 511 653 462 q 590 593 620 559 q 514 645 559 627 q 413 663 470 663 q 316 646 358 663 q 245 595 274 629 q 201 513 216 562 q 186 400 186 464 q 201 288 186 336 q 245 205 216 239 q 316 155 274 172 q 413 138 358 138 q 514 156 470 138 q 590 207 559 174 q 637 290 620 241 q 653 400 653 339 m 357 1022 q 380 938 357 968 q 444 908 402 908 q 508 938 485 908 q 530 1022 530 968 l 617 1022 q 606 934 617 972 q 572 870 594 896 q 518 831 550 844 q 444 818 486 818 q 369 831 402 818 q 315 870 337 844 q 282 934 293 896 q 270 1022 270 972 l 357 1022 z "},"Ġ":{"ha":1034,"x_min":49,"x_max":975,"o":"m 194 497 q 215 336 194 407 q 276 215 236 265 q 374 139 316 166 q 506 113 432 113 q 594 123 552 113 q 672 151 636 133 q 738 195 708 169 q 789 253 767 221 q 822 322 810 284 q 836 399 834 359 l 493 399 l 493 531 l 975 531 l 975 0 l 836 0 l 836 280 q 784 157 819 212 q 702 62 750 101 q 594 1 654 22 q 466 -21 534 -21 q 350 -3 405 -21 q 249 47 295 14 q 166 125 203 79 q 102 229 128 172 q 63 354 76 286 q 49 497 49 422 q 64 642 49 574 q 108 768 79 710 q 178 871 137 825 q 272 948 219 916 q 385 997 324 980 q 517 1014 447 1014 q 676 988 602 1014 q 809 915 751 963 q 907 801 867 868 q 962 649 946 733 l 816 649 q 777 747 803 704 q 711 819 750 790 q 624 863 673 848 q 517 878 575 878 q 382 852 442 878 q 280 777 322 826 q 216 657 239 728 q 194 497 194 586 m 588 1071 l 446 1071 l 446 1221 l 588 1221 l 588 1071 z "},"ġ":{"ha":849,"x_min":38,"x_max":794,"o":"m 794 766 l 794 139 q 781 20 794 76 q 744 -83 768 -36 q 685 -167 720 -130 q 607 -231 651 -205 q 512 -270 564 -257 q 401 -284 460 -284 q 303 -273 350 -284 q 215 -243 256 -263 q 142 -197 175 -224 q 86 -135 110 -169 q 51 -62 63 -101 q 38 21 38 -22 l 179 21 q 196 -51 179 -17 q 244 -109 214 -84 q 314 -148 274 -134 q 401 -162 355 -162 q 505 -141 458 -162 q 584 -80 551 -119 q 635 15 617 -40 q 653 139 653 71 l 653 260 q 611 158 638 203 q 547 80 584 113 q 464 31 510 48 q 365 14 418 14 q 277 27 319 14 q 200 64 235 40 q 136 123 164 88 q 87 200 107 157 q 56 294 67 243 q 45 400 45 344 q 56 507 45 457 q 87 601 67 558 q 136 678 107 643 q 200 736 164 712 q 277 773 235 760 q 365 786 319 786 q 464 769 418 786 q 547 720 510 752 q 611 642 584 688 q 653 541 638 597 l 653 766 l 794 766 m 653 400 q 637 511 653 462 q 590 593 620 559 q 514 645 559 627 q 413 663 470 663 q 316 646 358 663 q 245 595 274 629 q 201 513 216 562 q 186 400 186 464 q 201 288 186 336 q 245 205 216 239 q 316 155 274 172 q 413 138 358 138 q 514 156 470 138 q 590 207 559 174 q 637 290 620 241 q 653 400 653 339 m 515 843 l 373 843 l 373 993 l 515 993 l 515 843 z "},"Ģ":{"ha":1034,"x_min":49,"x_max":975,"o":"m 194 497 q 215 336 194 407 q 276 215 236 265 q 374 139 316 166 q 506 113 432 113 q 594 123 552 113 q 672 151 636 133 q 738 195 708 169 q 789 253 767 221 q 822 322 810 284 q 836 399 834 359 l 493 399 l 493 531 l 975 531 l 975 0 l 836 0 l 836 280 q 784 157 819 212 q 702 62 750 101 q 594 1 654 22 q 466 -21 534 -21 q 350 -3 405 -21 q 249 47 295 14 q 166 125 203 79 q 102 229 128 172 q 63 354 76 286 q 49 497 49 422 q 64 642 49 574 q 108 768 79 710 q 178 871 137 825 q 272 948 219 916 q 385 997 324 980 q 517 1014 447 1014 q 676 988 602 1014 q 809 915 751 963 q 907 801 867 868 q 962 649 946 733 l 816 649 q 777 747 803 704 q 711 819 750 790 q 624 863 673 848 q 517 878 575 878 q 382 852 442 878 q 280 777 322 826 q 216 657 239 728 q 194 497 194 586 m 465 -274 l 378 -274 l 406 -52 l 541 -52 l 465 -274 z "},"ģ":{"ha":849,"x_min":38,"x_max":794,"o":"m 794 766 l 794 139 q 781 20 794 76 q 744 -83 768 -36 q 685 -167 720 -130 q 607 -231 651 -205 q 512 -270 564 -257 q 401 -284 460 -284 q 303 -273 350 -284 q 215 -243 256 -263 q 142 -197 175 -224 q 86 -135 110 -169 q 51 -62 63 -101 q 38 21 38 -22 l 179 21 q 196 -51 179 -17 q 244 -109 214 -84 q 314 -148 274 -134 q 401 -162 355 -162 q 505 -141 458 -162 q 584 -80 551 -119 q 635 15 617 -40 q 653 139 653 71 l 653 260 q 611 158 638 203 q 547 80 584 113 q 464 31 510 48 q 365 14 418 14 q 277 27 319 14 q 200 64 235 40 q 136 123 164 88 q 87 200 107 157 q 56 294 67 243 q 45 400 45 344 q 56 507 45 457 q 87 601 67 558 q 136 678 107 643 q 200 736 164 712 q 277 773 235 760 q 365 786 319 786 q 464 769 418 786 q 547 720 510 752 q 611 642 584 688 q 653 541 638 597 l 653 766 l 794 766 m 653 400 q 637 511 653 462 q 590 593 620 559 q 514 645 559 627 q 413 663 470 663 q 316 646 358 663 q 245 595 274 629 q 201 513 216 562 q 186 400 186 464 q 201 288 186 336 q 245 205 216 239 q 316 155 274 172 q 413 138 358 138 q 514 156 470 138 q 590 207 559 174 q 637 290 620 241 q 653 400 653 339 m 451 1067 l 538 1067 l 511 846 l 375 846 l 451 1067 z "},"Ĥ":{"ha":944,"x_min":59,"x_max":885,"o":"m 885 0 l 740 0 l 740 428 l 205 428 l 205 0 l 59 0 l 59 993 l 205 993 l 205 563 l 740 563 l 740 993 l 885 993 l 885 0 m 543 1045 l 473 1187 l 401 1045 l 311 1045 l 410 1267 l 535 1267 l 633 1045 l 543 1045 z "},"ĥ":{"ha":811,"x_min":-36,"x_max":759,"o":"m 196 0 l 56 0 l 56 1028 l 196 1028 l 196 544 q 236 646 210 601 q 299 722 262 691 q 381 770 335 753 q 480 786 427 786 q 597 762 545 786 q 685 691 649 737 q 740 578 721 644 q 759 428 759 511 l 759 0 l 618 0 l 618 428 q 569 601 618 543 q 422 659 520 659 q 327 643 369 659 q 256 595 285 626 q 212 518 227 564 q 196 414 196 472 l 196 0 m 196 1080 l 126 1222 l 55 1080 l -36 1080 l 63 1302 l 188 1302 l 286 1080 l 196 1080 z "},"Ħ":{"ha":944,"x_min":-27,"x_max":972,"o":"m 885 0 l 740 0 l 740 428 l 205 428 l 205 0 l 59 0 l 59 993 l 205 993 l 205 563 l 740 563 l 740 993 l 885 993 l 885 0 m 972 741 l -27 741 l -27 855 l 972 855 l 972 741 z "},"ħ":{"ha":811,"x_min":-34,"x_max":759,"o":"m 196 0 l 56 0 l 56 1028 l 196 1028 l 196 544 q 236 646 210 601 q 299 722 262 691 q 381 770 335 753 q 480 786 427 786 q 597 762 545 786 q 685 691 649 737 q 740 578 721 644 q 759 428 759 511 l 759 0 l 618 0 l 618 428 q 569 601 618 543 q 422 659 520 659 q 327 643 369 659 q 256 595 285 626 q 212 518 227 564 q 196 414 196 472 l 196 0 m 442 827 l -34 827 l -34 932 l 442 932 l 442 827 z "},"Ĩ":{"ha":264,"x_min":-48,"x_max":326,"o":"m 205 0 l 59 0 l 59 993 l 205 993 l 205 0 m 326 1236 q 301 1110 326 1151 q 222 1069 275 1069 q 189 1073 204 1069 q 161 1084 174 1077 q 139 1097 149 1090 q 121 1109 129 1103 l 105 1122 q 95 1129 101 1125 q 83 1136 90 1133 q 69 1142 76 1140 q 54 1144 62 1144 q 27 1129 35 1144 q 18 1078 18 1114 l 18 1075 l -48 1075 l -48 1078 q -21 1206 -48 1163 q 61 1248 7 1248 q 91 1245 78 1248 q 116 1236 105 1241 q 136 1225 127 1231 q 151 1214 145 1219 l 168 1202 q 180 1193 173 1198 q 196 1184 188 1188 q 213 1177 204 1180 q 231 1174 222 1174 q 245 1177 239 1174 q 254 1188 250 1181 q 259 1207 257 1195 q 260 1235 260 1218 l 260 1242 l 326 1242 l 326 1236 z "},"ĩ":{"ha":297,"x_min":-32,"x_max":343,"o":"m 219 0 l 78 0 l 78 766 l 219 766 l 219 0 m 343 1009 q 317 883 343 924 q 238 842 292 842 q 205 846 220 842 q 178 856 190 850 q 155 869 165 862 q 138 882 145 876 l 122 894 q 111 902 117 898 q 99 909 106 906 q 85 915 93 913 q 70 917 78 917 q 43 902 51 917 q 34 851 34 886 l 34 848 l -32 848 l -32 851 q -4 978 -32 936 q 78 1021 23 1021 q 108 1017 94 1021 q 133 1009 122 1014 q 152 997 144 1003 q 168 986 161 991 l 184 974 q 197 966 189 970 q 212 957 204 961 q 230 949 220 952 q 247 947 239 947 q 261 950 255 947 q 270 960 267 953 q 275 979 274 968 q 277 1008 277 991 l 277 1015 l 343 1015 l 343 1009 z "},"Ī":{"ha":264,"x_min":-49,"x_max":313,"o":"m 205 0 l 59 0 l 59 993 l 205 993 l 205 0 m 313 1089 l -49 1089 l -49 1186 l 313 1186 l 313 1089 z "},"ī":{"ha":297,"x_min":-32,"x_max":329,"o":"m 219 0 l 78 0 l 78 766 l 219 766 l 219 0 m 329 861 l -32 861 l -32 958 l 329 958 l 329 861 z "},"Ĭ":{"ha":264,"x_min":-42,"x_max":305,"o":"m 205 0 l 59 0 l 59 993 l 205 993 l 205 0 m 45 1249 q 68 1165 45 1195 q 132 1136 90 1136 q 196 1165 173 1136 q 218 1249 218 1195 l 305 1249 q 294 1162 305 1200 q 260 1098 282 1124 q 206 1059 238 1072 q 132 1045 174 1045 q 57 1059 90 1045 q 3 1098 25 1072 q -30 1162 -19 1124 q -42 1249 -42 1200 l 45 1249 z "},"ĭ":{"ha":297,"x_min":-25,"x_max":322,"o":"m 219 0 l 78 0 l 78 766 l 219 766 l 219 0 m 62 1022 q 84 938 62 968 q 148 908 107 908 q 212 938 190 908 q 235 1022 235 968 l 322 1022 q 310 934 322 972 q 277 870 299 896 q 223 831 255 844 q 148 818 190 818 q 74 831 106 818 q 20 870 42 844 q -14 934 -2 896 q -25 1022 -25 972 l 62 1022 z "},"Į":{"ha":264,"x_min":-36,"x_max":207,"o":"m 205 0 l 59 0 l 59 993 l 205 993 l 205 0 m 204 0 q 147 -9 176 0 q 97 -31 119 -17 q 60 -62 74 -45 q 46 -98 46 -80 q 72 -134 46 -121 q 146 -148 98 -148 q 174 -146 159 -148 q 207 -143 190 -145 l 207 -240 q 169 -244 188 -242 q 135 -245 151 -245 q 65 -237 96 -245 q 11 -214 33 -229 q -24 -178 -12 -199 q -36 -132 -36 -157 q -19 -75 -36 -101 q 30 -29 -1 -48 q 105 2 61 -9 q 198 14 148 13 l 204 0 z "},"į":{"ha":252,"x_min":-45,"x_max":200,"o":"m 200 854 l 52 854 l 52 1028 l 200 1028 l 200 854 m 196 0 l 56 0 l 56 766 l 196 766 l 196 0 m 195 0 q 139 -9 167 0 q 88 -31 110 -17 q 51 -62 65 -45 q 37 -98 37 -80 q 63 -134 37 -121 q 137 -148 90 -148 q 166 -146 150 -148 q 198 -143 181 -145 l 198 -240 q 161 -244 179 -242 q 126 -245 142 -245 q 56 -237 88 -245 q 2 -214 25 -229 q -33 -178 -20 -199 q -45 -132 -45 -157 q -27 -75 -45 -101 q 22 -29 -10 -48 q 96 2 53 -9 q 190 14 139 13 l 195 0 z "},"İ":{"ha":264,"x_min":59,"x_max":205,"o":"m 205 0 l 59 0 l 59 993 l 205 993 l 205 0 m 203 1071 l 61 1071 l 61 1221 l 203 1221 l 203 1071 z "},"Ĳ":{"ha":1124,"x_min":59,"x_max":1065,"o":"m 205 0 l 59 0 l 59 993 l 205 993 l 205 0 m 294 434 l 440 434 l 440 375 q 457 271 440 319 q 507 188 475 223 q 582 134 539 153 q 677 115 626 115 q 774 134 730 115 q 850 189 818 154 q 901 273 883 225 q 919 378 919 322 l 919 993 l 1065 993 l 1065 378 q 1052 265 1065 318 q 1016 168 1040 212 q 959 88 993 123 q 883 29 926 53 q 789 -8 840 5 q 679 -21 738 -21 q 521 8 592 -21 q 399 88 450 36 q 321 214 349 140 q 294 378 294 288 l 294 434 z "},"ĳ":{"ha":503,"x_min":52,"x_max":451,"o":"m 200 854 l 52 854 l 52 1028 l 200 1028 l 200 854 m 196 0 l 56 0 l 56 766 l 196 766 l 196 0 m 451 854 l 304 854 l 304 1028 l 451 1028 l 451 854 m 448 31 q 375 -206 448 -127 q 155 -284 302 -284 l 132 -284 l 132 -157 l 155 -157 q 218 -147 192 -157 q 261 -122 244 -138 q 287 -87 278 -107 q 301 -46 297 -67 q 306 -5 306 -25 q 307 31 307 16 l 307 766 l 448 766 l 448 31 z "},"Ĵ":{"ha":859,"x_min":30,"x_max":890,"o":"m 30 434 l 175 434 l 175 375 q 193 271 175 319 q 243 188 211 223 q 318 134 274 153 q 413 115 362 115 q 510 134 465 115 q 586 189 554 154 q 636 273 618 225 q 655 378 655 322 l 655 993 l 800 993 l 800 378 q 788 265 800 318 q 752 168 776 212 q 695 88 729 123 q 619 29 661 53 q 524 -8 576 5 q 415 -21 473 -21 q 256 8 327 -21 q 135 88 185 36 q 57 214 84 140 q 30 378 30 288 l 30 434 m 799 1045 l 730 1187 l 658 1045 l 567 1045 l 666 1267 l 791 1267 l 890 1045 l 799 1045 z "},"ĵ":{"ha":251,"x_min":-119,"x_max":292,"o":"m 199 31 q 126 -206 199 -127 q -97 -284 52 -284 l -119 -284 l -119 -157 l -97 -157 q -32 -147 -59 -157 q 11 -122 -6 -138 q 38 -87 28 -107 q 52 -46 48 -67 q 58 -5 57 -25 q 59 31 59 16 l 59 766 l 199 766 l 199 31 m 202 818 l 132 959 l 60 818 l -30 818 l 68 1040 l 193 1040 l 292 818 l 202 818 z "},"Ķ":{"ha":935,"x_min":59,"x_max":923,"o":"m 337 486 l 923 0 l 701 0 l 205 420 l 205 0 l 59 0 l 59 993 l 205 993 l 205 541 l 680 993 l 885 993 l 337 486 m 427 -274 l 340 -274 l 367 -52 l 503 -52 l 427 -274 z "},"ķ":{"ha":800,"x_min":56,"x_max":778,"o":"m 314 374 l 778 0 l 576 0 l 196 317 l 196 0 l 56 0 l 56 1028 l 196 1028 l 196 425 l 560 766 l 741 766 l 314 374 m 356 -274 l 269 -274 l 297 -52 l 432 -52 l 356 -274 z "},"ĸ":{"ha":800,"x_min":56,"x_max":778,"o":"m 315 374 l 778 0 l 576 0 l 196 317 l 196 0 l 56 0 l 56 766 l 196 766 l 196 425 l 560 766 l 741 766 l 315 374 z "},"Ĺ":{"ha":745,"x_min":59,"x_max":716,"o":"m 205 993 l 205 135 l 716 135 l 716 0 l 59 0 l 59 993 l 205 993 m 332 1267 l 193 1267 l 84 1045 l 182 1045 l 332 1267 z "},"ĺ":{"ha":252,"x_min":56,"x_max":196,"o":"m 196 0 l 56 0 l 56 1028 l 196 1028 l 196 0 m 327 1302 l 188 1302 l 79 1080 l 176 1080 l 327 1302 z "},"Ļ":{"ha":745,"x_min":59,"x_max":716,"o":"m 205 993 l 205 135 l 716 135 l 716 0 l 59 0 l 59 993 l 205 993 m 380 -274 l 293 -274 l 320 -52 l 455 -52 l 380 -274 z "},"ļ":{"ha":252,"x_min":22,"x_max":196,"o":"m 196 0 l 56 0 l 56 1028 l 196 1028 l 196 0 m 109 -274 l 22 -274 l 49 -52 l 184 -52 l 109 -274 z "},"Ľ":{"ha":745,"x_min":59,"x_max":716,"o":"m 205 993 l 205 135 l 716 135 l 716 0 l 59 0 l 59 993 l 205 993 m 648 663 l 540 663 l 567 993 l 706 993 l 648 663 z "},"ľ":{"ha":252,"x_min":56,"x_max":418,"o":"m 196 0 l 56 0 l 56 1028 l 196 1028 l 196 0 m 360 698 l 252 698 l 280 1028 l 418 1028 l 360 698 z "},"Ŀ":{"ha":745,"x_min":59,"x_max":716,"o":"m 205 993 l 205 135 l 716 135 l 716 0 l 59 0 l 59 993 l 205 993 m 672 478 l 530 478 l 530 628 l 672 628 l 672 478 z "},"ŀ":{"ha":252,"x_min":56,"x_max":418,"o":"m 196 0 l 56 0 l 56 1028 l 196 1028 l 196 0 m 418 355 l 276 355 l 276 505 l 418 505 l 418 355 z "},"Ń":{"ha":1000,"x_min":59,"x_max":941,"o":"m 941 0 l 704 0 l 201 900 l 201 0 l 59 0 l 59 993 l 317 993 l 798 131 l 798 993 l 941 993 l 941 0 m 700 1246 l 561 1246 l 452 1024 l 550 1024 l 700 1246 z "},"ń":{"ha":811,"x_min":56,"x_max":759,"o":"m 196 0 l 56 0 l 56 766 l 196 766 l 196 544 q 236 646 210 601 q 299 722 262 691 q 381 770 335 753 q 480 786 427 786 q 598 762 546 786 q 685 691 649 737 q 740 578 721 644 q 759 428 759 511 l 759 0 l 618 0 l 618 428 q 569 601 618 543 q 422 659 520 659 q 327 643 369 659 q 256 595 285 626 q 212 518 227 564 q 196 414 196 472 l 196 0 m 608 1040 l 469 1040 l 360 818 l 457 818 l 608 1040 z "},"Ņ":{"ha":1000,"x_min":59,"x_max":941,"o":"m 941 0 l 704 0 l 201 900 l 201 0 l 59 0 l 59 993 l 317 993 l 798 131 l 798 993 l 941 993 l 941 0 m 443 -274 l 357 -274 l 384 -52 l 519 -52 l 443 -274 z "},"ņ":{"ha":811,"x_min":56,"x_max":759,"o":"m 196 0 l 56 0 l 56 766 l 196 766 l 196 544 q 236 646 210 601 q 299 722 262 691 q 381 770 335 753 q 480 786 427 786 q 598 762 546 786 q 685 691 649 737 q 740 578 721 644 q 759 428 759 511 l 759 0 l 618 0 l 618 428 q 569 601 618 543 q 422 659 520 659 q 327 643 369 659 q 256 595 285 626 q 212 518 227 564 q 196 414 196 472 l 196 0 m 400 -274 l 313 -274 l 340 -52 l 476 -52 l 400 -274 z "},"Ň":{"ha":1000,"x_min":59,"x_max":941,"o":"m 941 0 l 704 0 l 201 900 l 201 0 l 59 0 l 59 993 l 317 993 l 798 131 l 798 993 l 941 993 l 941 0 m 563 1024 l 439 1024 l 340 1246 l 430 1246 l 502 1104 l 572 1246 l 662 1246 l 563 1024 z "},"ň":{"ha":811,"x_min":56,"x_max":759,"o":"m 196 0 l 56 0 l 56 766 l 196 766 l 196 544 q 236 646 210 601 q 299 722 262 691 q 381 770 335 753 q 480 786 427 786 q 598 762 546 786 q 685 691 649 737 q 740 578 721 644 q 759 428 759 511 l 759 0 l 618 0 l 618 428 q 569 601 618 543 q 422 659 520 659 q 327 643 369 659 q 256 595 285 626 q 212 518 227 564 q 196 414 196 472 l 196 0 m 471 818 l 346 818 l 248 1040 l 338 1040 l 410 898 l 479 1040 l 570 1040 l 471 818 z "},"ŉ":{"ha":1107,"x_min":59,"x_max":1048,"o":"m 59 993 l 1048 993 l 1048 0 l 59 0 l 59 993 m 553 573 l 840 887 l 267 887 l 553 573 m 181 164 l 484 497 l 181 829 l 181 164 m 926 163 l 926 829 l 623 497 l 926 163 m 266 106 l 839 106 l 553 420 l 266 106 z "},"Ŋ":{"ha":1107,"x_min":59,"x_max":1048,"o":"m 59 993 l 1048 993 l 1048 0 l 59 0 l 59 993 m 553 573 l 840 887 l 267 887 l 553 573 m 181 164 l 484 497 l 181 829 l 181 164 m 926 163 l 926 829 l 623 497 l 926 163 m 266 106 l 839 106 l 553 420 l 266 106 z "},"ŋ":{"ha":1107,"x_min":59,"x_max":1048,"o":"m 59 993 l 1048 993 l 1048 0 l 59 0 l 59 993 m 553 573 l 840 887 l 267 887 l 553 573 m 181 164 l 484 497 l 181 829 l 181 164 m 926 163 l 926 829 l 623 497 l 926 163 m 266 106 l 839 106 l 553 420 l 266 106 z "},"Ō":{"ha":1035,"x_min":49,"x_max":986,"o":"m 49 497 q 64 642 49 574 q 108 768 79 710 q 178 871 137 825 q 272 948 220 916 q 386 997 324 980 q 517 1014 448 1014 q 649 997 587 1014 q 763 948 711 980 q 856 871 815 916 q 927 768 898 825 q 971 642 956 710 q 986 497 986 574 q 971 351 986 420 q 927 226 956 283 q 856 122 898 168 q 763 45 815 77 q 649 -4 711 13 q 517 -21 587 -21 q 386 -4 448 -21 q 272 45 324 13 q 178 122 220 77 q 108 226 137 168 q 64 351 79 283 q 49 497 49 420 m 194 497 q 216 336 194 407 q 280 216 239 265 q 382 141 322 167 q 517 115 442 115 q 653 141 593 115 q 755 216 713 167 q 818 336 796 265 q 841 497 841 407 q 818 657 841 586 q 755 777 796 728 q 653 852 713 826 q 517 878 593 878 q 382 852 442 878 q 280 777 322 826 q 216 657 239 728 q 194 497 194 586 m 697 1089 l 336 1089 l 336 1186 l 697 1186 l 697 1089 z "},"ō":{"ha":825,"x_min":38,"x_max":787,"o":"m 38 383 q 50 497 38 443 q 85 595 63 550 q 141 676 108 640 q 216 736 174 711 q 307 773 257 760 q 413 786 357 786 q 518 773 469 786 q 609 736 568 760 q 684 676 651 711 q 740 595 717 640 q 775 497 763 550 q 787 383 787 443 q 775 269 787 323 q 740 171 763 216 q 684 90 717 126 q 609 30 651 55 q 518 -8 568 5 q 413 -21 469 -21 q 307 -8 357 -21 q 216 30 257 5 q 141 90 174 55 q 85 171 108 126 q 50 269 63 216 q 38 383 38 323 m 179 383 q 195 268 179 319 q 241 180 211 216 q 315 125 272 144 q 413 106 359 106 q 510 125 467 106 q 584 180 553 144 q 630 268 614 216 q 646 383 646 319 q 630 498 646 447 q 584 585 614 550 q 510 640 553 621 q 413 659 467 659 q 315 640 359 659 q 241 585 272 621 q 195 498 211 549 q 179 383 179 447 m 593 861 l 232 861 l 232 958 l 593 958 l 593 861 z "},"Ŏ":{"ha":1035,"x_min":49,"x_max":986,"o":"m 49 497 q 64 642 49 574 q 108 768 79 710 q 178 871 137 825 q 272 948 220 916 q 386 997 324 980 q 517 1014 448 1014 q 649 997 587 1014 q 763 948 711 980 q 856 871 815 916 q 927 768 898 825 q 971 642 956 710 q 986 497 986 574 q 971 351 986 420 q 927 226 956 283 q 856 122 898 168 q 763 45 815 77 q 649 -4 711 13 q 517 -21 587 -21 q 386 -4 448 -21 q 272 45 324 13 q 178 122 220 77 q 108 226 137 168 q 64 351 79 283 q 49 497 49 420 m 194 497 q 216 336 194 407 q 280 216 239 265 q 382 141 322 167 q 517 115 442 115 q 653 141 593 115 q 755 216 713 167 q 818 336 796 265 q 841 497 841 407 q 818 657 841 586 q 755 777 796 728 q 653 852 713 826 q 517 878 593 878 q 382 852 442 878 q 280 777 322 826 q 216 657 239 728 q 194 497 194 586 m 430 1249 q 452 1165 430 1195 q 516 1136 475 1136 q 580 1165 558 1136 q 603 1249 603 1195 l 690 1249 q 678 1162 690 1200 q 645 1098 667 1124 q 591 1059 623 1072 q 516 1045 558 1045 q 442 1059 474 1045 q 388 1098 410 1072 q 354 1162 366 1124 q 343 1249 343 1200 l 430 1249 z "},"ŏ":{"ha":825,"x_min":38,"x_max":787,"o":"m 38 383 q 50 497 38 443 q 85 595 63 550 q 141 676 108 640 q 216 736 174 711 q 307 773 257 760 q 413 786 357 786 q 518 773 469 786 q 609 736 568 760 q 684 676 651 711 q 740 595 717 640 q 775 497 763 550 q 787 383 787 443 q 775 269 787 323 q 740 171 763 216 q 684 90 717 126 q 609 30 651 55 q 518 -8 568 5 q 413 -21 469 -21 q 307 -8 357 -21 q 216 30 257 5 q 141 90 174 55 q 85 171 108 126 q 50 269 63 216 q 38 383 38 323 m 179 383 q 195 268 179 319 q 241 180 211 216 q 315 125 272 144 q 413 106 359 106 q 510 125 467 106 q 584 180 553 144 q 630 268 614 216 q 646 383 646 319 q 630 498 646 447 q 584 585 614 550 q 510 640 553 621 q 413 659 467 659 q 315 640 359 659 q 241 585 272 621 q 195 498 211 549 q 179 383 179 447 m 326 1022 q 348 938 326 968 q 412 908 370 908 q 476 938 454 908 q 499 1022 499 968 l 585 1022 q 574 934 585 972 q 541 870 563 896 q 486 831 519 844 q 412 818 454 818 q 338 831 370 818 q 284 870 306 844 q 250 934 261 896 q 239 1022 239 972 l 326 1022 z "},"Ő":{"ha":1035,"x_min":49,"x_max":986,"o":"m 49 497 q 64 642 49 574 q 108 768 79 710 q 178 871 137 825 q 272 948 220 916 q 386 997 324 980 q 517 1014 448 1014 q 649 997 587 1014 q 763 948 711 980 q 856 871 815 916 q 927 768 898 825 q 971 642 956 710 q 986 497 986 574 q 971 351 986 420 q 927 226 956 283 q 856 122 898 168 q 763 45 815 77 q 649 -4 711 13 q 517 -21 587 -21 q 386 -4 448 -21 q 272 45 324 13 q 178 122 220 77 q 108 226 137 168 q 64 351 79 283 q 49 497 49 420 m 194 497 q 216 336 194 407 q 280 216 239 265 q 382 141 322 167 q 517 115 442 115 q 653 141 593 115 q 755 216 713 167 q 818 336 796 265 q 841 497 841 407 q 818 657 841 586 q 755 777 796 728 q 653 852 713 826 q 517 878 593 878 q 382 852 442 878 q 280 777 322 826 q 216 657 239 728 q 194 497 194 586 m 365 1045 l 439 1267 l 567 1267 l 455 1045 l 365 1045 m 549 1045 l 623 1267 l 751 1267 l 639 1045 l 549 1045 z "},"ő":{"ha":825,"x_min":38,"x_max":787,"o":"m 38 383 q 50 497 38 443 q 85 595 63 550 q 141 676 108 640 q 216 736 174 711 q 307 773 257 760 q 413 786 357 786 q 518 773 469 786 q 609 736 568 760 q 684 676 651 711 q 740 595 717 640 q 775 497 763 550 q 787 383 787 443 q 775 269 787 323 q 740 171 763 216 q 684 90 717 126 q 609 30 651 55 q 518 -8 568 5 q 413 -21 469 -21 q 307 -8 357 -21 q 216 30 257 5 q 141 90 174 55 q 85 171 108 126 q 50 269 63 216 q 38 383 38 323 m 179 383 q 195 268 179 319 q 241 180 211 216 q 315 125 272 144 q 413 106 359 106 q 510 125 467 106 q 584 180 553 144 q 630 268 614 216 q 646 383 646 319 q 630 498 646 447 q 584 585 614 550 q 510 640 553 621 q 413 659 467 659 q 315 640 359 659 q 241 585 272 621 q 195 498 211 549 q 179 383 179 447 m 260 818 l 335 1040 l 463 1040 l 351 818 l 260 818 m 445 818 l 519 1040 l 647 1040 l 535 818 l 445 818 z "},"Ŕ":{"ha":941,"x_min":59,"x_max":902,"o":"m 59 0 l 59 993 l 540 993 q 633 983 589 993 q 715 955 677 974 q 782 911 752 937 q 833 853 812 885 q 865 782 853 820 q 876 701 876 744 q 856 596 876 643 q 800 516 836 549 q 714 463 764 482 q 600 442 663 443 q 699 398 656 437 q 774 286 742 358 l 902 0 l 742 0 l 615 285 q 586 333 602 314 q 547 364 570 352 q 493 381 524 376 q 418 386 461 386 l 205 386 l 205 0 l 59 0 m 521 522 q 609 533 570 522 q 674 567 648 545 q 716 621 701 589 q 730 693 730 653 q 716 764 730 733 q 675 815 702 794 q 610 847 649 836 q 520 858 570 858 l 205 858 l 205 522 l 521 522 m 619 1267 l 480 1267 l 371 1045 l 468 1045 l 619 1267 z "},"ŕ":{"ha":564,"x_min":56,"x_max":527,"o":"m 196 0 l 56 0 l 56 766 l 196 766 l 196 522 q 235 624 209 579 q 297 701 260 669 q 383 749 334 732 q 493 766 432 766 l 527 766 l 527 632 l 493 632 q 352 616 409 632 q 261 569 295 601 q 211 491 226 538 q 196 380 196 443 l 196 0 m 504 1040 l 365 1040 l 256 818 l 353 818 l 504 1040 z "},"Ŗ":{"ha":941,"x_min":59,"x_max":902,"o":"m 59 0 l 59 993 l 540 993 q 633 983 589 993 q 715 955 677 974 q 782 911 752 937 q 833 853 812 885 q 865 782 853 820 q 876 701 876 744 q 856 596 876 643 q 800 516 836 549 q 714 463 764 482 q 600 442 663 443 q 699 398 656 437 q 774 286 742 358 l 902 0 l 742 0 l 615 285 q 586 333 602 314 q 547 364 570 352 q 493 381 524 376 q 418 386 461 386 l 205 386 l 205 0 l 59 0 m 521 522 q 609 533 570 522 q 674 567 648 545 q 716 621 701 589 q 730 693 730 653 q 716 764 730 733 q 675 815 702 794 q 610 847 649 836 q 520 858 570 858 l 205 858 l 205 522 l 521 522 m 443 -274 l 357 -274 l 384 -52 l 519 -52 l 443 -274 z "},"ŗ":{"ha":564,"x_min":22,"x_max":527,"o":"m 196 0 l 56 0 l 56 766 l 196 766 l 196 522 q 235 624 209 579 q 297 701 260 669 q 383 749 334 732 q 493 766 432 766 l 527 766 l 527 632 l 493 632 q 352 616 409 632 q 261 569 295 601 q 211 491 226 538 q 196 380 196 443 l 196 0 m 109 -274 l 22 -274 l 49 -52 l 185 -52 l 109 -274 z "},"Ř":{"ha":941,"x_min":59,"x_max":902,"o":"m 59 0 l 59 993 l 540 993 q 633 983 589 993 q 715 955 677 974 q 782 911 752 937 q 833 853 812 885 q 865 782 853 820 q 876 701 876 744 q 856 596 876 643 q 800 516 836 549 q 714 463 764 482 q 600 442 663 443 q 699 398 656 437 q 774 286 742 358 l 902 0 l 742 0 l 615 285 q 586 333 602 314 q 547 364 570 352 q 493 381 524 376 q 418 386 461 386 l 205 386 l 205 0 l 59 0 m 521 522 q 609 533 570 522 q 674 567 648 545 q 716 621 701 589 q 730 693 730 653 q 716 764 730 733 q 675 815 702 794 q 610 847 649 836 q 520 858 570 858 l 205 858 l 205 522 l 521 522 m 482 1045 l 357 1045 l 259 1267 l 349 1267 l 421 1125 l 490 1267 l 581 1267 l 482 1045 z "},"ř":{"ha":564,"x_min":56,"x_max":527,"o":"m 196 0 l 56 0 l 56 766 l 196 766 l 196 522 q 235 624 209 579 q 297 701 260 669 q 383 749 334 732 q 493 766 432 766 l 527 766 l 527 632 l 493 632 q 352 616 409 632 q 261 569 295 601 q 211 491 226 538 q 196 380 196 443 l 196 0 m 367 818 l 242 818 l 144 1040 l 234 1040 l 306 898 l 375 1040 l 466 1040 l 367 818 z "},"Ś":{"ha":905,"x_min":31,"x_max":873,"o":"m 446 1014 q 607 992 535 1014 q 730 928 679 969 q 809 827 782 887 q 837 694 837 768 l 695 694 q 677 772 695 737 q 625 831 658 807 q 546 869 592 856 q 445 882 500 882 q 383 878 414 882 q 324 864 352 873 q 272 842 296 856 q 229 810 247 828 q 201 768 211 792 q 191 716 191 745 q 199 673 191 691 q 223 641 207 654 q 261 617 238 627 q 311 600 283 608 q 374 587 340 593 q 448 576 409 582 l 499 568 q 564 558 531 563 q 629 545 597 552 q 692 527 661 538 q 749 502 722 516 q 799 467 777 487 q 839 421 822 447 q 864 361 855 395 q 873 285 873 328 q 859 191 873 234 q 820 114 845 148 q 757 55 794 80 q 674 13 720 30 q 573 -12 628 -4 q 458 -21 519 -21 q 279 1 358 -21 q 145 65 200 23 q 60 169 90 108 q 31 308 31 230 l 174 308 q 193 226 174 262 q 250 163 213 189 q 339 124 287 138 q 456 111 391 111 q 528 116 493 111 q 593 130 563 120 q 649 154 624 139 q 692 188 674 168 q 720 232 710 207 q 731 288 731 257 q 722 336 731 316 q 699 371 714 356 q 662 395 684 385 q 614 413 641 406 q 555 426 586 420 q 488 436 523 431 l 423 446 q 336 460 381 452 q 251 480 292 467 q 172 510 209 492 q 108 555 135 528 q 65 622 81 583 q 49 713 49 660 q 63 805 49 763 q 103 880 77 846 q 166 938 130 913 q 247 980 202 963 q 341 1005 291 997 q 446 1014 392 1014 m 651 1267 l 512 1267 l 403 1045 l 500 1045 l 651 1267 z "},"ś":{"ha":753,"x_min":30,"x_max":722,"o":"m 367 786 q 506 769 445 786 q 609 718 567 751 q 672 639 650 685 q 694 534 694 592 l 557 534 q 544 588 557 564 q 507 629 532 612 q 448 656 483 646 q 367 665 413 665 q 291 657 325 665 q 232 636 257 650 q 194 602 207 622 q 180 558 180 582 q 188 527 180 540 q 209 503 195 513 q 240 486 222 493 q 278 473 257 478 q 320 464 298 468 q 363 457 342 461 l 414 449 q 481 438 446 444 q 551 421 516 432 q 616 394 585 410 q 670 354 647 378 q 708 296 694 330 q 722 215 722 262 q 700 115 722 159 q 634 41 677 71 q 527 -5 591 10 q 380 -21 463 -21 q 227 -4 292 -21 q 117 46 161 13 q 52 127 74 79 q 30 238 30 175 l 167 238 q 180 179 167 205 q 219 136 192 154 q 285 110 245 119 q 379 101 325 101 q 466 108 428 101 q 531 129 505 115 q 571 164 557 143 q 585 212 585 185 q 577 248 585 233 q 555 276 569 264 q 521 296 541 288 q 479 311 502 305 q 432 322 457 317 q 383 331 408 327 l 332 340 q 270 351 303 344 q 205 367 238 357 q 144 392 173 377 q 92 430 115 407 q 56 483 70 452 q 43 555 43 514 q 65 651 43 608 q 130 724 88 693 q 231 770 172 754 q 367 786 291 786 m 570 1040 l 431 1040 l 322 818 l 419 818 l 570 1040 z "},"Ŝ":{"ha":905,"x_min":31,"x_max":873,"o":"m 446 1014 q 607 992 535 1014 q 730 928 679 969 q 809 827 782 887 q 837 694 837 768 l 695 694 q 677 772 695 737 q 625 831 658 807 q 546 869 592 856 q 445 882 500 882 q 383 878 414 882 q 324 864 352 873 q 272 842 296 856 q 229 810 247 828 q 201 768 211 792 q 191 716 191 745 q 199 673 191 691 q 223 641 207 654 q 261 617 238 627 q 311 600 283 608 q 374 587 340 593 q 448 576 409 582 l 499 568 q 564 558 531 563 q 629 545 597 552 q 692 527 661 538 q 749 502 722 516 q 799 467 777 487 q 839 421 822 447 q 864 361 855 395 q 873 285 873 328 q 859 191 873 234 q 820 114 845 148 q 757 55 794 80 q 674 13 720 30 q 573 -12 628 -4 q 458 -21 519 -21 q 279 1 358 -21 q 145 65 200 23 q 60 169 90 108 q 31 308 31 230 l 174 308 q 193 226 174 262 q 250 163 213 189 q 339 124 287 138 q 456 111 391 111 q 528 116 493 111 q 593 130 563 120 q 649 154 624 139 q 692 188 674 168 q 720 232 710 207 q 731 288 731 257 q 722 336 731 316 q 699 371 714 356 q 662 395 684 385 q 614 413 641 406 q 555 426 586 420 q 488 436 523 431 l 423 446 q 336 460 381 452 q 251 480 292 467 q 172 510 209 492 q 108 555 135 528 q 65 622 81 583 q 49 713 49 660 q 63 805 49 763 q 103 880 77 846 q 166 938 130 913 q 247 980 202 963 q 341 1005 291 997 q 446 1014 392 1014 m 521 1045 l 451 1187 l 380 1045 l 289 1045 l 388 1267 l 513 1267 l 611 1045 l 521 1045 z "},"ŝ":{"ha":753,"x_min":30,"x_max":722,"o":"m 367 786 q 506 769 445 786 q 609 718 567 751 q 672 639 650 685 q 694 534 694 592 l 557 534 q 544 588 557 564 q 507 629 532 612 q 448 656 483 646 q 367 665 413 665 q 291 657 325 665 q 232 636 257 650 q 194 602 207 622 q 180 558 180 582 q 188 527 180 540 q 209 503 195 513 q 240 486 222 493 q 278 473 257 478 q 320 464 298 468 q 363 457 342 461 l 414 449 q 481 438 446 444 q 551 421 516 432 q 616 394 585 410 q 670 354 647 378 q 708 296 694 330 q 722 215 722 262 q 700 115 722 159 q 634 41 677 71 q 527 -5 591 10 q 380 -21 463 -21 q 227 -4 292 -21 q 117 46 161 13 q 52 127 74 79 q 30 238 30 175 l 167 238 q 180 179 167 205 q 219 136 192 154 q 285 110 245 119 q 379 101 325 101 q 466 108 428 101 q 531 129 505 115 q 571 164 557 143 q 585 212 585 185 q 577 248 585 233 q 555 276 569 264 q 521 296 541 288 q 479 311 502 305 q 432 322 457 317 q 383 331 408 327 l 332 340 q 270 351 303 344 q 205 367 238 357 q 144 392 173 377 q 92 430 115 407 q 56 483 70 452 q 43 555 43 514 q 65 651 43 608 q 130 724 88 693 q 231 770 172 754 q 367 786 291 786 m 440 818 l 370 959 l 299 818 l 208 818 l 307 1040 l 432 1040 l 531 818 l 440 818 z "},"Ş":{"ha":905,"x_min":31,"x_max":873,"o":"m 446 1014 q 607 992 535 1014 q 730 928 679 969 q 809 827 782 887 q 837 694 837 768 l 695 694 q 677 772 695 737 q 625 831 658 807 q 546 869 592 856 q 445 882 500 882 q 383 878 414 882 q 324 864 352 873 q 272 842 296 856 q 229 810 247 828 q 201 768 211 792 q 191 716 191 745 q 199 673 191 691 q 223 641 207 654 q 261 617 238 627 q 311 600 283 608 q 374 587 340 593 q 448 576 409 582 l 499 568 q 564 558 531 563 q 629 545 597 552 q 692 527 661 538 q 749 502 722 516 q 799 467 777 487 q 839 421 822 447 q 864 361 855 395 q 873 285 873 328 q 859 191 873 234 q 820 114 845 148 q 757 55 794 80 q 674 13 720 30 q 573 -12 628 -4 q 458 -21 519 -21 q 279 1 358 -21 q 145 65 200 23 q 60 169 90 108 q 31 308 31 230 l 174 308 q 193 226 174 262 q 250 163 213 189 q 339 124 287 138 q 456 111 391 111 q 528 116 493 111 q 593 130 563 120 q 649 154 624 139 q 692 188 674 168 q 720 232 710 207 q 731 288 731 257 q 722 336 731 316 q 699 371 714 356 q 662 395 684 385 q 614 413 641 406 q 555 426 586 420 q 488 436 523 431 l 423 446 q 336 460 381 452 q 251 480 292 467 q 172 510 209 492 q 108 555 135 528 q 65 622 81 583 q 49 713 49 660 q 63 805 49 763 q 103 880 77 846 q 166 938 130 913 q 247 980 202 963 q 341 1005 291 997 q 446 1014 392 1014 m 493 3 l 483 -53 q 556 -61 524 -54 q 610 -82 588 -68 q 644 -114 632 -95 q 656 -157 656 -133 q 643 -204 656 -183 q 605 -240 630 -225 q 547 -262 581 -255 q 472 -270 513 -270 q 434 -269 453 -270 q 395 -264 415 -267 l 395 -188 q 469 -194 435 -194 q 545 -182 518 -194 q 573 -150 573 -170 q 533 -111 573 -125 q 419 -98 494 -98 l 437 3 l 493 3 z "},"ş":{"ha":753,"x_min":30,"x_max":722,"o":"m 367 786 q 506 769 445 786 q 609 718 567 751 q 672 639 650 685 q 694 534 694 592 l 557 534 q 544 588 557 564 q 507 629 532 612 q 448 656 483 646 q 367 665 413 665 q 291 657 325 665 q 232 636 257 650 q 194 602 207 622 q 180 558 180 582 q 188 527 180 540 q 209 503 195 513 q 240 486 222 493 q 278 473 257 478 q 320 464 298 468 q 363 457 342 461 l 414 449 q 481 438 446 444 q 551 421 516 432 q 616 394 585 410 q 670 354 647 378 q 708 296 694 330 q 722 215 722 262 q 700 115 722 159 q 634 41 677 71 q 527 -5 591 10 q 380 -21 463 -21 q 227 -4 292 -21 q 117 46 161 13 q 52 127 74 79 q 30 238 30 175 l 167 238 q 180 179 167 205 q 219 136 192 154 q 285 110 245 119 q 379 101 325 101 q 466 108 428 101 q 531 129 505 115 q 571 164 557 143 q 585 212 585 185 q 577 248 585 233 q 555 276 569 264 q 521 296 541 288 q 479 311 502 305 q 432 322 457 317 q 383 331 408 327 l 332 340 q 270 351 303 344 q 205 367 238 357 q 144 392 173 377 q 92 430 115 407 q 56 483 70 452 q 43 555 43 514 q 65 651 43 608 q 130 724 88 693 q 231 770 172 754 q 367 786 291 786 m 410 3 l 401 -53 q 474 -61 442 -54 q 528 -82 506 -68 q 562 -114 550 -95 q 573 -157 573 -133 q 560 -204 573 -183 q 523 -240 547 -225 q 465 -262 499 -255 q 389 -270 431 -270 q 351 -269 370 -270 q 313 -264 332 -267 l 313 -188 q 387 -194 353 -194 q 463 -182 436 -194 q 490 -150 490 -170 q 451 -111 490 -125 q 337 -98 412 -98 l 355 3 l 410 3 z "},"Ţ":{"ha":845,"x_min":12,"x_max":833,"o":"m 833 858 l 495 858 l 495 0 l 350 0 l 350 858 l 12 858 l 12 993 l 833 993 l 833 858 m 450 3 l 441 -53 q 513 -61 481 -54 q 567 -82 545 -68 q 601 -114 590 -95 q 613 -157 613 -133 q 600 -204 613 -183 q 563 -240 587 -225 q 505 -262 539 -255 q 429 -270 470 -270 q 391 -269 410 -270 q 352 -264 372 -267 l 352 -188 q 427 -194 392 -194 q 503 -182 475 -194 q 530 -150 530 -170 q 491 -111 530 -125 q 377 -98 451 -98 l 394 3 l 450 3 z "},"ţ":{"ha":569,"x_min":28,"x_max":526,"o":"m 526 6 q 368 -20 438 -20 q 266 -3 310 -20 q 193 49 223 15 q 147 135 163 84 q 132 253 132 186 l 132 648 l 28 648 l 28 766 l 132 766 l 132 942 l 273 942 l 273 766 l 526 766 l 526 648 l 273 648 l 273 253 q 301 141 273 177 q 391 105 330 105 q 449 110 416 105 q 526 127 482 116 l 526 6 m 358 3 l 348 -53 q 421 -61 389 -54 q 475 -82 453 -68 q 509 -114 497 -95 q 520 -157 520 -133 q 507 -204 520 -183 q 470 -240 494 -225 q 412 -262 446 -255 q 336 -270 378 -270 q 299 -269 318 -270 q 260 -264 280 -267 l 260 -188 q 334 -194 300 -194 q 410 -182 383 -194 q 438 -150 438 -170 q 398 -111 438 -125 q 284 -98 359 -98 l 302 3 l 358 3 z "},"Ť":{"ha":845,"x_min":12,"x_max":833,"o":"m 833 858 l 495 858 l 495 0 l 350 0 l 350 858 l 12 858 l 12 993 l 833 993 l 833 858 m 487 1045 l 362 1045 l 264 1267 l 354 1267 l 426 1125 l 495 1267 l 586 1267 l 487 1045 z "},"ť":{"ha":569,"x_min":28,"x_max":531,"o":"m 526 6 q 368 -20 438 -20 q 266 -3 310 -20 q 193 49 223 15 q 147 135 163 84 q 132 253 132 186 l 132 648 l 28 648 l 28 766 l 132 766 l 132 942 l 273 942 l 273 766 l 526 766 l 526 648 l 273 648 l 273 253 q 301 141 273 177 q 391 105 330 105 q 449 110 416 105 q 526 127 482 116 l 526 6 m 473 811 l 365 811 l 392 1141 l 531 1141 l 473 811 z "},"Ŧ":{"ha":845,"x_min":12,"x_max":833,"o":"m 833 858 l 495 858 l 495 0 l 350 0 l 350 858 l 12 858 l 12 993 l 833 993 l 833 858 m 715 409 l 132 409 l 132 524 l 715 524 l 715 409 z "},"ŧ":{"ha":569,"x_min":26,"x_max":526,"o":"m 526 6 q 368 -20 438 -20 q 266 -3 310 -20 q 193 49 223 15 q 147 135 163 84 q 132 253 132 186 l 132 648 l 28 648 l 28 766 l 132 766 l 132 942 l 273 942 l 273 766 l 526 766 l 526 648 l 273 648 l 273 253 q 301 141 273 177 q 391 105 330 105 q 449 110 416 105 q 526 127 482 116 l 526 6 m 511 359 l 26 359 l 26 464 l 511 464 l 511 359 z "},"Ũ":{"ha":965,"x_min":59,"x_max":906,"o":"m 59 993 l 205 993 l 205 417 q 223 289 205 345 q 277 194 242 232 q 365 135 313 155 q 483 115 416 115 q 601 135 549 115 q 688 194 652 155 q 742 289 723 232 q 760 417 760 345 l 760 993 l 906 993 l 906 417 q 893 292 906 350 q 854 185 879 233 q 791 98 828 136 q 707 33 754 60 q 604 -7 660 7 q 483 -21 547 -21 q 362 -7 418 -21 q 258 33 305 7 q 174 98 211 60 q 112 185 137 136 q 73 292 86 233 q 59 417 59 350 l 59 993 m 677 1236 q 652 1110 677 1151 q 572 1069 626 1069 q 539 1073 555 1069 q 512 1084 524 1077 q 490 1097 500 1090 q 472 1109 480 1103 l 456 1122 q 446 1129 451 1125 q 434 1136 440 1133 q 420 1142 427 1140 q 405 1144 413 1144 q 377 1129 386 1144 q 369 1078 369 1114 l 369 1075 l 303 1075 l 303 1078 q 330 1206 303 1163 q 412 1248 357 1248 q 442 1245 428 1248 q 467 1236 456 1241 q 487 1225 478 1231 q 502 1214 495 1219 l 518 1202 q 531 1193 524 1198 q 547 1184 538 1188 q 564 1177 555 1180 q 582 1174 573 1174 q 595 1177 590 1174 q 605 1188 601 1181 q 610 1207 608 1195 q 611 1235 611 1218 l 611 1242 l 677 1242 l 677 1236 z "},"ũ":{"ha":811,"x_min":52,"x_max":756,"o":"m 615 766 l 756 766 l 756 0 l 615 0 l 615 221 q 575 120 601 165 q 513 44 549 75 q 430 -4 476 13 q 331 -21 384 -21 q 214 4 265 -21 q 126 75 162 29 q 71 188 90 122 q 52 338 52 254 l 52 766 l 193 766 l 193 338 q 242 164 193 223 q 389 106 291 106 q 484 123 442 106 q 555 171 526 139 q 599 248 584 202 q 615 351 615 293 l 615 766 m 598 1009 q 573 883 598 924 q 493 842 547 842 q 461 846 476 842 q 433 856 445 850 q 411 869 421 862 q 393 882 401 876 l 377 894 q 367 902 373 898 q 355 909 361 906 q 341 915 348 913 q 326 917 334 917 q 298 902 307 917 q 290 851 290 886 l 290 848 l 224 848 l 224 851 q 251 978 224 936 q 333 1021 278 1021 q 363 1017 350 1021 q 388 1009 377 1014 q 408 997 399 1003 q 423 986 417 991 l 440 974 q 452 966 445 970 q 468 957 459 961 q 485 949 476 952 q 503 947 494 947 q 516 950 511 947 q 526 960 522 953 q 531 979 529 968 q 532 1008 532 991 l 532 1015 l 598 1015 l 598 1009 z "},"Ū":{"ha":965,"x_min":59,"x_max":906,"o":"m 59 993 l 205 993 l 205 417 q 223 289 205 345 q 277 194 242 232 q 365 135 313 155 q 483 115 416 115 q 601 135 549 115 q 688 194 652 155 q 742 289 723 232 q 760 417 760 345 l 760 993 l 906 993 l 906 417 q 893 292 906 350 q 854 185 879 233 q 791 98 828 136 q 707 33 754 60 q 604 -7 660 7 q 483 -21 547 -21 q 362 -7 418 -21 q 258 33 305 7 q 174 98 211 60 q 112 185 137 136 q 73 292 86 233 q 59 417 59 350 l 59 993 m 663 1089 l 302 1089 l 302 1186 l 663 1186 l 663 1089 z "},"ū":{"ha":811,"x_min":52,"x_max":756,"o":"m 615 766 l 756 766 l 756 0 l 615 0 l 615 221 q 575 120 601 165 q 513 44 549 75 q 430 -4 476 13 q 331 -21 384 -21 q 214 4 265 -21 q 126 75 162 29 q 71 188 90 122 q 52 338 52 254 l 52 766 l 193 766 l 193 338 q 242 164 193 223 q 389 106 291 106 q 484 123 442 106 q 555 171 526 139 q 599 248 584 202 q 615 351 615 293 l 615 766 m 584 861 l 223 861 l 223 958 l 584 958 l 584 861 z "},"Ŭ":{"ha":965,"x_min":59,"x_max":906,"o":"m 59 993 l 205 993 l 205 417 q 223 289 205 345 q 277 194 242 232 q 365 135 313 155 q 483 115 416 115 q 601 135 549 115 q 688 194 652 155 q 742 289 723 232 q 760 417 760 345 l 760 993 l 906 993 l 906 417 q 893 292 906 350 q 854 185 879 233 q 791 98 828 136 q 707 33 754 60 q 604 -7 660 7 q 483 -21 547 -21 q 362 -7 418 -21 q 258 33 305 7 q 174 98 211 60 q 112 185 137 136 q 73 292 86 233 q 59 417 59 350 l 59 993 m 396 1249 q 418 1165 396 1195 q 482 1136 441 1136 q 546 1165 524 1136 q 569 1249 569 1195 l 656 1249 q 644 1162 656 1200 q 611 1098 633 1124 q 557 1059 589 1072 q 482 1045 524 1045 q 408 1059 440 1045 q 354 1098 376 1072 q 320 1162 332 1124 q 309 1249 309 1200 l 396 1249 z "},"ŭ":{"ha":811,"x_min":52,"x_max":756,"o":"m 615 766 l 756 766 l 756 0 l 615 0 l 615 221 q 575 120 601 165 q 513 44 549 75 q 430 -4 476 13 q 331 -21 384 -21 q 214 4 265 -21 q 126 75 162 29 q 71 188 90 122 q 52 338 52 254 l 52 766 l 193 766 l 193 338 q 242 164 193 223 q 389 106 291 106 q 484 123 442 106 q 555 171 526 139 q 599 248 584 202 q 615 351 615 293 l 615 766 m 317 1022 q 339 938 317 968 q 403 908 362 908 q 468 938 445 908 q 490 1022 490 968 l 577 1022 q 565 934 577 972 q 532 870 554 896 q 478 831 510 844 q 403 818 445 818 q 329 831 361 818 q 275 870 297 844 q 241 934 253 896 q 230 1022 230 972 l 317 1022 z "},"Ů":{"ha":965,"x_min":59,"x_max":906,"o":"m 59 993 l 205 993 l 205 417 q 223 289 205 345 q 277 194 242 232 q 365 135 313 155 q 483 115 416 115 q 601 135 549 115 q 688 194 652 155 q 742 289 723 232 q 760 417 760 345 l 760 993 l 906 993 l 906 417 q 893 292 906 350 q 854 185 879 233 q 791 98 828 136 q 707 33 754 60 q 604 -7 660 7 q 483 -21 547 -21 q 362 -7 418 -21 q 258 33 305 7 q 174 98 211 60 q 112 185 137 136 q 73 292 86 233 q 59 417 59 350 l 59 993 m 330 1196 q 341 1257 330 1230 q 372 1305 352 1285 q 420 1336 392 1325 q 483 1347 449 1347 q 545 1336 517 1347 q 593 1305 573 1325 q 624 1257 613 1285 q 635 1196 635 1230 q 624 1134 635 1162 q 593 1087 613 1107 q 545 1056 573 1067 q 483 1045 517 1045 q 420 1056 449 1045 q 372 1087 392 1067 q 341 1134 352 1107 q 330 1196 330 1162 m 411 1196 q 416 1165 411 1179 q 431 1141 422 1151 q 454 1125 440 1131 q 483 1119 467 1119 q 513 1125 499 1119 q 535 1141 526 1131 q 549 1165 544 1151 q 555 1196 555 1179 q 549 1228 555 1214 q 535 1252 544 1242 q 513 1267 526 1261 q 483 1272 499 1272 q 454 1267 467 1272 q 431 1251 440 1261 q 416 1227 422 1241 q 411 1196 411 1214 z "},"ů":{"ha":811,"x_min":52,"x_max":756,"o":"m 615 766 l 756 766 l 756 0 l 615 0 l 615 221 q 575 120 601 165 q 513 44 549 75 q 430 -4 476 13 q 331 -21 384 -21 q 214 4 265 -21 q 126 75 162 29 q 71 188 90 122 q 52 338 52 254 l 52 766 l 193 766 l 193 338 q 242 164 193 223 q 389 106 291 106 q 484 123 442 106 q 555 171 526 139 q 599 248 584 202 q 615 351 615 293 l 615 766 m 251 968 q 263 1030 251 1002 q 294 1077 274 1058 q 342 1108 314 1097 q 404 1119 370 1119 q 466 1108 438 1119 q 514 1077 494 1097 q 545 1030 534 1058 q 557 968 557 1002 q 545 907 557 935 q 514 859 534 879 q 466 829 494 840 q 404 818 438 818 q 342 829 370 818 q 294 859 314 840 q 263 907 274 879 q 251 968 251 935 m 332 969 q 338 937 332 951 q 352 913 343 923 q 375 898 361 903 q 404 892 388 892 q 434 898 420 892 q 456 913 447 903 q 471 937 466 923 q 476 969 476 951 q 471 1000 476 986 q 456 1024 466 1014 q 434 1039 447 1034 q 404 1045 420 1045 q 375 1039 388 1045 q 352 1024 361 1034 q 338 1000 343 1014 q 332 969 332 986 z "},"Ű":{"ha":965,"x_min":59,"x_max":906,"o":"m 59 993 l 205 993 l 205 417 q 223 289 205 345 q 277 194 242 232 q 365 135 313 155 q 483 115 416 115 q 601 135 549 115 q 688 194 652 155 q 742 289 723 232 q 760 417 760 345 l 760 993 l 906 993 l 906 417 q 893 292 906 350 q 854 185 879 233 q 791 98 828 136 q 707 33 754 60 q 604 -7 660 7 q 483 -21 547 -21 q 362 -7 418 -21 q 258 33 305 7 q 174 98 211 60 q 112 185 137 136 q 73 292 86 233 q 59 417 59 350 l 59 993 m 331 1045 l 405 1267 l 533 1267 l 421 1045 l 331 1045 m 515 1045 l 589 1267 l 717 1267 l 605 1045 l 515 1045 z "},"ű":{"ha":811,"x_min":52,"x_max":756,"o":"m 615 766 l 756 766 l 756 0 l 615 0 l 615 221 q 575 120 601 165 q 513 44 549 75 q 430 -4 476 13 q 331 -21 384 -21 q 214 4 265 -21 q 126 75 162 29 q 71 188 90 122 q 52 338 52 254 l 52 766 l 193 766 l 193 338 q 242 164 193 223 q 389 106 291 106 q 484 123 442 106 q 555 171 526 139 q 599 248 584 202 q 615 351 615 293 l 615 766 m 252 818 l 326 1040 l 455 1040 l 342 818 l 252 818 m 436 818 l 510 1040 l 639 1040 l 526 818 l 436 818 z "},"Ų":{"ha":965,"x_min":59,"x_max":906,"o":"m 59 993 l 205 993 l 205 417 q 223 289 205 345 q 277 194 242 232 q 365 135 313 155 q 483 115 416 115 q 601 135 549 115 q 688 194 652 155 q 742 289 723 232 q 760 417 760 345 l 760 993 l 906 993 l 906 417 q 893 292 906 350 q 854 185 879 233 q 791 98 828 136 q 707 33 754 60 q 604 -7 660 7 q 483 -21 547 -21 q 362 -7 418 -21 q 258 33 305 7 q 174 98 211 60 q 112 185 137 136 q 73 292 86 233 q 59 417 59 350 l 59 993 m 623 0 q 566 -9 595 0 q 516 -31 538 -17 q 479 -62 493 -45 q 465 -98 465 -80 q 491 -134 465 -121 q 565 -148 517 -148 q 593 -146 578 -148 q 626 -143 609 -145 l 626 -240 q 588 -244 607 -242 q 554 -245 570 -245 q 484 -237 515 -245 q 430 -214 452 -229 q 395 -178 407 -199 q 383 -132 383 -157 q 400 -75 383 -101 q 449 -29 418 -48 q 524 2 481 -9 q 617 14 567 13 l 623 0 z "},"ų":{"ha":811,"x_min":52,"x_max":757,"o":"m 615 766 l 756 766 l 756 0 l 615 0 l 615 221 q 575 120 601 165 q 513 44 549 75 q 430 -4 476 13 q 331 -21 384 -21 q 214 4 265 -21 q 126 75 162 29 q 71 188 90 122 q 52 338 52 254 l 52 766 l 193 766 l 193 338 q 242 164 193 223 q 389 106 291 106 q 484 123 442 106 q 555 171 526 139 q 599 248 584 202 q 615 351 615 293 l 615 766 m 755 0 q 698 -9 726 0 q 647 -31 670 -17 q 611 -62 625 -45 q 597 -98 597 -80 q 623 -134 597 -121 q 697 -148 649 -148 q 725 -146 710 -148 q 757 -143 740 -145 l 757 -240 q 720 -244 739 -242 q 685 -245 701 -245 q 615 -237 647 -245 q 561 -214 584 -229 q 527 -178 539 -199 q 514 -132 514 -157 q 532 -75 514 -101 q 581 -29 550 -48 q 655 2 612 -9 q 749 14 698 13 l 755 0 z "},"Ŵ":{"ha":1514,"x_min":38,"x_max":1476,"o":"m 853 993 l 1086 96 l 1324 993 l 1476 993 l 1205 0 l 986 0 l 757 854 l 523 0 l 305 0 l 38 993 l 193 993 l 426 96 l 664 993 l 853 993 m 828 1045 l 758 1187 l 686 1045 l 596 1045 l 694 1267 l 819 1267 l 918 1045 l 828 1045 z "},"ŵ":{"ha":1279,"x_min":24,"x_max":1255,"o":"m 725 766 l 920 97 l 1112 766 l 1255 766 l 1028 0 l 830 0 l 640 635 l 449 0 l 251 0 l 24 766 l 170 766 l 363 96 l 557 766 l 725 766 m 710 818 l 641 959 l 569 818 l 478 818 l 577 1040 l 702 1040 l 801 818 l 710 818 z "},"Ŷ":{"ha":944,"x_min":9,"x_max":935,"o":"m 935 993 l 543 377 l 543 0 l 397 0 l 397 376 l 9 993 l 177 993 l 472 518 l 770 993 l 935 993 m 543 1045 l 473 1187 l 401 1045 l 311 1045 l 410 1267 l 535 1267 l 633 1045 l 543 1045 z "},"ŷ":{"ha":803,"x_min":19,"x_max":784,"o":"m 784 766 l 467 -48 q 412 -154 443 -109 q 339 -227 380 -198 q 247 -270 298 -256 q 134 -284 196 -284 q 70 -280 100 -284 l 70 -157 q 104 -161 88 -160 q 134 -162 120 -162 q 197 -155 169 -162 q 247 -135 225 -149 q 286 -99 269 -121 q 313 -48 302 -78 l 323 -23 l 19 766 l 165 766 l 402 128 l 642 766 l 784 766 m 473 797 l 403 939 l 331 797 l 241 797 l 339 1019 l 464 1019 l 563 797 l 473 797 z "},"Ź":{"ha":877,"x_min":59,"x_max":818,"o":"m 227 135 l 818 135 l 818 0 l 59 0 l 59 146 l 615 858 l 76 858 l 76 993 l 783 993 l 783 847 l 227 135 m 630 1267 l 491 1267 l 382 1045 l 480 1045 l 630 1267 z "},"ź":{"ha":734,"x_min":40,"x_max":694,"o":"m 200 118 l 694 118 l 694 0 l 40 0 l 40 126 l 508 647 l 53 647 l 53 766 l 667 766 l 667 639 l 200 118 m 565 1019 l 426 1019 l 317 797 l 414 797 l 565 1019 z "},"Ż":{"ha":877,"x_min":59,"x_max":818,"o":"m 227 135 l 818 135 l 818 0 l 59 0 l 59 146 l 615 858 l 76 858 l 76 993 l 783 993 l 783 847 l 227 135 m 500 1071 l 359 1071 l 359 1221 l 500 1221 l 500 1071 z "},"ż":{"ha":734,"x_min":40,"x_max":694,"o":"m 200 118 l 694 118 l 694 0 l 40 0 l 40 126 l 508 647 l 53 647 l 53 766 l 667 766 l 667 639 l 200 118 m 435 823 l 293 823 l 293 973 l 435 973 l 435 823 z "},"ſ":{"ha":1107,"x_min":59,"x_max":1048,"o":"m 59 993 l 1048 993 l 1048 0 l 59 0 l 59 993 m 553 573 l 840 887 l 267 887 l 553 573 m 181 164 l 484 497 l 181 829 l 181 164 m 926 163 l 926 829 l 623 497 l 926 163 m 266 106 l 839 106 l 553 420 l 266 106 z "},"ȷ":{"ha":251,"x_min":-119,"x_max":199,"o":"m 199 31 q 126 -206 199 -127 q -97 -284 52 -284 l -119 -284 l -119 -157 l -97 -157 q -32 -147 -59 -157 q 11 -122 -6 -138 q 38 -87 28 -107 q 52 -46 48 -67 q 58 -5 57 -25 q 59 31 59 16 l 59 766 l 199 766 l 199 31 z "},"Ǿ":{"ha":1035,"x_min":49,"x_max":986,"o":"m 176 125 q 82 288 115 194 q 49 497 49 382 q 64 642 49 574 q 108 768 79 710 q 178 871 137 825 q 272 948 220 916 q 386 997 324 980 q 517 1014 448 1014 q 656 995 592 1014 q 775 940 721 976 l 831 1014 l 973 1014 l 859 867 q 953 705 920 799 q 986 497 986 611 q 971 351 986 420 q 927 226 956 283 q 856 122 898 168 q 763 45 815 77 q 649 -4 711 13 q 517 -21 587 -21 q 377 -2 442 -21 q 258 54 312 18 l 197 -21 l 66 -21 l 176 125 m 194 497 q 211 356 194 419 q 259 245 227 293 l 698 828 q 615 866 660 853 q 517 878 570 878 q 382 852 442 878 q 280 777 322 826 q 216 657 239 728 q 194 497 194 586 m 337 165 q 419 127 374 140 q 517 115 464 115 q 653 141 593 115 q 755 216 713 167 q 818 336 796 265 q 840 497 840 407 q 824 637 840 574 q 776 749 807 700 l 337 165 m 717 1267 l 578 1267 l 469 1045 l 566 1045 l 717 1267 z "},"Ș":{"ha":905,"x_min":31,"x_max":873,"o":"m 446 1014 q 607 992 535 1014 q 730 928 679 969 q 809 827 782 887 q 837 694 837 768 l 695 694 q 677 772 695 737 q 625 831 658 807 q 546 869 592 856 q 445 882 500 882 q 383 878 414 882 q 324 864 352 873 q 272 842 296 856 q 229 810 247 828 q 201 768 211 792 q 191 716 191 745 q 199 673 191 691 q 223 641 207 654 q 261 617 238 627 q 311 600 283 608 q 374 587 340 593 q 448 576 409 582 l 499 568 q 564 558 531 563 q 629 545 597 552 q 692 527 661 538 q 749 502 722 516 q 799 467 777 487 q 839 421 822 447 q 864 361 855 395 q 873 285 873 328 q 859 191 873 234 q 820 114 845 148 q 757 55 794 80 q 674 13 720 30 q 573 -12 628 -4 q 458 -21 519 -21 q 279 1 358 -21 q 145 65 200 23 q 60 169 90 108 q 31 308 31 230 l 174 308 q 193 226 174 262 q 250 163 213 189 q 339 124 287 138 q 456 111 391 111 q 528 116 493 111 q 593 130 563 120 q 649 154 624 139 q 692 188 674 168 q 720 232 710 207 q 731 288 731 257 q 722 336 731 316 q 699 371 714 356 q 662 395 684 385 q 614 413 641 406 q 555 426 586 420 q 488 436 523 431 l 423 446 q 336 460 381 452 q 251 480 292 467 q 172 510 209 492 q 108 555 135 528 q 65 622 81 583 q 49 713 49 660 q 63 805 49 763 q 103 880 77 846 q 166 938 130 913 q 247 980 202 963 q 341 1005 291 997 q 446 1014 392 1014 m 455 -274 l 368 -274 l 395 -52 l 531 -52 l 455 -274 z "},"Ț":{"ha":845,"x_min":12,"x_max":833,"o":"m 833 858 l 495 858 l 495 0 l 350 0 l 350 858 l 12 858 l 12 993 l 833 993 l 833 858 m 413 -274 l 326 -274 l 353 -52 l 488 -52 l 413 -274 z "},"˝":{"ha":505,"x_min":59,"x_max":446,"o":"m 59 797 l 133 1019 l 262 1019 l 149 797 l 59 797 m 243 797 l 317 1019 l 446 1019 l 333 797 l 243 797 z "},"Ẃ":{"ha":1514,"x_min":38,"x_max":1476,"o":"m 853 993 l 1086 96 l 1324 993 l 1476 993 l 1205 0 l 986 0 l 757 854 l 523 0 l 305 0 l 38 993 l 193 993 l 426 96 l 664 993 l 853 993 m 957 1267 l 818 1267 l 709 1045 l 807 1045 l 957 1267 z "},"Ẁ":{"ha":1514,"x_min":38,"x_max":1476,"o":"m 853 993 l 1086 96 l 1324 993 l 1476 993 l 1205 0 l 986 0 l 757 854 l 523 0 l 305 0 l 38 993 l 193 993 l 426 96 l 664 993 l 853 993 m 557 1267 l 695 1267 l 805 1045 l 707 1045 l 557 1267 z "},"Ẅ":{"ha":1514,"x_min":38,"x_max":1476,"o":"m 853 993 l 1086 96 l 1324 993 l 1476 993 l 1205 0 l 986 0 l 757 854 l 523 0 l 305 0 l 38 993 l 193 993 l 426 96 l 664 993 l 853 993 m 724 1071 l 582 1071 l 582 1221 l 724 1221 l 724 1071 m 932 1071 l 790 1071 l 790 1221 l 932 1221 l 932 1071 z "},"Ỳ":{"ha":944,"x_min":9,"x_max":935,"o":"m 935 993 l 543 377 l 543 0 l 397 0 l 397 376 l 9 993 l 177 993 l 472 518 l 770 993 l 935 993 m 272 1267 l 411 1267 l 520 1045 l 423 1045 l 272 1267 z "},"Ǽ":{"ha":1285,"x_min":12,"x_max":1255,"o":"m 12 0 l 473 993 l 1241 993 l 1241 858 l 716 858 l 716 564 l 1199 564 l 1199 428 l 716 428 l 716 135 l 1255 135 l 1255 0 l 570 0 l 570 232 l 275 232 l 168 0 l 12 0 m 570 364 l 570 873 l 336 364 l 570 364 m 1056 1267 l 917 1267 l 808 1045 l 905 1045 l 1056 1267 z "},"ǽ":{"ha":1398,"x_min":35,"x_max":1360,"o":"m 57 499 q 82 618 57 565 q 151 709 106 671 q 261 766 197 746 q 406 786 326 786 q 589 752 512 786 q 712 653 667 718 q 768 710 737 685 q 835 751 799 734 q 913 777 872 768 q 1001 786 955 786 q 1149 758 1083 786 q 1262 678 1215 730 q 1334 552 1309 626 q 1360 386 1360 478 q 1359 360 1360 373 q 1357 332 1359 347 l 772 332 q 797 237 778 279 q 847 166 816 195 q 918 122 877 137 q 1009 106 959 106 q 1130 138 1080 106 q 1210 233 1181 170 l 1351 233 q 1302 126 1334 173 q 1225 46 1270 79 q 1125 -4 1181 14 q 1005 -21 1069 -21 q 882 -3 939 -21 q 780 49 825 15 q 701 130 734 82 q 650 237 668 178 q 611 130 639 177 q 541 48 583 82 q 442 -3 498 15 q 320 -21 386 -21 q 203 -4 256 -21 q 113 43 151 13 q 55 116 76 73 q 35 211 35 159 q 55 305 35 263 q 115 376 76 347 q 209 421 153 405 q 333 436 264 436 l 629 436 l 629 454 q 613 539 629 501 q 568 604 597 577 q 497 645 539 631 q 404 659 456 659 q 312 648 351 659 q 248 615 273 636 q 210 565 223 594 q 198 499 198 535 l 57 499 m 1214 453 q 1190 541 1207 503 q 1145 606 1172 580 q 1082 646 1118 632 q 1001 659 1046 659 q 917 645 956 659 q 850 605 879 631 q 802 540 821 578 q 775 453 783 502 l 1214 453 m 332 318 q 214 292 254 318 q 174 215 174 266 q 185 166 174 188 q 219 131 197 145 q 275 109 242 117 q 351 102 308 102 q 463 116 413 102 q 551 157 514 131 q 608 219 588 183 q 629 297 629 255 l 629 318 l 332 318 m 898 1040 l 759 1040 l 650 818 l 747 818 l 898 1040 z "},"ǿ":{"ha":825,"x_min":38,"x_max":787,"o":"m 690 669 q 761 544 736 616 q 787 383 787 472 q 775 269 787 323 q 740 171 763 216 q 684 90 717 126 q 609 30 651 55 q 518 -8 568 5 q 413 -21 469 -21 q 305 -7 355 -21 q 214 31 256 6 l 174 -21 l 45 -21 l 135 97 q 64 222 89 150 q 38 383 38 294 q 50 497 38 443 q 85 595 63 550 q 141 676 108 640 q 216 736 174 711 q 307 773 257 760 q 413 786 357 786 q 520 773 470 786 q 611 734 569 760 l 651 786 l 780 786 l 690 669 m 179 383 q 189 290 179 332 q 218 214 199 248 l 536 627 q 479 651 510 643 q 413 659 449 659 q 315 640 359 659 q 241 585 272 621 q 195 498 211 550 q 179 383 179 447 m 290 139 q 346 115 316 123 q 413 106 377 106 q 510 125 467 106 q 584 180 553 144 q 630 268 614 216 q 646 383 646 319 q 636 476 646 434 q 607 552 626 518 l 290 139 m 613 1040 l 474 1040 l 365 818 l 462 818 l 613 1040 z "},"ș":{"ha":753,"x_min":30,"x_max":722,"o":"m 367 786 q 506 769 445 786 q 609 718 567 751 q 672 639 650 685 q 694 534 694 592 l 557 534 q 544 588 557 564 q 507 629 532 612 q 448 656 483 646 q 367 665 413 665 q 291 657 325 665 q 232 636 257 650 q 194 602 207 622 q 180 558 180 582 q 188 527 180 540 q 209 503 195 513 q 240 486 222 493 q 278 473 257 478 q 320 464 298 468 q 363 457 342 461 l 414 449 q 481 438 446 444 q 551 421 516 432 q 616 394 585 410 q 670 354 647 378 q 708 296 694 330 q 722 215 722 262 q 700 115 722 159 q 634 41 677 71 q 527 -5 591 10 q 380 -21 463 -21 q 227 -4 292 -21 q 117 46 161 13 q 52 127 74 79 q 30 238 30 175 l 167 238 q 180 179 167 205 q 219 136 192 154 q 285 110 245 119 q 379 101 325 101 q 466 108 428 101 q 531 129 505 115 q 571 164 557 143 q 585 212 585 185 q 577 248 585 233 q 555 276 569 264 q 521 296 541 288 q 479 311 502 305 q 432 322 457 317 q 383 331 408 327 l 332 340 q 270 351 303 344 q 205 367 238 357 q 144 392 173 377 q 92 430 115 407 q 56 483 70 452 q 43 555 43 514 q 65 651 43 608 q 130 724 88 693 q 231 770 172 754 q 367 786 291 786 m 373 -274 l 286 -274 l 313 -52 l 449 -52 l 373 -274 z "},"ț":{"ha":569,"x_min":28,"x_max":526,"o":"m 526 6 q 368 -20 438 -20 q 266 -3 310 -20 q 193 49 223 15 q 147 135 163 84 q 132 253 132 186 l 132 648 l 28 648 l 28 766 l 132 766 l 132 942 l 273 942 l 273 766 l 526 766 l 526 648 l 273 648 l 273 253 q 301 141 273 177 q 391 105 330 105 q 449 110 416 105 q 526 127 482 116 l 526 6 m 320 -274 l 233 -274 l 260 -52 l 396 -52 l 320 -274 z "},"ẃ":{"ha":1279,"x_min":24,"x_max":1255,"o":"m 725 766 l 920 97 l 1112 766 l 1255 766 l 1028 0 l 830 0 l 640 635 l 449 0 l 251 0 l 24 766 l 170 766 l 363 96 l 557 766 l 725 766 m 840 1040 l 701 1040 l 592 818 l 689 818 l 840 1040 z "},"ẁ":{"ha":1279,"x_min":24,"x_max":1255,"o":"m 725 766 l 920 97 l 1112 766 l 1255 766 l 1028 0 l 830 0 l 640 635 l 449 0 l 251 0 l 24 766 l 170 766 l 363 96 l 557 766 l 725 766 m 439 1040 l 578 1040 l 687 818 l 590 818 l 439 1040 z "},"ẅ":{"ha":1279,"x_min":24,"x_max":1255,"o":"m 725 766 l 920 97 l 1112 766 l 1255 766 l 1028 0 l 830 0 l 640 635 l 449 0 l 251 0 l 24 766 l 170 766 l 363 96 l 557 766 l 725 766 m 607 843 l 465 843 l 465 993 l 607 993 l 607 843 m 814 843 l 673 843 l 673 993 l 814 993 l 814 843 z "},"ỳ":{"ha":803,"x_min":19,"x_max":784,"o":"m 784 766 l 467 -48 q 412 -154 443 -109 q 339 -227 380 -198 q 247 -270 298 -256 q 134 -284 196 -284 q 70 -280 100 -284 l 70 -157 q 104 -161 88 -160 q 134 -162 120 -162 q 197 -155 169 -162 q 247 -135 225 -149 q 286 -99 269 -121 q 313 -48 302 -78 l 323 -23 l 19 766 l 165 766 l 402 128 l 642 766 l 784 766 m 201 1019 l 340 1019 l 449 797 l 352 797 l 201 1019 z "}}}
